<svg xmlns="http://www.w3.org/2000/svg" xmlns:xlink="http://www.w3.org/1999/xlink" viewBox="0 0 372.16 185.79"><defs><style>.cls-1,.cls-2,.cls-3{fill-rule:evenodd;}.cls-1{fill:url(#GradientFill_2);}.cls-2{fill:#231f20;}.cls-3{fill:#f27121;}.cls-4{font-size:25.6px;fill:gray;font-family:ShreeDev0714, "Shree Devanagari 714";}</style><linearGradient id="GradientFill_2" x1="212" y1="27.16" x2="160.16" y2="73.55" gradientUnits="userSpaceOnUse"><stop offset="0" stop-color="#f9a846"/><stop offset="1" stop-color="#ed2524"/></linearGradient></defs><g id="Camada_2" data-name="Camada 2"><g id="Camada_1-2" data-name="Camada 1"><path class="cls-1" d="M143.89,24.44,186.08,0l21.73,12.59h0l21.74,12.59V50.36h0V75.53l-43.47,25.18L164.35,88.13h0l-21.73-12.6V50.36h0V25.18l1.27-.74Zm26.8-9.65,15.39,8.92,15.39-8.92L186.08,5.88l-15.39,8.91Zm38.4,4.42V37l15.37,8.9V28.12l-15.37-8.91Zm15.38,35.56-15.38,8.9V81.5l15.38-8.9V54.77Zm-23,31.15L186.08,77l-15.39,8.92,15.39,8.91,15.39-8.91Zm-38.4-4.42V63.67l-15.37-8.9V72.59l15.37,8.91ZM147.69,46,163.07,37V19.21l-15.38,8.91V46Zm17.92,13.32L181,50.36l-15.39-8.92-15.38,8.92,15.38,8.91Zm17.92-4.49-15.36,8.9V81.5l15.36-8.9V54.78ZM168.17,37l15.36,8.9V28.11l-15.36-8.9V37ZM204,81.5V63.68l-15.37-8.9V72.6L204,81.5Zm17.93-31.14-15.38-8.92-15.38,8.92,15.38,8.91,15.38-8.91ZM204,19.21l-15.37,8.9V45.93L204,37Z"/><path class="cls-2" d="M110.83,134.41H96.93a6.05,6.05,0,0,1-4.68-1.93,6.78,6.78,0,0,1-1.78-4.79v-6.48a6.4,6.4,0,0,1,1.8-4.69,6.24,6.24,0,0,1,4.66-1.83h13.9v2.66H96.93a3.27,3.27,0,0,0-2.69,1.28,4.6,4.6,0,0,0-1,3v5.85a4.55,4.55,0,0,0,1,3,3.31,3.31,0,0,0,2.69,1.29h13.9v2.69Zm21.64,0H119.89a6.09,6.09,0,0,1-4.64-1.95,6.75,6.75,0,0,1-1.82-4.77l0-13.09h2.69v12.88a4.6,4.6,0,0,0,1,3,3.32,3.32,0,0,0,2.69,1.29h12.58v2.69Zm22.8-6.72a6.85,6.85,0,0,1-1.76,4.75,5.8,5.8,0,0,1-4.53,2h-9.31a6,6,0,0,1-4.63-1.95,6.71,6.71,0,0,1-1.83-4.77v-6.48a6.44,6.44,0,0,1,1.8-4.69,6.28,6.28,0,0,1,4.66-1.83h9.15a6.26,6.26,0,0,1,4.63,1.84,6.42,6.42,0,0,1,1.82,4.68v6.48Zm-2.73-.21v-5.85a4.6,4.6,0,0,0-1-3,3.25,3.25,0,0,0-2.68-1.28h-9.15a3.28,3.28,0,0,0-2.69,1.28,4.65,4.65,0,0,0-1,3v5.85a4.59,4.59,0,0,0,1,3,3.32,3.32,0,0,0,2.69,1.29h9.15a3.29,3.29,0,0,0,2.68-1.29,4.55,4.55,0,0,0,1-3Zm28.6,6.89h-2.69V121.5a3.89,3.89,0,0,0-3.89-3.9h-8.9a3.89,3.89,0,0,0-3.89,3.9v12.87h-2.69V121.5a6.44,6.44,0,0,1,6.58-6.6h8.9a6.11,6.11,0,0,1,4.69,2,6.91,6.91,0,0,1,1.89,4.86v12.58Zm22.14,0H190.7a6.08,6.08,0,0,1-4.64-1.95,6.75,6.75,0,0,1-1.82-4.77v-6.36a6.75,6.75,0,0,1,1.82-4.77,6.05,6.05,0,0,1,4.64-2h12.58v2.7H190.7a3.32,3.32,0,0,0-2.67,1.29,4.57,4.57,0,0,0-1.06,3v1.95l16.19,0v2.7l-16.19,0v1.29a4.57,4.57,0,0,0,1.06,3,3.32,3.32,0,0,0,2.67,1.29h12.58Z"/><path class="cls-3" d="M239.16,120.38a5.57,5.57,0,0,1-1.66,4.15,6.6,6.6,0,0,1,.29,8.18,4.54,4.54,0,0,1-3.64,1.66l-10.06,0,0-2.66,9.52.05a2.3,2.3,0,0,0,1.8-.83,2.87,2.87,0,0,0,.72-1.92c0-2.07-.81-3.11-2.43-3.11h-9.61v-2.7h9.44a2.47,2.47,0,0,0,2-.83,3.07,3.07,0,0,0,.73-2.12,2.83,2.83,0,0,0-.68-1.93,2.36,2.36,0,0,0-1.84-.77c-.94,0-2.35,0-4.23,0h-4.18a3.89,3.89,0,0,0-3.89,3.9v12.87h-2.69V121.79a7,7,0,0,1,1.89-4.88,6.07,6.07,0,0,1,4.69-2h8.9a4.4,4.4,0,0,1,3.56,1.64,5.86,5.86,0,0,1,1.37,3.88Zm22,14H248.63a6.09,6.09,0,0,1-4.64-1.95,6.74,6.74,0,0,1-1.81-4.77v-6.36a6.74,6.74,0,0,1,1.81-4.77,6.07,6.07,0,0,1,4.64-2h12.58v2.7H248.63a3.35,3.35,0,0,0-2.67,1.29,4.56,4.56,0,0,0-1.05,3v1.95l16.18,0v2.7l-16.18,0v1.29a4.56,4.56,0,0,0,1.05,3,3.35,3.35,0,0,0,2.67,1.29h12.58v2.69Zm20.48,0H269.12a6.08,6.08,0,0,1-4.64-1.95,6.7,6.7,0,0,1-1.82-4.77v-6.36a6.7,6.7,0,0,1,1.82-4.77,6.05,6.05,0,0,1,4.64-2h12.57v2.7H269.12a3.32,3.32,0,0,0-2.67,1.29,4.51,4.51,0,0,0-1.06,3v1.95l16.18,0v2.7l-16.18,0v1.29a4.51,4.51,0,0,0,1.06,3,3.32,3.32,0,0,0,2.67,1.29h12.57Z"/><text class="cls-4" transform="translate(0 173.48)">Manufacturing Execution System</text></g></g></svg>