<svg xmlns="http://www.w3.org/2000/svg" viewBox="0 0 136.4145 136.4406"><g id="Camada_2" data-name="Camada 2"><g id="Camada_1-2" data-name="Camada 1"><g id="cash"><path d="M129.5577,59.8011V27.2753c0-9.3418-19.4337-13.6376-37.5035-13.6376a102.2876,102.2876,0,0,0-17.0471,1.3637V13.6377C75.0071,4.2959,55.5734,0,37.5035,0S0,4.2959,0,13.6377V115.92c0,9.3418,19.4337,13.6377,37.5035,13.6377a100.2364,100.2364,0,0,0,19.2973-1.8411,51.073,51.073,0,0,0,72.7569-67.9155ZM108.3511,39.6856a50.0523,50.0523,0,0,0,14.3878-4.16v15.07A51.4824,51.4824,0,0,0,108.3511,39.6856Zm-70.8476-12.41a74.53,74.53,0,0,0,30.6848-5.3869V34.0941c-.5455,1.9093-10.7738,6.8189-30.6848,6.8189S7.3643,35.9352,6.8188,34.0941V21.8884A74.53,74.53,0,0,0,37.5035,27.2753Zm-.4091,40.913a47.1167,47.1167,0,0,0-3,13.6376C16.3652,81.28,7.16,76.8482,6.8188,75.0071V62.8014A75.0077,75.0077,0,0,0,37.0944,68.1883ZM6.8188,95.4636V83.2579a69.688,69.688,0,0,0,27.2753,5.3868,51.0755,51.0755,0,0,0,2.8639,13.6377C17.4562,102.2824,7.3643,97.3047,6.8188,95.4636ZM40.0947,61.3694H37.5035c-19.9109,0-30.1392-4.9777-30.6847-6.8188V42.3449a74.53,74.53,0,0,0,30.6847,5.3869A105.694,105.694,0,0,0,51.55,46.8453,51.3487,51.3487,0,0,0,40.0947,61.3694ZM92.0542,20.4565c19.9791,0,30.2074,4.9777,30.6847,6.8188s-10.7056,6.8188-30.6847,6.8188a99.4778,99.4778,0,0,1-17.0471-1.4319V21.8884A99.4879,99.4879,0,0,1,92.0542,20.4565ZM37.5035,6.8188c19.7746,0,30.0029,4.91,30.6848,6.8189-.6819,1.841-10.2283,6.41-28.5709,6.8188H37.5035c-19.9109,0-30.1392-4.9778-30.6847-6.8188h0C7.3643,11.7966,17.5926,6.8188,37.5035,6.8188Zm0,115.92c-19.9109,0-30.1392-4.9778-30.6847-6.8189V103.7143a74.5285,74.5285,0,0,0,30.6847,5.3869h2.523a51.1433,51.1433,0,0,0,9.6827,12.8876A100.0387,100.0387,0,0,1,37.5035,122.7389Zm47.7318,6.8188a44.3224,44.3224,0,1,1,44.3224-44.3224A44.3224,44.3224,0,0,1,85.2353,129.5577Z"/><path d="M88.6447,81.8259V66.1426a8.7964,8.7964,0,0,1,6.8189,6.0006,3.5062,3.5062,0,0,0,6.8188-1.6365A16.2288,16.2288,0,0,0,88.6447,59.46v-1.5a3.4094,3.4094,0,0,0-6.8188,0v1.432A15.4786,15.4786,0,0,0,68.1883,73.8479a15.75,15.75,0,0,0,.3409,3.1367,16.2969,16.2969,0,0,0,13.2967,11.66v15.7515a8.7962,8.7962,0,0,1-6.8188-6,3.5062,3.5062,0,1,0-6.8188,1.6365,16.0924,16.0924,0,0,0,13.6376,10.9783v1.5a3.4094,3.4094,0,0,0,6.8188,0v-1.5a16.0924,16.0924,0,0,0,13.6377-11.3874A14.6662,14.6662,0,0,0,88.6447,81.8259ZM75.0071,75.0071a5.3171,5.3171,0,0,1,0-1.5,8.3871,8.3871,0,0,1,6.8188-7.4325V81.0077a8.8646,8.8646,0,0,1-6.8188-5.66ZM95.4636,98.0547a8.7964,8.7964,0,0,1-6.8189,6.0006V89.1221a8.3871,8.3871,0,0,1,6.8189,7.5007A5.5976,5.5976,0,0,1,95.4636,98.0547Z"/></g></g></g></svg>