<svg xmlns="http://www.w3.org/2000/svg" viewBox="0 0 185.3535 110.7539"><g id="Camada_2" data-name="Camada 2"><g id="Camada_1-2" data-name="Camada 1"><path d="M143.9092,110.7539H41.4443V94.8579l.1192-.2808c.12-.2827,12.4394-28.267,51.1133-28.267,20.1689,0,32.9726,7.6445,40.163,14.0571a44.3864,44.3864,0,0,1,10.95,14.21l.1192.2808Zm-99.4649-3h96.4649V95.4824C139.56,92.5537,127.7363,69.31,92.6768,69.31c-35.0518,0-46.878,23.2343-48.2325,26.1723ZM92.6768,52.7324c-15.0313,0-26.3663-11.3349-26.3663-26.3662S77.6455,0,92.6768,0,119.043,11.335,119.043,26.3662,107.708,52.7324,92.6768,52.7324ZM92.6768,3A22.8534,22.8534,0,0,0,69.3105,26.3662,22.8534,22.8534,0,0,0,92.6768,49.7324,22.8534,22.8534,0,0,0,116.043,26.3662,22.8534,22.8534,0,0,0,92.6768,3Z"/><path d="M146.5537,44.4438a22.2219,22.2219,0,1,1,22.2227-22.2221A22.2471,22.2471,0,0,1,146.5537,44.4438Zm0-41.4438a19.2219,19.2219,0,1,0,19.2227,19.2217A19.2438,19.2438,0,0,0,146.5537,3Z"/><path d="M185.3535,95.0054H148.3691V92.6763c-.2119-1.3394-7.2461-16.3589-25.6709-25.1709l-2.292-1.0962,2.0674-1.4776c6.51-4.65,14.3858-6.91,24.08-6.91,15.1524,0,24.8233,6.375,30.27,11.7231,5.8711,5.7666,8.53,11.9121,8.53,12.9854Zm-34.1-3h31.1V82.9136c-.53-1.4019-9.0967-21.8921-35.8-21.8921-8.0039,0-14.6455,1.6264-20.2139,4.96C143.084,74.8623,150.2812,88.3838,151.2539,92.0054Z"/><path d="M38.8,44.4438A22.2219,22.2219,0,1,1,61.0215,22.2217,22.2471,22.2471,0,0,1,38.8,44.4438ZM38.8,3A19.2219,19.2219,0,1,0,58.0215,22.2217,19.2438,19.2438,0,0,0,38.8,3Z"/><path d="M36.9844,95.0054H0V82.73c0-1.0733,2.6592-7.2188,8.53-12.9854C13.9766,64.3965,23.6475,58.0215,38.8,58.0215c9.6934,0,17.57,2.26,24.0811,6.91l2.0683,1.4776-2.293,1.0962c-18.4257,8.812-25.46,23.8315-25.6767,25.2578ZM3,92.0054H34.1c.9727-3.6221,8.17-17.1431,24.9141-26.023-5.5684-3.3345-12.21-4.9609-20.2139-4.9609-26.7031,0-35.2695,20.49-35.8,21.8921Z"/></g></g></svg>