<svg xmlns="http://www.w3.org/2000/svg" viewBox="0 0 171.13 71.5974"><g id="Camada_2" data-name="Camada 2"><g id="Camada_1-2" data-name="Camada 1"><rect width="171.13" height="71.5974" rx="10"/><path d="M46.356,49.51V22.3116h3.4V33.54H63.3549V22.3116h3.4V49.51h-3.4V36.5816H49.756V49.51Z" style="fill:#fff"/><path d="M71.4067,49.51V22.3116h3.4V49.51Z" style="fill:#fff"/><path d="M78.2064,35.91q0-6.3963,3.1313-10.2888a10.364,10.364,0,0,1,8.41-3.8468A10.6673,10.6673,0,0,1,96.6367,24.19a10.1479,10.1479,0,0,1,3.6682,6.2629l-3.4.3578a7.2634,7.2634,0,0,0-13.0623-2.9526A13.1577,13.1577,0,0,0,81.6061,35.91a12.9135,12.9135,0,0,0,2.2367,7.9181,7.4662,7.4662,0,0,0,11.3625.6262,8.808,8.808,0,0,0,2.0576-6.1285H89.7476V34.9711h10.915V48.8387H98.2472l-.4921-2.9079a8.5722,8.5722,0,0,1-3.4894,2.9079,10.5224,10.5224,0,0,1-4.5181.984,10.4123,10.4123,0,0,1-8.41-3.8025Q78.2062,42.2188,78.2064,35.91Z" style="fill:#fff"/><path d="M104.3754,49.51V22.3116h3.4V33.54h13.5988V22.3116h3.4V49.51h-3.4V36.5816H107.7755V49.51Z" style="fill:#fff"/></g></g></svg>