<svg xmlns="http://www.w3.org/2000/svg" viewBox="0 0 171.13 71.5974"><g id="Camada_2" data-name="Camada 2"><g id="Camada_1-2" data-name="Camada 1"><rect width="171.13" height="71.5974" rx="10"/><path d="M46.5571,49.51V22.3116h3.4V46.4677h14.27V49.51Z" style="fill:#fff"/><path d="M65.5242,35.91q0-6.3963,3.3553-10.2888a11.2291,11.2291,0,0,1,8.9018-3.8468,11.0981,11.0981,0,0,1,8.8574,3.8468Q89.9938,29.5138,89.994,35.91q0,6.3075-3.3553,10.11a11.1551,11.1551,0,0,1-8.8574,3.8025A11.2875,11.2875,0,0,1,68.88,46.02Q65.5246,42.2188,65.5242,35.91Zm3.4,0A12.2362,12.2362,0,0,0,71.34,43.8285a8.4546,8.4546,0,0,0,12.8383,0,12.2367,12.2367,0,0,0,2.416-7.9181,12.4621,12.4621,0,0,0-2.416-8.0521,8.2939,8.2939,0,0,0-12.8383,0A12.4615,12.4615,0,0,0,68.9239,35.91Z" style="fill:#fff"/><path d="M91.4251,22.3116h3.4l5.7707,21.07,5.77-21.07h3.4l5.77,21.07,5.8158-21.07h3.221L117.2811,49.51h-3.4l-5.8158-21.7407-5.77,21.7407h-3.4Z" style="fill:#fff"/></g></g></svg>