<svg xmlns="http://www.w3.org/2000/svg" viewBox="0 0 171.13 71.5974"><g id="Camada_2" data-name="Camada 2"><g id="Camada_1-2" data-name="Camada 1"><rect width="171.13" height="71.5974" rx="10"/><path d="M18.7328,49.2412V22.0432h4.25L31.4821,43.47l8.5-21.4272h4.25v27.198h-3.4V28.8426L32.6451,49.2412H30.2744L22.1329,28.8426V49.2412Z" style="fill:#fff"/><path d="M48.8834,49.2412V22.0432H67.5822v3.2206H52.2835v8.3206H65.8823V36.805H52.2835V46.02H67.5822v3.221Z" style="fill:#fff"/><path d="M70.5344,49.2412V22.0432h8.5a11.2813,11.2813,0,0,1,8.8574,3.7128q3.3551,3.7134,3.355,9.886t-3.355,9.8864a11.2794,11.2794,0,0,1-8.8574,3.7128Zm3.4-3.042h5.1A7.9463,7.9463,0,0,0,85.431,43.33a11.6921,11.6921,0,0,0,2.4154-7.71,11.5108,11.5108,0,0,0-2.4154-7.6655,7.9486,7.9486,0,0,0-6.397-2.8695h-5.1Z" style="fill:#fff"/><path d="M94.6011,49.2412V22.0432h3.4v27.198Z" style="fill:#fff"/><path d="M102.2508,41.1V22.0432h3.4V41.1a4.77,4.77,0,0,0,2.1026,3.9812,8.4219,8.4219,0,0,0,9.3939,0A4.7715,4.7715,0,0,0,119.25,41.1V22.0432h3.4V41.1a7.43,7.43,0,0,1-3.1313,6.1285,11.9013,11.9013,0,0,1-14.136,0A7.4282,7.4282,0,0,1,102.2508,41.1Z" style="fill:#fff"/><path d="M126.8987,49.2412V22.0432h4.25L139.6479,43.47l8.5-21.4272h4.25v27.198h-3.4V28.8426L140.811,49.2412H138.44l-8.1415-20.3986V49.2412Z" style="fill:#fff"/></g></g></svg>