<svg xmlns="http://www.w3.org/2000/svg" viewBox="0 0 118.9809 119.1199"><g id="Camada_2" data-name="Camada 2"><g id="Camada_1-2" data-name="Camada 1"><g id="People"><g id="Icon-34"><path id="price-tag" d="M52.0412,52.216a1.9839,1.9839,0,0,0,0,2.8081L63.9568,66.94a1.9856,1.9856,0,0,0,2.8081-2.8081L54.8494,52.216a1.9838,1.9838,0,0,0-2.8082,0ZM46.9056,60.16a1.9856,1.9856,0,1,0-2.8081,2.8081L56.0131,74.8834a1.9856,1.9856,0,0,0,2.8081-2.8081Zm-7.9437,7.9437a1.9856,1.9856,0,0,0-2.8081,2.8081L48.0694,82.8271a1.9856,1.9856,0,0,0,2.8081-2.8081ZM76.4543,63.55,55.4312,42.5267,26.4645,71.4934l21.023,21.023ZM56.8353,38.3145,80.6664,62.1457a1.9837,1.9837,0,0,1,0,2.8081L48.8916,96.7286a1.9848,1.9848,0,0,1-2.8081,0L22.2523,72.8975a1.9837,1.9837,0,0,1,0-2.8081L54.0272,38.3145a1.9837,1.9837,0,0,1,2.8081,0Zm46.2086,34.3208a1.9827,1.9827,0,0,0-2.7188.709L77.5624,112.1692a5.9508,5.9508,0,0,1-8.0529,2.2361l-4.4346-2.8736a1.9853,1.9853,0,0,0-2.1587,3.3324l4.52,2.9292a9.938,9.938,0,0,0,13.5579-3.6263l22.7567-38.8149a1.9862,1.9862,0,0,0-.7069-2.7168ZM118.9809,9.93V41.7045c0,6.1445-1.9541,10.722-6.54,15.3055L53.4632,116.0715a9.9317,9.9317,0,0,1-14.0425,0L2.9094,79.5622a9.9292,9.9292,0,0,1,0-14.0444l51.5825-51.513c-13.4884-3.0663-21.8591-3.2728-24.31-2.5559,1.0347,1.0585,4.2579,3.3065,12.0367,6.3728a1.9861,1.9861,0,1,1-1.4556,3.6958c-16.1019-6.347-15.1606-9.8661-14.8051-11.1907.7367-2.76,4.6709-3.68,12.73-2.9749a146.868,146.868,0,0,1,23.8549,4.5537,146.3916,146.3916,0,0,1,22.9315,7.9835c7.3381,3.4217,10.2792,6.18,9.5385,8.9426-.715,2.6651-4.4306,2.9908-5.652,3.0981a1.7327,1.7327,0,0,1-.1748.0079,1.9857,1.9857,0,0,1-.1707-3.9639,9.6041,9.6041,0,0,0,1.7714-.2919c-.85-.8878-3.0007-2.2719-6.44-3.92a7.9392,7.9392,0,1,0,6.8316-3.9023,1.986,1.986,0,0,1,0-3.9719A11.984,11.984,0,1,1,80.722,22.1391a151.6324,151.6324,0,0,0-19.2059-6.3966c-.852-.2284-1.6721-.437-2.4923-.6455L5.7175,68.3278a5.9549,5.9549,0,0,0,0,8.4244l36.5113,36.5112a6.1005,6.1005,0,0,0,8.4243,0l58.9781-59.0615c3.8706-3.8685,5.3779-7.3737,5.3779-12.4974V9.93a5.965,5.965,0,0,0-5.9578-5.9577H77.2764c-5.1237,0-8.6288,1.5073-12.4974,5.3759A1.9856,1.9856,0,0,1,61.9709,6.54C66.5544,1.9542,71.132,0,77.2764,0h31.7749a9.9408,9.9408,0,0,1,9.93,9.93Z" style="fill-rule:evenodd"/></g></g></g></g></svg>