<svg xmlns="http://www.w3.org/2000/svg" viewBox="0 0 151.658 151.658"><g id="Camada_2" data-name="Camada 2"><g id="Camada_1-2" data-name="Camada 1"><path d="M75.8033,131.4588A55.6172,55.6172,0,1,0,20.1784,75.8416,55.6835,55.6835,0,0,0,75.8033,131.4588Zm0-106.1783A50.5611,50.5611,0,1,1,25.2352,75.8416,50.622,50.622,0,0,1,75.8033,25.2805Z"/><path d="M75.8033,37.9208a2.5275,2.5275,0,0,0,2.5284-2.528V30.3366a2.5284,2.5284,0,0,0-5.0568,0v5.0562A2.5275,2.5275,0,0,0,75.8033,37.9208Z"/><path d="M75.8033,113.7624a2.5276,2.5276,0,0,0-2.5284,2.5281v5.0561a2.5284,2.5284,0,0,0,5.0568,0v-5.0561A2.526,2.526,0,0,0,75.8033,113.7624Z"/><path d="M116.2578,78.37h5.0568a2.5281,2.5281,0,1,0,0-5.0561h-5.0568a2.5281,2.5281,0,1,0,0,5.0561Z"/><path d="M35.3488,73.3136H30.292a2.5281,2.5281,0,1,0,0,5.0561h5.0568a2.5281,2.5281,0,1,0,0-5.0561Z"/><path d="M47.9908,103.65a2.5214,2.5214,0,0,0,1.7876-.7407l20.92-20.9171a9.9889,9.9889,0,0,0,5.1049,1.4334A10.0908,10.0908,0,0,0,78.3317,63.56V50.5611a2.5284,2.5284,0,0,0-5.0568,0V63.56A10.1017,10.1017,0,0,0,65.69,73.3136a9.9776,9.9776,0,0,0,1.4336,5.1041l-20.92,20.9171a2.5281,2.5281,0,0,0,1.7876,4.3154ZM75.8033,68.2575a5.0561,5.0561,0,1,1-5.0568,5.0561A5.0615,5.0615,0,0,1,75.8033,68.2575Z"/><path d="M25.4476,25.2805H45.4649a2.5281,2.5281,0,1,0,0-5.0561H32.0593A70.7626,70.7626,0,0,1,146.6011,75.8416a2.5285,2.5285,0,0,0,5.0569,0A75.7944,75.7944,0,0,0,27.7661,17.216V2.5281a2.5284,2.5284,0,0,0-5.0568,0V25.2805h2.2579A2.5362,2.5362,0,0,0,25.4476,25.2805Z"/><path d="M12.138,106.7572A2.5329,2.5329,0,1,0,9.8625,110.4a2.41,2.41,0,0,0,1.0872-.2553A2.5352,2.5352,0,0,0,12.138,106.7572Z"/><path d="M19.85,119.1725a2.5227,2.5227,0,1,0-1.9975,4.07,2.6054,2.6054,0,0,0,1.5676-.5309A2.5293,2.5293,0,0,0,19.85,119.1725Z"/><path d="M15.6778,113.1557a2.5326,2.5326,0,1,0-2.1491,3.87,2.63,2.63,0,0,0,1.34-.3792A2.5392,2.5392,0,0,0,15.6778,113.1557Z"/><path d="M21.0633,124.6331a2.5176,2.5176,0,0,0-.0758,3.5645,2.5081,2.5081,0,0,0,3.565.0784,2.5222,2.5222,0,0,0-3.4892-3.6429Z"/><path d="M26.3982,130.0178a2.5276,2.5276,0,1,0,3.5651-.2806A2.5252,2.5252,0,0,0,26.3982,130.0178Z"/><path d="M5.2861,96.1166a2.5729,2.5729,0,0,0,1.8457-3.0842,2.5375,2.5375,0,0,0-3.0847-1.82,2.4992,2.4992,0,0,0-1.82,3.0589,2.5367,2.5367,0,0,0,2.4525,1.9213A2.4927,2.4927,0,0,0,5.2861,96.1166Z"/><path d="M3.5667,88.7094a2.5444,2.5444,0,1,0-.3539.0228A1.5163,1.5163,0,0,0,3.5667,88.7094Z"/><path d="M9.2557,100.0326A2.5155,2.5155,0,1,0,6.879,103.42a2.7159,2.7159,0,0,0,.8849-.1543A2.5034,2.5034,0,0,0,9.2557,100.0326Z"/><path d="M2.53,81.2011h.1011A2.53,2.53,0,1,0,.0017,78.7742,2.5522,2.5522,0,0,0,2.53,81.2011Z"/><path d="M32.2641,134.8464a2.4958,2.4958,0,0,0,2.0733,3.9437,2.4828,2.4828,0,0,0,2.0733-1.087,2.5177,2.5177,0,1,0-4.1466-2.8567Z"/><path d="M123.6913,127.9423V127.92a2.5277,2.5277,0,0,0-.1517,3.59,2.5881,2.5881,0,0,0,1.871.8089,2.5485,2.5485,0,0,0,1.694-.6573,2.5239,2.5239,0,0,0-3.4133-3.7187Z"/><path d="M128.8239,122.7117a2.5147,2.5147,0,0,0,1.8711,4.1966,2.4651,2.4651,0,0,0,1.8963-.8621,2.5156,2.5156,0,1,0-3.7674-3.3345Z"/><path d="M133.3751,116.9731a2.542,2.542,0,0,0,.5815,3.5392,2.4761,2.4761,0,0,0,1.4665.4778,2.5371,2.5371,0,1,0-2.048-4.017Z"/><path d="M118.0529,132.5964a2.5327,2.5327,0,0,0-.5057,3.5368,2.4177,2.4177,0,0,0,2.0228,1.0112,2.4619,2.4619,0,0,0,1.4917-.48,2.53,2.53,0,1,0-3.0088-4.0677Z"/><path d="M111.96,136.6666a2.52,2.52,0,0,0-.86,3.4634,2.48,2.48,0,0,0,2.1744,1.2388,2.4241,2.4241,0,0,0,1.29-.354,2.5343,2.5343,0,0,0-2.6042-4.3482Z"/><path d="M140.7833,109.8692a2.5584,2.5584,0,0,0-3.4639.9607h.0253a2.4971,2.4971,0,0,0,.9355,3.4381,2.3943,2.3943,0,0,0,1.2389.3287,2.53,2.53,0,0,0,1.2642-4.7275Z"/><path d="M149.0006,80.8977a2.5307,2.5307,0,0,0-.531,5.0334h.2782a2.5235,2.5235,0,0,0,.2528-5.0334Z"/><path d="M148.09,88.4288a2.52,2.52,0,0,0-1.0367,4.9322,1.8064,1.8064,0,0,0,.531.0531,2.52,2.52,0,0,0,.5057-4.9853Z"/><path d="M146.3963,95.8107a2.4986,2.4986,0,0,0-3.16,1.6432,2.542,2.542,0,0,0,1.6182,3.1854,2.7832,2.7832,0,0,0,.7838.1011,2.5227,2.5227,0,0,0,.7585-4.93Z"/><path d="M143.9691,102.9929a2.54,2.54,0,0,0-3.3375,1.2893,2.4961,2.4961,0,0,0,1.29,3.3345,2.4115,2.4115,0,0,0,1.0113.23,2.566,2.566,0,0,0,2.3262-1.5194A2.54,2.54,0,0,0,143.9691,102.9929Z"/><path d="M105.512,140.1047a2.5142,2.5142,0,0,0,1.062,4.8008,2.6347,2.6347,0,0,0,1.0619-.2275,2.5113,2.5113,0,0,0,1.2136-3.3623A2.4834,2.4834,0,0,0,105.512,140.1047Z"/><path d="M62.605,145.3884a2.5337,2.5337,0,1,0-.9355,4.98,2.5025,2.5025,0,0,0,.4551.0278,2.5249,2.5249,0,0,0,.48-5.008Z"/><path d="M69.8615,146.3718a2.5372,2.5372,0,0,0-.43,5.0561v-.0253a.6279.6279,0,0,0,.2023.0253,2.533,2.533,0,0,0,.2275-5.0561Z"/><path d="M55.5,143.6693a2.5232,2.5232,0,1,0-1.4665,4.8286,2.6505,2.6505,0,0,0,.7332.1011,2.54,2.54,0,0,0,2.4273-1.7974A2.4958,2.4958,0,0,0,55.5,143.6693Z"/><path d="M48.5976,141.1918a2.5342,2.5342,0,0,0-1.9468,4.6794,2.7082,2.7082,0,0,0,.986.1745,2.5213,2.5213,0,0,0,.9608-4.8539Z"/><path d="M84.4757,146.0962a2.5249,2.5249,0,0,0,.3034,5.0309,1.1224,1.1224,0,0,0,.3034-.0278v.0278a2.5334,2.5334,0,0,0,2.2-2.8315A2.4942,2.4942,0,0,0,84.4757,146.0962Z"/><path d="M98.7132,142.835a2.52,2.52,0,0,0,.809,4.9045,3.1808,3.1808,0,0,0,.8344-.1264,2.5264,2.5264,0,1,0-1.6434-4.7781Z"/><path d="M91.6817,144.8322a2.5215,2.5215,0,0,0,.5562,4.98,2.2619,2.2619,0,0,0,.5815-.0506,2.53,2.53,0,1,0-1.1377-4.93Z"/><path d="M77.1686,146.6018a2.5283,2.5283,0,0,0,.0506,5.0562H77.27a2.5286,2.5286,0,1,0-.1012-5.0562Z"/><path d="M41.9985,138.0317a2.5172,2.5172,0,1,0-2.402,4.4241,2.2827,2.2827,0,0,0,1.1884.3287,2.5335,2.5335,0,0,0,1.2136-4.7528Z"/></g></g></svg>