<svg xmlns="http://www.w3.org/2000/svg" viewBox="0 0 50 56.15"><defs><style>.cls-1{fill:#666;}</style></defs><g id="Camada_2" data-name="Camada 2"><g id="Camada_1-2" data-name="Camada 1"><path class="cls-1" d="M48.76,53.91h-18L28,27.28A7.92,7.92,0,0,0,29.44,26L41.8,34.81a1.6,1.6,0,0,0,.67.22,1.2,1.2,0,0,0,.79-.34l1.68-1.57a1.18,1.18,0,0,0,.34-.79c0-.22-.11-.67-.34-.78L33,20.65a1.19,1.19,0,0,0-1.57,0l-.67.67a5.92,5.92,0,0,0-4.27-4.83L30.45,2.33A1.15,1.15,0,0,0,29.78,1L27.64.09a1.11,1.11,0,0,0-1.46.56l-6.52,14.6a1.26,1.26,0,0,0,0,.9,1,1,0,0,0,.68.68l1.46.56a5.76,5.76,0,0,0-2.59,4.94,1,1,0,0,0,.12.57L3.6,25.59a1.3,1.3,0,0,0-.79.56,1.18,1.18,0,0,0-.11.9l.67,2.25a1.11,1.11,0,0,0,1.12.79h.12l15.84-.9a1,1,0,0,0,1-1.13V26.94a.86.86,0,0,0,.45.22L19.1,53.91h-18a1.12,1.12,0,0,0,0,2.24H48.88A1.06,1.06,0,0,0,50,55,1.15,1.15,0,0,0,48.76,53.91ZM32.25,23l10.22,9.32-.11.12L30.9,24.36ZM27.75,2.56l.23.11-3.6,13.26L22.25,15Zm-2.81,16a3.74,3.74,0,0,1,3.71,3.71,3.65,3.65,0,0,1-3.71,3.6,3.74,3.74,0,0,1-3.7-3.71A3.65,3.65,0,0,1,24.94,18.51ZM5.28,27.73v-.12l14-2.58v2ZM21.46,53.91l2.7-26c.22,0,.56.11.78.11a1.94,1.94,0,0,0,.79-.11l2.7,26Z"/></g></g></svg>