<svg xmlns="http://www.w3.org/2000/svg" viewBox="0 0 41.71 50"><defs><style>.cls-1{fill:#666;}</style></defs><g id="Camada_2" data-name="Camada 2"><g id="Camada_1-2" data-name="Camada 1"><g id="Layer_2" data-name="Layer 2"><g id="Layer_3" data-name="Layer 3"><path class="cls-1" d="M.66,36.36l3.76-4.65A3,3,0,0,0,5,29.94V20.35a13.43,13.43,0,0,1,9.74-12.9V3.69A3.7,3.7,0,0,1,18.44,0a3.74,3.74,0,0,1,3.68,3.69V7.37a13.42,13.42,0,0,1,9.74,13v9.59a3,3,0,0,0,.59,1.77l3.76,4.65a2.35,2.35,0,0,1,.52,1.4v5.82H0V37.76A4.22,4.22,0,0,1,.66,36.36ZM20,3.69a1.48,1.48,0,1,0-2.95,0V7a10.19,10.19,0,0,1,3,0V3.69ZM2.36,41.3h32.3V37.76L30.9,33.11a4.86,4.86,0,0,1-1.11-3.17V20.35a11.28,11.28,0,1,0-22.56,0v9.59a4.86,4.86,0,0,1-1.11,3.17L2.36,37.76Z"/><path class="cls-1" d="M20,11.58v2.21A8.22,8.22,0,0,0,11.8,22H9.59A10.38,10.38,0,0,1,20,11.58Z"/><path class="cls-1" d="M18.51,47.79A3.82,3.82,0,0,0,22.35,44h2.21a6,6,0,1,1-12.1,0h2.22A3.81,3.81,0,0,0,18.51,47.79Z"/></g></g><circle class="cls-1" cx="31.12" cy="18.03" r="10.59"/></g></g></svg>