<svg xmlns="http://www.w3.org/2000/svg" viewBox="0 0 50 34.31"><defs><style>.cls-1{fill:#666;}</style></defs><g id="Camada_2" data-name="Camada 2"><g id="Camada_1-2" data-name="Camada 1"><path class="cls-1" d="M50,15.19A.4.4,0,0,0,50,15h0C46.68,6.77,39.38,2.4,33.83.19a2.78,2.78,0,0,0-2.19.07L27.72,2.07h0L22.05,4.71h0L1.27,14.91A1,1,0,0,0,1,15a2,2,0,0,0-1,1.76V32.29a2,2,0,0,0,2,2H48a2,2,0,0,0,2-2V15.2Zm-.89,16.68A2.82,2.82,0,0,1,45.24,30a2.87,2.87,0,0,1,.52-2.48A2.83,2.83,0,0,1,48,26.41a2.68,2.68,0,0,1,1.11.25ZM27.77,3a2.85,2.85,0,0,1-2.28,4.53,2.83,2.83,0,0,1-2.75-2.19ZM21.91,5.77a3.72,3.72,0,0,0,7.3-1.06,3.8,3.8,0,0,0-.61-2.06L32,1.07A1.89,1.89,0,0,1,33.5,1c5.25,2.09,12.12,6.16,15.39,13.74H3.6ZM24.23,17a2.84,2.84,0,0,1-5.64.5,2.93,2.93,0,0,1,.3-1.83h5A2.91,2.91,0,0,1,24.23,17ZM22.78,32.6a3,3,0,0,1,2.17-2,2.84,2.84,0,0,1,3.37,2.79v.07H22.65A2.08,2.08,0,0,1,22.78,32.6Zm25.2.82H29.21v-.07a3.73,3.73,0,0,0-4.42-3.67,3.83,3.83,0,0,0-2.86,2.65,3.27,3.27,0,0,0-.18,1.09H2A1.14,1.14,0,0,1,.89,32.29V16.78a1.07,1.07,0,0,1,.58-1l.18-.09A.87.87,0,0,1,2,15.65H17.9a3.85,3.85,0,0,0-.19,2,3.72,3.72,0,0,0,2.84,3,4.07,4.07,0,0,0,.84.09A3.73,3.73,0,0,0,25.12,17a3.74,3.74,0,0,0-.25-1.33H49.11v10A3.79,3.79,0,0,0,48,25.52a3.75,3.75,0,0,0-3.63,4.67,3.67,3.67,0,0,0,2.06,2.47A3.8,3.8,0,0,0,48,33a3.73,3.73,0,0,0,.94-.12A1.13,1.13,0,0,1,48,33.42Z"/><path class="cls-1" d="M9.11,21.43a3.74,3.74,0,1,0,3.74,3.73A3.74,3.74,0,0,0,9.11,21.43Zm0,6.58A2.85,2.85,0,1,1,12,25.16,2.85,2.85,0,0,1,9.11,28Z"/><path class="cls-1" d="M35.71,17.33a3.74,3.74,0,1,0,3.74,3.74A3.75,3.75,0,0,0,35.71,17.33Zm0,6.59a2.85,2.85,0,1,1,2.85-2.85A2.85,2.85,0,0,1,35.71,23.92Z"/></g></g></svg>