<svg xmlns="http://www.w3.org/2000/svg" viewBox="0 0 38.13 50"><defs><style>.cls-1{fill:#666;}</style></defs><g id="Camada_2" data-name="Camada 2"><g id="Camada_1-2" data-name="Camada 1"><g id="Layer_1"><path class="cls-1" d="M1.73,38.61V4.43a2.71,2.71,0,0,1,2.7-2.71H22.06a1.39,1.39,0,0,1,1,.41L29.1,8.22a1.36,1.36,0,0,1,.41,1V38.61a2.71,2.71,0,0,1-2.71,2.7H4.43A2.7,2.7,0,0,1,1.73,38.61ZM34.15,6.9h-1L33,7.75l.1.86H34A2.77,2.77,0,0,1,36.4,11.4V45.57a2.7,2.7,0,0,1-2.7,2.7H11.33a2.7,2.7,0,0,1-2.69-2.39c0-.17,0-1,0-1.11a.86.86,0,1,0-1.72,0c0,.15,0,1.15,0,1.29A4.42,4.42,0,0,0,11.33,50H33.7a4.44,4.44,0,0,0,4.43-4.43V11.4A4.52,4.52,0,0,0,34.15,6.9ZM28.4,9.1a.86.86,0,0,0-.87-.86H23V3.49a.86.86,0,1,0-1.72,0V9.1a.87.87,0,0,0,.86.86h5.37A.87.87,0,0,0,28.4,9.1Zm2.83,29.51V9.19A3.09,3.09,0,0,0,30.33,7L24.26.91A3.13,3.13,0,0,0,22.06,0H4.43A4.44,4.44,0,0,0,0,4.43V38.61A4.44,4.44,0,0,0,4.43,43H26.8A4.44,4.44,0,0,0,31.23,38.61Z"/></g></g></g></svg>