<svg xmlns="http://www.w3.org/2000/svg" viewBox="0 0 51 60"><defs><style>.cls-1{fill:#666;}</style></defs><g id="Camada_2" data-name="Camada 2"><g id="Camada_1-2" data-name="Camada 1"><path class="cls-1" d="M43.69,51.17a18.49,18.49,0,0,0-6-9C40.37,40.59,42,38.42,42,36V35a5.4,5.4,0,0,0-.17-1.27l-1-13.49c.21,0,.43,0,.64,0a11.87,11.87,0,0,0,2.8-.31c4.4-1.1,6.57-5.34,6.65-5.52A1,1,0,0,0,50.08,13L42,12.33A13,13,0,0,0,36.8,1.42L35.17.2a1,1,0,0,0-1.53,1.17,10.92,10.92,0,0,1,.56,6.26C29.08,5.76,22.84,5.7,18.35,7.49a10.88,10.88,0,0,1,.58-6.12A1,1,0,0,0,17.4.2L15.77,1.42A13,13,0,0,0,10.58,12.2L.92,13a1,1,0,0,0-.81,1.45c.09.18,2.25,4.42,6.65,5.52a11.4,11.4,0,0,0,2.81.31c.53,0,1.1,0,1.69-.09l-1.08,13.5A5.24,5.24,0,0,0,10,35v1c0,2.42,1.63,4.59,4.31,6.19a18.51,18.51,0,0,0-6,9L6,58.71a1,1,0,0,0,.16.89A1,1,0,0,0,7,60H45a1,1,0,0,0,.8-.4,1,1,0,0,0,.16-.89Zm4.56-36.31A8.57,8.57,0,0,1,43.76,18a11.08,11.08,0,0,1-3.12.22L40.47,16l.3-.06a1,1,0,0,0,.77-.74l.07-.27c0-.22.1-.44.14-.65Zm-8.5-.71a4.88,4.88,0,0,1-5-2.18l.36-.7a13,13,0,0,0,1.23-7.68A10.94,10.94,0,0,1,39.75,14.15Zm-6.12-4.6c-.12.28-.23.55-.36.82l-.59,1.18a1,1,0,0,0,0,.9,6.86,6.86,0,0,0,5.8,3.76l1.07,14C36.74,27.65,31.78,26,26,26s-10.72,1.64-13.53,4.15l1.12-13.92h.17a6.87,6.87,0,0,0,6.13-3.79,1,1,0,0,0,0-.9l-.59-1.18c-.15-.31-.29-.63-.41-.95C23,7.7,28.84,7.76,33.63,9.55Zm-17.35-6a13,13,0,0,0,1.23,7.67l.36.71a4.89,4.89,0,0,1-5.05,2.18A10.94,10.94,0,0,1,16.28,3.59ZM7.24,18a8.57,8.57,0,0,1-4.49-3.17l8.05-.67c0,.26.1.52.16.78l.07.27a1,1,0,0,0,.57.67l-.18,2.25A12.19,12.19,0,0,1,7.24,18ZM12,36l.16-2c1-3.35,6.92-6,13.84-6s12.88,2.69,13.85,6L40,36c0,3.78-6.42,7-14,7S12,39.81,12,36ZM8.34,58l1.88-6.26a16.54,16.54,0,0,1,6.08-8.55A25,25,0,0,0,26,45a25,25,0,0,0,9.7-1.81,16.54,16.54,0,0,1,6.08,8.55L43.66,58Z"/><rect class="cls-1" x="19" y="18.67" width="4" height="4"/><rect class="cls-1" x="29.67" y="18.67" width="4" height="4"/><path class="cls-1" d="M18.5,33A2.76,2.76,0,0,0,16,36a2.76,2.76,0,0,0,2.5,3A2.76,2.76,0,0,0,21,36,2.76,2.76,0,0,0,18.5,33Zm0,4c-.18,0-.5-.38-.5-1s.32-1,.5-1,.5.38.5,1S18.68,37,18.5,37Z"/><path class="cls-1" d="M33.5,39A2.76,2.76,0,0,0,36,36a2.76,2.76,0,0,0-2.5-3A2.76,2.76,0,0,0,31,36,2.76,2.76,0,0,0,33.5,39Zm0-4c.18,0,.5.38.5,1s-.32,1-.5,1-.5-.38-.5-1S33.32,35,33.5,35Z"/></g></g></svg>