<svg xmlns="http://www.w3.org/2000/svg" viewBox="0 0 50 39.01"><defs><style>.cls-1{fill:#666;}</style></defs><g id="Camada_2" data-name="Camada 2"><g id="Camada_1-2" data-name="Camada 1"><path class="cls-1" d="M35,6.55l2.65-.46.1,0L48.16,4.22a1.65,1.65,0,0,0,1.33-.53A2,2,0,0,0,50,2a2.56,2.56,0,0,0-2.31-2H47.5L35.76,2.08h0l-17.06,3a1.69,1.69,0,0,0-1.37,2,.52.52,0,0,1,0,.11H16.09a4.2,4.2,0,0,0-3.72,6.13H10.88A1.69,1.69,0,0,0,9.19,15v.21a1.69,1.69,0,0,0,1.69,1.68h.94l2.6,9.77L9.88,26c0-.08,0-.16,0-.24a2.84,2.84,0,0,0-5.62-.55l-3.6-.5a.55.55,0,0,0-.47.14.57.57,0,0,0-.2.44V38.42A.58.58,0,0,0,.59,39h22.1a.59.59,0,0,0,.6-.59v-4H41.18a.59.59,0,0,0,.57-.44l.61-2.29h0l3.43-12.91h0l.5-1.88h1a1.68,1.68,0,0,0,1.68-1.68V15a1.68,1.68,0,0,0-1.68-1.68H45.31a4.16,4.16,0,0,0-3.84-2.52H23.3l.28-.3,9.9-1.75A1.54,1.54,0,0,0,34.72,7,.34.34,0,0,1,35,6.55Zm6.34,24.36h-18V28.38a.59.59,0,0,0-.51-.59l-7.09-1-2-7.62H44.45ZM13.35,18l-.3-1.14h32L44.76,18ZM7.05,24.1A1.65,1.65,0,1,1,5.4,25.75,1.65,1.65,0,0,1,7.05,24.1ZM1.18,26l3.11.44a2.84,2.84,0,0,0,5.24.73L22.1,28.89v6.55H1.18ZM22.1,37.83H1.18V36.62H22.1Zm1.19-4.63V32.09H41l-.29,1.11Zm24.32-32a1.37,1.37,0,0,1,1.19,1,.81.81,0,0,1-.18.7A.5.5,0,0,1,48.2,3,.49.49,0,0,0,48,3L38,4.81l-.33-1.87ZM47.74,15v.21a.51.51,0,0,1-.5.5H10.88a.5.5,0,0,1-.5-.5V15a.5.5,0,0,1,.5-.5H47.24A.51.51,0,0,1,47.74,15Zm-6.27-3A3,3,0,0,1,44,13.28H13.74l0,0a3,3,0,0,1,2.33-4.92h7.24a3,3,0,0,1-2.95,2.42.59.59,0,0,0,0,1.18ZM33.55,7.15a.28.28,0,0,1-.06.25.3.3,0,0,1-.21.14L24.34,9.12a4.15,4.15,0,0,0,.24-1.37.6.6,0,0,0-.6-.6H18.57c0-.1-.05-.21-.07-.31a.5.5,0,0,1,.41-.59l17.61-3.1L36.85,5l-.55.1h0l-1.51.27A1.51,1.51,0,0,0,33.55,7.15Z"/><path class="cls-1" d="M29.06,30c3.72,0,6.75-2.22,6.75-4.94s-3-4.93-6.75-4.93S22.3,22.3,22.3,25,25.33,30,29.06,30Zm0-8.69c3.07,0,5.57,1.69,5.57,3.75s-2.5,3.76-5.57,3.76S23.48,27.09,23.48,25,26,21.27,29.06,21.27Z"/></g></g></svg>