<svg xmlns="http://www.w3.org/2000/svg" viewBox="0 0 49.54 50"><defs><style>.cls-1{fill:#666;}</style></defs><g id="Camada_2" data-name="Camada 2"><g id="Camada_1-2" data-name="Camada 1"><g id="share"><g id="responsive_design" data-name="responsive design"><g id="responsive_design-2" data-name="responsive design"><path class="cls-1" d="M12.84,17.89H7.34a.46.46,0,0,1,0-.92h5.5a.46.46,0,0,1,0,.92Z"/><path class="cls-1" d="M10.09,44.5a1.84,1.84,0,1,0,1.84,1.83A1.83,1.83,0,0,0,10.09,44.5ZM10.74,47a.92.92,0,1,1,.27-.65A.91.91,0,0,1,10.74,47Z"/><path class="cls-1" d="M19.27,29.58V48.17a.92.92,0,0,1-.92.91H1.83a.91.91,0,0,1-.91-.91V17a.91.91,0,0,1,.91-.91H18.35a.92.92,0,0,1,.92.91v9.65l.91-.35V17a1.83,1.83,0,0,0-1.83-1.83H1.83A1.84,1.84,0,0,0,0,17v31.2A1.84,1.84,0,0,0,1.83,50H18.35a1.84,1.84,0,0,0,1.83-1.83v-19Z"/><polygon class="cls-1" points="17.43 30.29 17.43 41.74 2.75 41.74 2.75 20.64 17.43 20.64 17.43 27.34 18.35 26.98 18.35 19.73 1.83 19.73 1.83 42.66 18.35 42.66 18.35 29.93 17.43 30.29"/><path class="cls-1" d="M5.27,5.05H1.83A1.84,1.84,0,0,0,0,6.88v8.06a2.78,2.78,0,0,1,.92-.55V6.88A.92.92,0,0,1,1.83,6H5.1A9.12,9.12,0,0,1,5.27,5.05Z"/><path class="cls-1" d="M47.71,5.05H20.42a6.93,6.93,0,0,1,.16.91H47.71a.92.92,0,0,1,.91.92V36.24H21.1v.92H48.62V39a.92.92,0,0,1-.91.92H21.1v.92h8.48l1.31,4.58H21.1v.92H34.86a.92.92,0,0,1,.92.92H21.1v.92H36.7v-.92a1.84,1.84,0,0,0-1.84-1.84h-3l-1.31-4.58H47.71A1.84,1.84,0,0,0,49.54,39V6.88A1.83,1.83,0,0,0,47.71,5.05Z"/><path class="cls-1" d="M5.05,6.88H1.83v7.34h.92V7.8H5.1C5.07,7.5,5.05,7.19,5.05,6.88Z"/><path class="cls-1" d="M20.64,6.88a7,7,0,0,1-.06.92H46.79V33.49H21.1v.91H47.71V6.88Z"/></g></g><g id="share-2" data-name="share"><path class="cls-1" d="M12.84,13.76a6.88,6.88,0,1,1,6.88-6.88A6.89,6.89,0,0,1,12.84,13.76Zm0-12.84a6,6,0,1,0,6,6A6,6,0,0,0,12.84.92Z"/><path class="cls-1" d="M10.09,36.7a5,5,0,1,1,5.05-5.05A5.05,5.05,0,0,1,10.09,36.7Zm0-9.18a4.13,4.13,0,1,0,4.13,4.13A4.14,4.14,0,0,0,10.09,27.52Z"/><path class="cls-1" d="M33.25,22.19,14.16,29.58a5,5,0,0,1,.34.86l19.09-7.39A5.3,5.3,0,0,1,33.25,22.19Z"/><path class="cls-1" d="M38.53,26.61a6,6,0,1,1,6-6A6,6,0,0,1,38.53,26.61Zm0-11a5,5,0,1,0,5,5A5,5,0,0,0,38.53,15.6Z"/><path class="cls-1" d="M18.7,9.5a6.28,6.28,0,0,1-.43.81l15.21,8.15a4.51,4.51,0,0,1,.44-.81Z"/></g></g></g></g></svg>