<svg xmlns="http://www.w3.org/2000/svg" viewBox="0 0 50 49.69"><defs><style>.cls-1{fill:#666;fill-rule:evenodd;}</style></defs><g id="Camada_2" data-name="Camada 2"><g id="Camada_1-2" data-name="Camada 1"><g id="Page-1"><g id="icon-136-document-edit"><path id="document-edit" class="cls-1" d="M43.14,16.84,22.37,37.63h0l-4.79-4.79L38.36,12.05l4.78,4.79Zm1.3-1.3,3.18-3.19a1.83,1.83,0,0,0,0-2.6L45.44,7.58a1.83,1.83,0,0,0-2.6,0l-3.18,3.18,4.78,4.79Zm-28,18.71L15.21,40,21,38.84l-4.59-4.59ZM35,12.88h0L23.92,0H3.69A3.69,3.69,0,0,0,0,3.69V46a3.69,3.69,0,0,0,3.68,3.7H31.29A3.68,3.68,0,0,0,35,46V27.6L48.91,13.65a3.67,3.67,0,0,0,0-5.2L46.76,6.28a3.66,3.66,0,0,0-5.21,0L35,12.88ZM33.12,29.44V46a1.83,1.83,0,0,1-1.84,1.83H3.68A1.85,1.85,0,0,1,1.84,46V3.67A1.84,1.84,0,0,1,3.67,1.84H22.08V11a3.67,3.67,0,0,0,3.68,3.69h7.36l-18.4,18.4-1.84,9.21,9.2-1.84,11-11ZM23.92,2.76V11a1.85,1.85,0,0,0,1.84,1.85h6.81L23.92,2.76Z"/></g></g></g></g></svg>