<svg xmlns="http://www.w3.org/2000/svg" viewBox="0 0 51.69 50"><defs><style>.cls-1{fill:#666;}</style></defs><g id="Camada_2" data-name="Camada 2"><g id="Camada_1-2" data-name="Camada 1"><g id="Layer_2" data-name="Layer 2"><path class="cls-1" d="M16.31,42.08H2.74a.77.77,0,0,1-.57-.25A.76.76,0,0,1,2,41.24L2.59,32a.77.77,0,0,1,.5-.68.79.79,0,0,1,.83.17,7.94,7.94,0,0,0,11.2,0,.79.79,0,0,1,1.11,1.12,9.53,9.53,0,0,1-12.18,1l-.47,6.84H15.46l-.34-4.72a.78.78,0,1,1,1.56-.12l.41,5.57a.76.76,0,0,1-.21.59A.77.77,0,0,1,16.31,42.08Z"/><path class="cls-1" d="M9.52,30.77a4.91,4.91,0,0,1-4.89-4.9,4.9,4.9,0,0,1,9.79,0,4.82,4.82,0,0,1-.51,2.18A4.88,4.88,0,0,1,9.52,30.77Zm0-8.22a3.24,3.24,0,0,0-1.47.34,3.33,3.33,0,1,0,1.47-.34Z"/><path class="cls-1" d="M9.52,35.4a9.53,9.53,0,0,1,0-19,9.29,9.29,0,0,1,3.14.53,9.58,9.58,0,0,1,5.86,5.85h0a9.59,9.59,0,0,1,.53,3.14A9.53,9.53,0,0,1,9.52,35.4Zm0-17.49a8,8,0,0,0-7.95,8,8,8,0,0,0,8,8,8,8,0,0,0,8-8,7.94,7.94,0,0,0-5.33-7.51A7.82,7.82,0,0,0,9.52,17.91Z"/><path class="cls-1" d="M9.52,30.77a4.91,4.91,0,0,1-4.89-4.9,4.9,4.9,0,0,1,9.79,0,4.82,4.82,0,0,1-.51,2.18A4.88,4.88,0,0,1,9.52,30.77Zm0-8.22a3.24,3.24,0,0,0-1.47.34,3.33,3.33,0,1,0,1.47-.34Z"/><path class="cls-1" d="M17.78,23.77h-.16a.79.79,0,0,1-.58-.51,8,8,0,0,0-4.89-4.89.78.78,0,0,1-.51-.59.77.77,0,0,1,.24-.73l8.4-7.64a.78.78,0,1,1,1,1.16l-7.49,6.82A9.65,9.65,0,0,1,18,21.56l8.56-9.4a6.29,6.29,0,0,1-3.76-4.55.78.78,0,1,1,1.53-.32A4.78,4.78,0,0,0,28.14,11a.78.78,0,0,1,.6.52.79.79,0,0,1-.16.78L18.36,23.52A.79.79,0,0,1,17.78,23.77Z"/><path class="cls-1" d="M27.29,9a.76.76,0,0,1-.51-.2l-.11-.09a.79.79,0,0,1-.27-.56.78.78,0,0,1,.23-.58.76.76,0,0,1,.55-.23h0a.8.8,0,0,1,.55.22l.06,0,0,0a.77.77,0,0,1,0,1.09A.8.8,0,0,1,27.29,9Z"/><path class="cls-1" d="M29,12.64a6.34,6.34,0,0,1-6.18-5,6.21,6.21,0,0,1-.13-1.29A6.32,6.32,0,0,1,29,0a.79.79,0,1,1,0,1.57,4.75,4.75,0,0,0-4.75,4.75,5.23,5.23,0,0,0,.1,1A4.79,4.79,0,0,0,28.14,11a4.91,4.91,0,0,0,.86.08,4.72,4.72,0,0,0,1.74-.33,4.82,4.82,0,0,0,2.61-2.49,4.81,4.81,0,0,0-.66-4.93.78.78,0,1,1,1.21-1,6.35,6.35,0,0,1,1.42,4,6.26,6.26,0,0,1-.54,2.56,6.37,6.37,0,0,1-3.47,3.32A6.28,6.28,0,0,1,29,12.64Z"/><path class="cls-1" d="M31.46,2.14a.79.79,0,0,1,0-1.57h0a.79.79,0,1,1,0,1.57Z"/><path class="cls-1" d="M29,9.65a3.34,3.34,0,0,1-2.23-.86l-.1-.09a.49.49,0,0,1-.12-.13A3.32,3.32,0,0,1,26.65,4l0,0a3.33,3.33,0,0,1,5.51,1.41,3.16,3.16,0,0,1,.14,1A3.33,3.33,0,0,1,29,9.65ZM27.78,7.59l0,0h0a1.75,1.75,0,0,0,2.43-.06,1.75,1.75,0,0,0,.52-1.24,1.82,1.82,0,0,0-.08-.52A1.77,1.77,0,0,0,29,4.55a1.75,1.75,0,0,0-1.24.52l0,0a1.78,1.78,0,0,0,0,2.47Z"/><path class="cls-1" d="M29,9.65a3.33,3.33,0,0,1-2.24-.87h0l0,0-.08-.08a3.28,3.28,0,0,1-1-2.34,3.32,3.32,0,0,1,1-2.36l0,0a3.34,3.34,0,0,1,5.51,1.41,3.37,3.37,0,0,1-.83,3.33A3.32,3.32,0,0,1,29,9.65Zm-1.18-2A1.79,1.79,0,0,0,29,8.08a1.73,1.73,0,0,0,1.25-.52,1.75,1.75,0,0,0,.52-1.24,1.82,1.82,0,0,0-.08-.52A1.77,1.77,0,0,0,29,4.55a1.75,1.75,0,0,0-1.24.52l0,0a1.78,1.78,0,0,0,0,2.47l.05,0Z"/><path class="cls-1" d="M39.17,19.4a.8.8,0,0,1-.51-.19L30.5,12.06a.78.78,0,0,1-.25-.72.79.79,0,0,1,.49-.6,4.82,4.82,0,0,0,2.61-2.49.78.78,0,0,1,.59-.46.79.79,0,0,1,.71.26l7.06,8.05a.78.78,0,0,1-.32,1.25,2.55,2.55,0,0,0-1.48,1.52.77.77,0,0,1-.54.51ZM32.4,11.64l6.54,5.73a4.13,4.13,0,0,1,.94-1L34.2,9.91A6.31,6.31,0,0,1,32.4,11.64Z"/><path class="cls-1" d="M36.88,30.05H33.64a.78.78,0,0,1-.78-.79V22.58a.76.76,0,0,1,.41-.69L38.62,19a.79.79,0,0,1,1.16.69A2.49,2.49,0,0,0,41,21.83a.78.78,0,0,1,0,1.36L37.66,25v4.29A.79.79,0,0,1,36.88,30.05Zm-2.46-1.57h1.67v-4a.78.78,0,0,1,.41-.69l2.71-1.47a4,4,0,0,1-.81-1.46l-4,2.15v5.44Z"/><path class="cls-1" d="M50.91,30.05H47.67a.78.78,0,0,1-.78-.79V25l-3.3-1.78a.76.76,0,0,1-.41-.67.79.79,0,0,1,.38-.69,2.48,2.48,0,0,0,1.21-2.14.79.79,0,0,1,1.16-.7l5.35,2.9a.78.78,0,0,1,.41.69v6.68A.79.79,0,0,1,50.91,30.05Zm-2.45-1.57h1.67V23l-4-2.14a4.2,4.2,0,0,1-.81,1.46l2.71,1.46a.78.78,0,0,1,.41.69v4Z"/><path class="cls-1" d="M42.27,23.75a4.06,4.06,0,0,1-4.06-4.06,4.26,4.26,0,0,1,.22-1.33,4,4,0,0,1,2.41-2.47,3.9,3.9,0,0,1,1.43-.27,4.08,4.08,0,0,1,4.07,4.06h0a4.06,4.06,0,0,1-4.07,4.06Zm0-6.56a2.32,2.32,0,0,0-.87.16,2.52,2.52,0,0,0-1.49,1.52,2.8,2.8,0,0,0-.13.81A2.49,2.49,0,0,0,41,21.83a2.53,2.53,0,0,0,2.57,0,2.48,2.48,0,0,0,1.21-2.14h0A2.5,2.5,0,0,0,42.27,17.19Z"/><path class="cls-1" d="M18.27,50H.78A.78.78,0,0,1,0,49.22V41.3a.78.78,0,0,1,.78-.79H18.27a.78.78,0,0,1,.78.79v7.92A.78.78,0,0,1,18.27,50ZM1.57,48.43H17.48V42.08H1.57Z"/></g></g></g></svg>