<svg xmlns="http://www.w3.org/2000/svg" viewBox="0 0 41.5 50"><defs><style>.cls-1{fill:#666;}</style></defs><g id="Camada_2" data-name="Camada 2"><g id="Camada_1-2" data-name="Camada 1"><path class="cls-1" d="M40.9,22.3a1.1,1.1,0,0,0-1.1.1l-7.7,6.1V22.7a1.05,1.05,0,0,0-.5-.9.92.92,0,0,0-1,.1l-9.4,6.8-.5-6.3a.89.89,0,0,0-.5-.8,1.17,1.17,0,0,0-1,0L7.9,28.4V19.2a4.36,4.36,0,0,0,1.7-1.6,4.68,4.68,0,0,0,1.7.2,5.81,5.81,0,0,0,5.1-3c.3,0,.6.1,1,.1a7.38,7.38,0,0,0,7.4-7.4A7.47,7.47,0,0,0,17.4,0a7.33,7.33,0,0,0-7.3,6.2,5.86,5.86,0,0,0-4.7,5.4,4.08,4.08,0,0,0-3.4,4v.2H1a.94.94,0,0,0-1,1V49a.94.94,0,0,0,1,1H40.5a.94.94,0,0,0,1-1V23.2A1.46,1.46,0,0,0,40.9,22.3ZM4,15.6a2.05,2.05,0,0,1,2.1-2.1h.3a1.14,1.14,0,0,0,.8-.3,1.14,1.14,0,0,0,.3-.8v-.5A3.92,3.92,0,0,1,11.1,8a.9.9,0,0,0,.9-.9A5.32,5.32,0,0,1,17.4,2a5.4,5.4,0,0,1,5.4,5.5,5.38,5.38,0,0,1-5.4,5.4,5.85,5.85,0,0,1-1.3-.2,1,1,0,0,0-1.2.6,3.94,3.94,0,0,1-5.4,2.1,1.39,1.39,0,0,0-.9,0,1.06,1.06,0,0,0-.6.7,1.42,1.42,0,0,1-.2.6,1,1,0,0,0-1-.8H3.9A.37.37,0,0,0,4,15.6Zm-.8,2.2H5.9v1.6H2V17.8ZM39.4,48H2V21.5H5.9v8.7a1.05,1.05,0,0,0,.5.9.91.91,0,0,0,1,0l11.4-6.8.5,6.4a.76.76,0,0,0,.6.8.92.92,0,0,0,1-.1l9.3-6.7v5.9a1,1,0,0,0,.6.9,1.1,1.1,0,0,0,1.1-.1l7.7-6.1V48Z"/><path class="cls-1" d="M33,45h4.3a.94.94,0,0,0,1-1V39.7a.94.94,0,0,0-1-1H33a.94.94,0,0,0-1,1V44A.94.94,0,0,0,33,45Zm1-4.3h2.3V43H34Z"/><path class="cls-1" d="M20.4,38.7H16.1a.94.94,0,0,0-1,1V44a.94.94,0,0,0,1,1h4.3a.94.94,0,0,0,1-1V39.7A1.08,1.08,0,0,0,20.4,38.7Zm-1,4.3H17.1V40.7h2.3Z"/><path class="cls-1" d="M12,33.3H7.7a.94.94,0,0,0-1,1v4.3a.94.94,0,0,0,1,1H12a.94.94,0,0,0,1-1V34.3A1.08,1.08,0,0,0,12,33.3Zm-1,4.4H8.7V35.4H11Z"/><path class="cls-1" d="M28.8,33.3H24.5a.94.94,0,0,0-1,1v4.3a.94.94,0,0,0,1,1h4.3a.94.94,0,0,0,1-1V34.3A1,1,0,0,0,28.8,33.3Zm-1,4.4H25.5V35.4h2.3Z"/></g></g></svg>