<svg xmlns="http://www.w3.org/2000/svg" viewBox="0 0 50 35.05"><defs><style>.cls-1{fill:#666;}</style></defs><g id="Camada_2" data-name="Camada 2"><g id="Camada_1-2" data-name="Camada 1"><path class="cls-1" d="M4.81,4.52H45.23A2.27,2.27,0,0,0,43,2.26H13.29l-.74-1.19A2.21,2.21,0,0,0,10.63,0H2.26A2.27,2.27,0,0,0,0,2.26V28.1L2.6,6.56A2.22,2.22,0,0,1,4.81,4.52Z"/><path class="cls-1" d="M47.78,6.78H7.07a2.31,2.31,0,0,0-2.26,2L2,32.51a2.27,2.27,0,0,0,2.26,2.54H44.89a2.3,2.3,0,0,0,2.26-2L50,9.33A2.24,2.24,0,0,0,47.78,6.78Z"/></g></g></svg>