<svg xmlns="http://www.w3.org/2000/svg" viewBox="0 0 50 50"><defs><style>.cls-1{fill:#666;}</style></defs><g id="Camada_2" data-name="Camada 2"><g id="Camada_1-2" data-name="Camada 1"><g id="Layer_2" data-name="Layer 2"><path class="cls-1" d="M16.24,18.66H2.41A2.41,2.41,0,0,1,0,16.24V2.41A2.41,2.41,0,0,1,2.41,0H16.24a2.41,2.41,0,0,1,2.41,2.41V16.24A2.41,2.41,0,0,1,16.24,18.66Z"/><path class="cls-1" d="M47.59,18.66H33.76a2.41,2.41,0,0,1-2.41-2.42V2.41A2.4,2.4,0,0,1,33.76,0H47.59A2.41,2.41,0,0,1,50,2.41V16.24A2.41,2.41,0,0,1,47.59,18.66Z"/><path class="cls-1" d="M16.24,50H2.41A2.41,2.41,0,0,1,0,47.59V33.76a2.42,2.42,0,0,1,2.41-2.42H16.24a2.41,2.41,0,0,1,2.41,2.42V47.59A2.4,2.4,0,0,1,16.24,50Z"/><path class="cls-1" d="M47.59,50H33.76a2.41,2.41,0,0,1-2.41-2.41V33.76a2.41,2.41,0,0,1,2.41-2.42H47.59A2.41,2.41,0,0,1,50,33.76V47.59A2.41,2.41,0,0,1,47.59,50Z"/></g></g></g></svg>