<svg xmlns="http://www.w3.org/2000/svg" viewBox="0 0 50 46.15"><defs><style>.cls-1{fill:#666;}</style></defs><g id="Camada_2" data-name="Camada 2"><g id="Camada_1-2" data-name="Camada 1"><path class="cls-1" d="M50,23.08a3.84,3.84,0,0,1-3.85,3.84H15.38a3.85,3.85,0,0,1,0-7.69H46.15A3.85,3.85,0,0,1,50,23.08Z"/><path class="cls-1" d="M50,3.85a3.84,3.84,0,0,1-3.85,3.84H15.38a3.85,3.85,0,0,1,0-7.69H46.15A3.85,3.85,0,0,1,50,3.85Z"/><path class="cls-1" d="M50,42.31a3.84,3.84,0,0,1-3.85,3.84H15.38a3.85,3.85,0,0,1,0-7.69H46.15A3.85,3.85,0,0,1,50,42.31Z"/><path class="cls-1" d="M0,3.85A3.85,3.85,0,1,0,3.85,0,3.85,3.85,0,0,0,0,3.85Z"/><path class="cls-1" d="M0,23.08a3.85,3.85,0,1,0,3.85-3.85A3.85,3.85,0,0,0,0,23.08Z"/><path class="cls-1" d="M0,42.31a3.85,3.85,0,1,0,3.85-3.85A3.85,3.85,0,0,0,0,42.31Z"/></g></g></svg>