<svg xmlns="http://www.w3.org/2000/svg" viewBox="0 0 50 50"><defs><style>.cls-1{fill:#666;}</style></defs><g id="Camada_2" data-name="Camada 2"><g id="Camada_1-2" data-name="Camada 1"><path class="cls-1" d="M35.44,31.09A2.61,2.61,0,0,0,33,32.83H17.17a3.48,3.48,0,0,1,0-7H32.83a5.22,5.22,0,0,0,0-10.44H17a2.61,2.61,0,1,0,0,1.74H32.83a3.48,3.48,0,1,1,0,7H17.17a5.22,5.22,0,0,0,0,10.44H33a2.61,2.61,0,1,0,2.45-3.48ZM14.56,17.17a.87.87,0,1,1,.87-.87A.87.87,0,0,1,14.56,17.17Zm20.88,17.4a.87.87,0,1,1,.87-.87A.87.87,0,0,1,35.44,34.57Z"/><path class="cls-1" d="M25,0A25,25,0,1,0,50,25,25,25,0,0,0,25,0Zm0,47.73A22.73,22.73,0,1,1,47.73,25,22.73,22.73,0,0,1,25,47.73Z"/></g></g></svg>