<svg xmlns="http://www.w3.org/2000/svg" viewBox="0 0 50 50"><defs><style>.cls-1{fill:#666;}</style></defs><g id="Camada_2" data-name="Camada 2"><g id="Camada_1-2" data-name="Camada 1"><path class="cls-1" d="M25,0A25,25,0,1,0,50,25,25,25,0,0,0,25,0Zm0,47.73A22.73,22.73,0,1,1,47.73,25,22.73,22.73,0,0,1,25,47.73Z"/><path class="cls-1" d="M35.73,23.65,19.44,14a1.23,1.23,0,0,0-.64-.19,1.17,1.17,0,0,0-1.16,1.17h0V35.07h0a1.17,1.17,0,0,0,1.16,1.17,1.34,1.34,0,0,0,.66-.2l16.27-9.69a1.74,1.74,0,0,0,0-2.7Z"/></g></g></svg>