<svg xmlns="http://www.w3.org/2000/svg" viewBox="0 0 50 50"><defs><style>.cls-1{fill:#666;}</style></defs><g id="Camada_2" data-name="Camada 2"><g id="Camada_1-2" data-name="Camada 1"><path class="cls-1" d="M25,0A25,25,0,1,0,50,25,25,25,0,0,0,25,0Zm0,47.73A22.73,22.73,0,1,1,47.73,25,22.73,22.73,0,0,1,25,47.73Z"/><path class="cls-1" d="M19.57,22.76h-3a.45.45,0,0,0-.45.45v3a.45.45,0,0,0,.45.45h3a.45.45,0,0,0,.45-.45v-3A.45.45,0,0,0,19.57,22.76Zm-.46,3H17.05V23.67h2.06Z"/><path class="cls-1" d="M26.5,22.76h-3a.46.46,0,0,0-.46.45v3a.46.46,0,0,0,.46.45h3a.46.46,0,0,0,.46-.45v-3A.46.46,0,0,0,26.5,22.76Zm-.46,3H24V23.67H26Z"/><path class="cls-1" d="M33.22,22.76h-3a.46.46,0,0,0-.46.45v3a.46.46,0,0,0,.46.45h3a.46.46,0,0,0,.46-.45v-3A.46.46,0,0,0,33.22,22.76Zm-.46,3H30.7V23.67h2.06Z"/><path class="cls-1" d="M19.57,29.53h-3a.45.45,0,0,0-.45.45v3a.45.45,0,0,0,.45.45h3A.45.45,0,0,0,20,33V30A.45.45,0,0,0,19.57,29.53Zm-.46,3H17.05V30.44h2.06Z"/><path class="cls-1" d="M26.5,29.53h-3a.46.46,0,0,0-.46.45v3a.46.46,0,0,0,.46.45h3A.46.46,0,0,0,27,33V30A.46.46,0,0,0,26.5,29.53Zm-.46,3H24V30.44H26Z"/><path class="cls-1" d="M33.22,29.53h-3a.46.46,0,0,0-.46.45v3a.46.46,0,0,0,.46.45h3a.46.46,0,0,0,.46-.45V30A.46.46,0,0,0,33.22,29.53Zm-.46,3H30.7V30.44h2.06Z"/><path class="cls-1" d="M36.84,13.91h-3V13.3a1.81,1.81,0,0,0-3.61,0v.61H26.8V13.3a1.81,1.81,0,0,0-3.61,0v.61h-3.4V13.3a1.81,1.81,0,0,0-3.61,0v.61h-3a.46.46,0,0,0-.45.46V38a.45.45,0,0,0,.45.46H36.84a.45.45,0,0,0,.45-.46V14.37A.46.46,0,0,0,36.84,13.91Zm-5.73-.61a.9.9,0,0,1,1.79,0v2.53a.9.9,0,0,1-1.79,0ZM25,12.41a.89.89,0,0,1,.89.89v2.53a.89.89,0,1,1-1.78,0V13.3A.89.89,0,0,1,25,12.41Zm-7.9.89a.89.89,0,1,1,1.78,0v2.53a.89.89,0,0,1-1.78,0ZM36.38,37.59H13.62V14.83h2.56v1a1.81,1.81,0,0,0,3.61,0v-1h3.4v1a1.81,1.81,0,0,0,3.61,0v-1h3.4v1a1.81,1.81,0,0,0,3.61,0v-1h2.57Z"/></g></g></svg>