<svg xmlns="http://www.w3.org/2000/svg" viewBox="0 0 50 50"><defs><style>.cls-1{fill:#666;}</style></defs><g id="Camada_2" data-name="Camada 2"><g id="Camada_1-2" data-name="Camada 1"><path class="cls-1" d="M25,25.85a1.3,1.3,0,1,0,0,2.59,1.3,1.3,0,0,0,0-2.59Z"/><path class="cls-1" d="M33.27,18.93l.38.38,2.91-2.91-.81-.81L32.84,18.5l.38.38A11.6,11.6,0,0,0,25,15.49h.58V12.34H28.5V11.19h-7v1.15h2.92v3.15H25a11.66,11.66,0,1,0,8.27,3.44ZM25,29.6a2.45,2.45,0,0,1-2.45-2.45,2.39,2.39,0,0,1,.37-1.27l-4.24-4.23.82-.82,4.23,4.24A2.39,2.39,0,0,1,25,24.7a2.45,2.45,0,0,1,0,4.9Z"/><path class="cls-1" d="M25,0A25,25,0,1,0,50,25,25,25,0,0,0,25,0Zm0,47.73A22.73,22.73,0,1,1,47.73,25,22.73,22.73,0,0,1,25,47.73Z"/></g></g></svg>