<svg xmlns="http://www.w3.org/2000/svg" viewBox="0 0 50 50"><defs><style>.cls-1{fill:#666;}</style></defs><g id="Camada_2" data-name="Camada 2"><g id="Camada_1-2" data-name="Camada 1"><path class="cls-1" d="M14.16,15V33c0,3.1,4.76,5.53,10.84,5.53S35.84,36.07,35.84,33V15c0-3.1-4.76-5.53-10.84-5.53S14.16,11.93,14.16,15Zm1.41,8.74c1.85,1.67,5.33,2.77,9.43,2.77s7.58-1.1,9.42-2.77V27c0,2-3.87,4.12-9.42,4.12S15.57,28.94,15.57,27ZM25,25.14c-5.56,0-9.43-2.18-9.43-4.13V17.79c1.85,1.67,5.33,2.78,9.43,2.78s7.58-1.11,9.42-2.78V21c0,1.95-3.86,4.12-9.42,4.12Zm0,12c-5.56,0-9.43-2.17-9.43-4.12V29.75c1.85,1.67,5.33,2.77,9.43,2.77s7.58-1.1,9.42-2.77V33c0,2-3.86,4.12-9.42,4.12Zm0-26.18c5.55,0,9.42,2.18,9.42,4.12S30.55,19.16,25,19.16,15.57,17,15.57,15s3.87-4.12,9.43-4.12Z"/><path class="cls-1" d="M25,39c-6.47,0-11.34-2.59-11.34-6V15c0-3.44,4.87-6,11.34-6s11.34,2.59,11.34,6V33C36.34,36.41,31.47,39,25,39Zm0-29c-5.7,0-10.34,2.26-10.34,5V33c0,2.77,4.64,5,10.34,5s10.34-2.26,10.34-5V15C35.34,12.26,30.7,10,25,10Zm0,27.59c-5.94,0-9.93-2.39-9.93-4.62V28.63l.84.75C17.71,31,21.19,32,25,32s7.29-1,9.09-2.64l.83-.75V33a2.7,2.7,0,0,1-.91,1.9c-1.64,1.64-5.14,2.71-8.94,2.72Zm-8.93-6.82V33c0,1.47,3.45,3.6,8.86,3.62H25c4.34,0,7.18-1.3,8.3-2.42a1.8,1.8,0,0,0,.62-1.2v-2.2A16.43,16.43,0,0,1,25,33,16.44,16.44,0,0,1,16.07,30.77Zm8.93.84c-5.94,0-9.93-2.39-9.93-4.62V22.65l.84.75C17.71,25,21.19,26,25,26s7.29-1,9.09-2.64l.83-.75V27C34.92,29.22,30.93,31.61,25,31.61Zm-8.93-6.82V27c0,1.48,3.48,3.62,8.93,3.62s8.92-2.14,8.92-3.62v-2.2A16.43,16.43,0,0,1,25,27,16.44,16.44,0,0,1,16.07,24.79Zm8.93.85c-5.94,0-9.93-2.39-9.93-4.63V16.67l.84.75c1.8,1.63,5.29,2.65,9.09,2.65s7.28-1,9.09-2.65l.83-.75V21A2.74,2.74,0,0,1,34,22.92c-1.64,1.64-5.14,2.7-8.94,2.71Zm-8.93-6.82V21c0,1.47,3.45,3.61,8.86,3.63H25c4.34,0,7.18-1.3,8.3-2.42a1.8,1.8,0,0,0,.62-1.2V18.82A16.43,16.43,0,0,1,25,21.07,16.44,16.44,0,0,1,16.07,18.82Zm8.93.84c-5.94,0-9.93-2.39-9.93-4.62s4-4.63,9.93-4.63h3.57l-.7.2c4.32.62,7.05,2.58,7.05,4.43C34.92,17.27,30.93,19.66,25,19.66Zm-.2-8.25c-5.34.05-8.73,2.17-8.73,3.63s3.48,3.62,8.93,3.62,8.92-2.15,8.92-3.62S30.45,11.41,25,11.41Z"/><path class="cls-1" d="M25,0A25,25,0,1,0,50,25,25,25,0,0,0,25,0Zm0,47.73A22.73,22.73,0,1,1,47.73,25,22.73,22.73,0,0,1,25,47.73Z"/></g></g></svg>