<svg xmlns="http://www.w3.org/2000/svg" viewBox="0 0 50 50"><defs><style>.cls-1{fill:#666;}</style></defs><g id="Camada_2" data-name="Camada 2"><g id="Camada_1-2" data-name="Camada 1"><path class="cls-1" d="M27.26,31.8h0a3.66,3.66,0,0,1-1.33-2.55V16.8a.72.72,0,0,0-.72-.8h-.42c-.18,0-.71.09-.71.92v9.25h0v2.94a3.69,3.69,0,0,1-1.37,2.71h0a3.77,3.77,0,1,0,4.55,0Z"/><path class="cls-1" d="M25.11,41A5.86,5.86,0,0,1,21.65,30.4l0,0a3,3,0,0,0,.81-1.92V11a1.73,1.73,0,0,1,1.73-1.72h1.58A1.73,1.73,0,0,1,27.52,11V28.5a2.69,2.69,0,0,0,1,1.83l.06.05A5.86,5.86,0,0,1,25.11,41Zm4.77-12.12s0,0,0,0a1.87,1.87,0,0,1-.5-1.19V10.52c0-2.64-1.6-3.13-2.45-3.2h-4c-.44,0-2.29.21-2.29,2.66V27.63a1.72,1.72,0,0,1-.44,1.18l0,0a7.76,7.76,0,1,0,9.69.05Z"/><path class="cls-1" d="M25,0A25,25,0,1,0,50,25,25,25,0,0,0,25,0Zm0,47.73A22.73,22.73,0,1,1,47.73,25,22.73,22.73,0,0,1,25,47.73Z"/></g></g></svg>