<svg xmlns="http://www.w3.org/2000/svg" viewBox="0 0 50 50"><defs><style>.cls-1,.cls-2{fill:#666;}.cls-1{fill-rule:evenodd;}</style></defs><g id="Camada_2" data-name="Camada 2"><g id="Camada_1-2" data-name="Camada 1"><path class="cls-1" d="M10,33.13,8.13,31.65l8.59-11,8,7.56,6.63-2.51,8.54-8.93,1.75,1.66-8.93,9.33L24.13,31,17,24.24Z"/><path class="cls-1" d="M9.26,28.89a3.5,3.5,0,1,1-3.5,3.5A3.5,3.5,0,0,1,9.26,28.89Z"/><path class="cls-1" d="M16.86,19.51a3.5,3.5,0,1,1-3.5,3.5A3.51,3.51,0,0,1,16.86,19.51Z"/><path class="cls-1" d="M24.37,25.78a3.5,3.5,0,1,1-3.5,3.5A3.5,3.5,0,0,1,24.37,25.78Z"/><path class="cls-1" d="M40.74,14.11a3.5,3.5,0,1,1-3.5,3.5A3.51,3.51,0,0,1,40.74,14.11Z"/><path class="cls-1" d="M32,23.14a3.5,3.5,0,1,1-3.5,3.5A3.51,3.51,0,0,1,32,23.14Z"/><path class="cls-2" d="M25,0A25,25,0,1,0,50,25,25,25,0,0,0,25,0Zm0,47.73A22.73,22.73,0,1,1,47.73,25,22.73,22.73,0,0,1,25,47.73Z"/></g></g></svg>