<svg xmlns="http://www.w3.org/2000/svg" viewBox="0 0 50 50"><defs><style>.cls-1{fill:#666;}</style></defs><g id="Camada_2" data-name="Camada 2"><g id="Camada_1-2" data-name="Camada 1"><path class="cls-1" d="M11.81,24.19a3,3,0,0,1,1.77-1.34.67.67,0,0,0,.51-.65c0-.35.1-8.42,6.85-10.93l.85,9.13a.66.66,0,0,0,1.32-.12l-1-10.89a24.87,24.87,0,0,1,5.8,0l-1,10.93a.65.65,0,0,0,.59.72h.07a.68.68,0,0,0,.66-.61l.85-9.13c6.75,2.51,6.85,10.58,6.85,10.93a.67.67,0,0,0,.51.65,3,3,0,0,1,1.77,1.34.27.27,0,0,1-.07.37c-.87.64-3.89,2.13-13.12,2.18s-12.25-1.53-13.12-2.18A.27.27,0,0,1,11.81,24.19Zm3.54,6.86v-3.8a47.92,47.92,0,0,0,9.16.81h1a47.92,47.92,0,0,0,9.16-.81v3.8a9.65,9.65,0,0,1-19.3.22v-.22Z"/><path class="cls-1" d="M25,0A25,25,0,1,0,50,25,25,25,0,0,0,25,0Zm0,47.73A22.73,22.73,0,1,1,47.73,25,22.73,22.73,0,0,1,25,47.73Z"/></g></g></svg>