<svg xmlns="http://www.w3.org/2000/svg" viewBox="0 0 115.53 138.44"><defs><style>.cls-1{fill:#fff;stroke:#666;stroke-miterlimit:10;}</style></defs><g id="Camada_2" data-name="Camada 2"><g id="Camada_1-2" data-name="Camada 1"><g id="Check"><path class="cls-1" d="M113.37,36.52,79,2.16A5.72,5.72,0,0,0,74.94.5H6.23A5.72,5.72,0,0,0,.5,6.23v126a5.73,5.73,0,0,0,5.73,5.73H109.3a5.73,5.73,0,0,0,5.73-5.73V40.59A5.72,5.72,0,0,0,113.37,36.52Z"/><path class="cls-1" d="M115,40.59H80.67a5.74,5.74,0,0,1-5.73-5.73V.5A5.72,5.72,0,0,1,79,2.16l34.36,34.36A5.72,5.72,0,0,1,115,40.59Z"/></g></g></g></svg>