<svg xmlns="http://www.w3.org/2000/svg" viewBox="0 0 37.5 50"><defs><style>.cls-1{fill:#666;}</style></defs><g id="Camada_2" data-name="Camada 2"><g id="Camada_1-2" data-name="Camada 1"><path class="cls-1" d="M6.25,25.1h4.49a3.08,3.08,0,0,1,2.19.7,2.61,2.61,0,0,1,.73,2,2.68,2.68,0,0,1-.79,2.07,3.43,3.43,0,0,1-2.43.75H9v3.24H6.25ZM9,28.83h.66a1.72,1.72,0,0,0,1.1-.27.88.88,0,0,0,.31-.7,1,1,0,0,0-.27-.69,1.38,1.38,0,0,0-1-.29H9Z"/><path class="cls-1" d="M15.11,25.1h4a4.65,4.65,0,0,1,1.91.33,3.08,3.08,0,0,1,1.21.92,3.75,3.75,0,0,1,.69,1.4,6.21,6.21,0,0,1,.22,1.69,5.91,5.91,0,0,1-.32,2.17,3.54,3.54,0,0,1-.89,1.3,3,3,0,0,1-1.21.69,6.22,6.22,0,0,1-1.61.24h-4Zm2.7,2v4.77h.66a2.86,2.86,0,0,0,1.2-.18,1.28,1.28,0,0,0,.56-.66,4,4,0,0,0,.21-1.52,2.91,2.91,0,0,0-.46-1.9,1.91,1.91,0,0,0-1.5-.51Z"/><path class="cls-1" d="M24.58,25.1h6.67V27h-4v1.53h3.38v1.76H27.29v3.57H24.58Z"/><g id="document"><path class="cls-1" d="M26.53,0H3A3,3,0,0,0,0,3V47a3,3,0,0,0,3,3H34.5a3,3,0,0,0,3-3V11a3,3,0,0,0-.88-2.12l-8-8A3,3,0,0,0,26.53,0Zm.59,2.12,8.26,8.26H27.12Zm-25,42.76V5.12a3,3,0,0,1,3-3H25V12.5H35.38V44.88a3,3,0,0,1-3,3H5.12A3,3,0,0,1,2.12,44.88Z"/></g></g></g></svg>