<svg xmlns="http://www.w3.org/2000/svg" viewBox="0 0 50 50"><defs><style>.cls-1{fill:#666;}</style></defs><g id="Camada_2" data-name="Camada 2"><g id="Camada_1-2" data-name="Camada 1"><g id="_6-Photo" data-name=" 6-Photo"><path class="cls-1" d="M44.79,0H5.21A5.21,5.21,0,0,0,0,5.21V44.79A5.21,5.21,0,0,0,5.21,50H44.79A5.21,5.21,0,0,0,50,44.79V5.21A5.21,5.21,0,0,0,44.79,0ZM5.21,47.92a3.13,3.13,0,0,1-3.13-3.13V42.15L18.75,25.48,41.24,47.92Zm42.71-3.13a3.13,3.13,0,0,1-3.13,3.13h-.61L29.74,33.48l7.91-7.91L47.92,35.84Zm0-11.88-9.54-9.55a1.05,1.05,0,0,0-1.47,0L28.27,32l-8.76-8.76a1.05,1.05,0,0,0-1.47,0l-16,16v-34A3.13,3.13,0,0,1,5.21,2.08H44.79a3.13,3.13,0,0,1,3.13,3.13Z"/><path class="cls-1" d="M26,7.29a6.25,6.25,0,1,0,6.25,6.25A6.25,6.25,0,0,0,26,7.29Zm0,10.42a4.17,4.17,0,1,1,4.17-4.17A4.17,4.17,0,0,1,26,17.71Z"/></g></g></g></svg>