<svg xmlns="http://www.w3.org/2000/svg" viewBox="0 0 33.58 50"><defs><style>.cls-1{fill:#666;}</style></defs><g id="Camada_2" data-name="Camada 2"><g id="Camada_1-2" data-name="Camada 1"><path class="cls-1" d="M33.58,20.82h0V14h0a.41.41,0,0,0,0-.11v0l0-.1h0l0-.06L27.82,3.93V2.1A2.1,2.1,0,0,0,25.73,0H7.83a2.1,2.1,0,0,0-2.1,2.1V3.93L.08,13.69a.14.14,0,0,0,0,.06h0a.19.19,0,0,0,0,.1v0A.45.45,0,0,0,0,14H0V49.37A.63.63,0,0,0,.63,50H32.92a.63.63,0,0,0,.63-.63V42.51h0V20.82ZM22.09,22.09h10.2V41.25H22.09V22.09Zm0-1.27V14.64h10.2v6.18Zm5.1-15.46,4.63,8a5.79,5.79,0,0,1-4.77-2.92L25.67,8Zm-2.25,3.9,1,1.8a7.07,7.07,0,0,0,2.1,2.31H22.56ZM7,2.1a.83.83,0,0,1,.83-.83h17.9a.83.83,0,0,1,.83.83V3.47H7ZM6.73,4.73H26.09l-5,8.64H1.73ZM1.27,14.64H20.83v6.18H1.27ZM20.83,41.25H1.27V22.09H20.83ZM1.27,42.51H20.83v6.22H1.27Zm31,6.22H22.09V42.51h10.2Z"/><path class="cls-1" d="M2.41,31.27l.53.37a2.32,2.32,0,0,0,3-.25L6,31.26l1.38,7.5a.7.7,0,0,0,.27.41h0l.09.06h0a.19.19,0,0,0,.1,0h6.31l.07,0,.05,0,.06,0,0,0,.05,0,0,0,.05-.06,0,0a.16.16,0,0,0,0-.07s0,0,0,0a.64.64,0,0,0,0-.07s0,0,0,0h0l1.39-7.5.13.13a2.32,2.32,0,0,0,3,.25l.53-.37a1,1,0,0,0,.41-.75,1,1,0,0,0-.35-.78l-1.45-1.18-.71-.6A11.36,11.36,0,0,1,15.79,26l-.71-1a2.34,2.34,0,0,0-1.91-1H8.91A2.32,2.32,0,0,0,7,25L6.3,26A11,11,0,0,1,4.51,28l-.71.6L2.35,29.74a1,1,0,0,0-.35.78A1,1,0,0,0,2.41,31.27ZM8.67,38V37a.6.6,0,0,1,.6-.6h3.55a.6.6,0,0,1,.6.6v1ZM4.61,29.54h0l.71-.61a12.27,12.27,0,0,0,2-2.15l.73-1a1,1,0,0,1,.86-.45h4.26a1.1,1.1,0,0,1,.88.45l.71,1a12.07,12.07,0,0,0,2,2.16l.71.61h0l1.13.93-.2.13a1,1,0,0,1-1.34-.11l-1-1a.63.63,0,0,0-1.06.34l-1,5.7a1.87,1.87,0,0,0-1.16-.4H9.27a1.87,1.87,0,0,0-1.16.4l-1-5.7a.63.63,0,0,0-.43-.49.66.66,0,0,0-.64.15l-1,1a1,1,0,0,1-1.34.11l-.2-.14Z"/><path class="cls-1" d="M13.27,5.75a2.86,2.86,0,1,0,2.86,2.86A2.87,2.87,0,0,0,13.27,5.75Zm0,4.46a1.6,1.6,0,1,1,1.59-1.6A1.6,1.6,0,0,1,13.27,10.21Z"/></g></g></svg>