<svg xmlns="http://www.w3.org/2000/svg" viewBox="0 0 25.1 50"><defs><style>.cls-1{fill:#666;}</style></defs><g id="Camada_2" data-name="Camada 2"><g id="Camada_1-2" data-name="Camada 1"><path class="cls-1" d="M10,35a4.9,4.9,0,1,0,4.9,4.9A4.91,4.91,0,0,0,10,35Zm0,7.8a2.9,2.9,0,1,1,2.9-2.9A2.9,2.9,0,0,1,10,42.8Z"/><path class="cls-1" d="M14.5,30.8V4.4a4.39,4.39,0,0,0-1.3-3.1A4.82,4.82,0,0,0,10,0,4.44,4.44,0,0,0,5.6,4.4V30.8a10.1,10.1,0,1,0,14.5,9.1A10.16,10.16,0,0,0,14.5,30.8ZM10,48a8.07,8.07,0,0,1-8.1-8.1,8.19,8.19,0,0,1,5-7.5,1,1,0,0,0,.6-.9V4.4a2.4,2.4,0,0,1,4.1-1.7,2.23,2.23,0,0,1,.9,1.7v27a.87.87,0,0,0,.6.9A8.17,8.17,0,0,1,10,48Z"/><path class="cls-1" d="M17.1,6.9H24a.94.94,0,0,0,1-1,.94.94,0,0,0-1-1H17.1a.94.94,0,0,0-1,1A1,1,0,0,0,17.1,6.9Z"/><path class="cls-1" d="M17.1,13h3.5a1,1,0,0,0,0-2H17.1a.94.94,0,0,0-1,1A1,1,0,0,0,17.1,13Z"/><path class="cls-1" d="M24.1,17.1H17.2a1,1,0,1,0,0,2h6.9a.94.94,0,0,0,1-1A1,1,0,0,0,24.1,17.1Z"/><path class="cls-1" d="M20.6,23.2H17.1a1,1,0,0,0,0,2h3.5a.94.94,0,0,0,1-1A1,1,0,0,0,20.6,23.2Z"/></g></g></svg>