<svg xmlns="http://www.w3.org/2000/svg" viewBox="0 0 45.83 50"><defs><style>.cls-1{fill:#666;}</style></defs><g id="Camada_2" data-name="Camada 2"><g id="Camada_1-2" data-name="Camada 1"><path class="cls-1" d="M16.67,19.79V38.54a1,1,0,0,1-1.05,1H13.54a1,1,0,0,1-1-1V19.79a1,1,0,0,1,1-1h2.08a1,1,0,0,1,1.05,1Zm8.33,0V38.54a1,1,0,0,1-1,1H21.88a1,1,0,0,1-1.05-1V19.79a1,1,0,0,1,1.05-1H24a1,1,0,0,1,1,1Zm8.33,0V38.54a1,1,0,0,1-1,1H30.21a1,1,0,0,1-1-1V19.79a1,1,0,0,1,1-1h2.08a1,1,0,0,1,1,1ZM37.5,43.36V12.5H8.33V43.36a3.73,3.73,0,0,0,.23,1.32,3,3,0,0,0,.47.88c.17.18.28.27.35.27H36.46c.06,0,.18-.09.34-.27a3,3,0,0,0,.47-.88A3.73,3.73,0,0,0,37.5,43.36Zm-21.88-35H30.21L28.65,4.52a.94.94,0,0,0-.56-.35H17.77a.92.92,0,0,0-.55.35ZM45.83,9.38v2.08a1,1,0,0,1-1,1H41.67V43.36A7.38,7.38,0,0,1,40.14,48a4.55,4.55,0,0,1-3.68,2H9.38A4.57,4.57,0,0,1,5.7,48.1a7.14,7.14,0,0,1-1.53-4.61v-31H1a1.05,1.05,0,0,1-.75-.29A1.05,1.05,0,0,1,0,11.46V9.38A1,1,0,0,1,1,8.33H11.1L13.38,2.9a4.41,4.41,0,0,1,1.76-2A4.53,4.53,0,0,1,17.71,0H28.12A4.59,4.59,0,0,1,30.7.85,4.44,4.44,0,0,1,32.45,2.9l2.28,5.43H44.79a1,1,0,0,1,1,1.05Z"/></g></g></svg>