<?xml version="1.0" encoding="utf-8"?>
<!-- Generator: Adobe Illustrator 25.0.1, SVG Export Plug-In . SVG Version: 6.00 Build 0)  -->
<svg version="1.1" id="Camada_1" xmlns="http://www.w3.org/2000/svg" xmlns:xlink="http://www.w3.org/1999/xlink" x="0px" y="0px"
	 viewBox="0 0 86 53" style="enable-background:new 0 0 86 53;" xml:space="preserve">
<g id="Train">
</g>
<g id="Car">
</g>
<g id="Taxi">
</g>
<g id="Truk">
	<path d="M1,0h56c0.6,0,1,0.4,1,1v12h18.9c0.3,0,0.7,0.2,0.8,0.5l8.1,13c0.1,0.1,0.2,0.3,0.2,0.5v18c0,0.6-0.4,1-1,1h-9.1
		c-0.5,3.9-3.9,7-7.9,7s-7.4-3.1-7.9-7H57H23.9c-0.5,3.9-3.9,7-7.9,7s-7.4-3.1-7.9-7H1c-0.6,0-1-0.4-1-1V1C0,0.4,0.4,0,1,0z
		 M76.4,15H58v11h25.2L76.4,15z M84,28H58v16h2.1c0-0.1,0-0.2,0.1-0.4c0-0.1,0-0.2,0.1-0.3c0-0.2,0.1-0.3,0.1-0.5
		c0-0.1,0-0.2,0.1-0.2c0.1-0.2,0.2-0.5,0.3-0.7l0,0c0.1-0.2,0.2-0.4,0.3-0.6c0-0.1,0.1-0.1,0.1-0.2c0.1-0.1,0.2-0.3,0.3-0.4
		c0.1-0.1,0.1-0.2,0.2-0.2c0.1-0.1,0.2-0.2,0.3-0.4c0.1-0.1,0.1-0.2,0.2-0.2c0.1-0.1,0.2-0.2,0.3-0.3c0.1-0.1,0.2-0.2,0.2-0.2
		c0.1-0.1,0.2-0.2,0.3-0.3c0.1-0.1,0.2-0.1,0.3-0.2s0.2-0.2,0.3-0.2c0.1-0.1,0.2-0.1,0.3-0.2s0.2-0.1,0.4-0.2
		c0.1-0.1,0.2-0.1,0.3-0.2c0.1-0.1,0.3-0.1,0.4-0.2c0.1,0,0.2-0.1,0.3-0.1c0.1-0.1,0.3-0.1,0.4-0.1s0.2-0.1,0.3-0.1
		c0.1,0,0.3-0.1,0.4-0.1s0.2-0.1,0.3-0.1c0.2,0,0.3-0.1,0.5-0.1c0.1,0,0.2,0,0.3,0c0.3,0,0.5,0,0.8,0s0.5,0,0.8,0c0.1,0,0.2,0,0.3,0
		c0.2,0,0.3,0,0.5,0.1c0.1,0,0.2,0,0.3,0.1c0.1,0,0.3,0.1,0.4,0.1s0.2,0.1,0.3,0.1s0.3,0.1,0.4,0.1s0.2,0.1,0.3,0.1
		c0.1,0.1,0.3,0.1,0.4,0.2c-0.2-0.1-0.1-0.1,0,0s0.2,0.1,0.4,0.2c0.1,0.1,0.2,0.1,0.3,0.2c0.1,0.1,0.2,0.2,0.3,0.2
		c0.1,0.1,0.2,0.1,0.3,0.2c0.1,0.1,0.2,0.2,0.3,0.3c0.1,0.1,0.2,0.1,0.2,0.2c0.1,0.1,0.2,0.2,0.3,0.3c0.1,0.1,0.1,0.2,0.2,0.2
		c0.1,0.1,0.2,0.2,0.3,0.4c0.1,0.1,0.1,0.2,0.2,0.2c0.1,0.1,0.2,0.3,0.3,0.4c0,0.1,0.1,0.1,0.1,0.2c0.1,0.2,0.2,0.4,0.3,0.6l0,0
		c0.1,0.2,0.2,0.5,0.3,0.7c0,0.1,0,0.2,0.1,0.2c0,0.2,0.1,0.3,0.1,0.5c0,0.1,0,0.2,0.1,0.3c0,0.1,0,0.2,0.1,0.4H84L84,28L84,28z
		 M68,51c3.3,0,6-2.7,6-6s-2.7-6-6-6s-6,2.7-6,6S64.7,51,68,51z M16,51c3.3,0,6-2.7,6-6s-2.7-6-6-6s-6,2.7-6,6S12.7,51,16,51z M2,44
		h6.1c0-0.1,0-0.2,0.1-0.4c0-0.1,0-0.2,0.1-0.3c0-0.2,0.1-0.3,0.1-0.5c0-0.1,0-0.2,0.1-0.2c0.1-0.2,0.2-0.5,0.3-0.7l0,0
		c0.1-0.2,0.2-0.4,0.3-0.6c0-0.1,0.1-0.1,0.1-0.2c0.1-0.1,0.2-0.3,0.3-0.4c0.1-0.1,0.1-0.2,0.2-0.2c0.1-0.1,0.2-0.2,0.3-0.4
		c0.1-0.1,0.1-0.2,0.2-0.2c0.1-0.1,0.2-0.2,0.3-0.3c0.1-0.1,0.2-0.2,0.2-0.2c0.1-0.1,0.2-0.2,0.3-0.3c0.1-0.1,0.2-0.1,0.3-0.2
		s0.2-0.2,0.3-0.2c0.1-0.1,0.2-0.1,0.3-0.2s0.2-0.1,0.4-0.2c0.1-0.1,0.2-0.1,0.3-0.2s0.3-0.1,0.4-0.2c0.1,0,0.2-0.1,0.3-0.1
		c0.1-0.1,0.3-0.1,0.4-0.1s0.2-0.1,0.3-0.1s0.3-0.1,0.4-0.1s0.2-0.1,0.3-0.1c0.2,0,0.3-0.1,0.5-0.1c0.1,0,0.2,0,0.3,0
		c0.3,0,0.5,0,0.8,0s0.5,0,0.8,0c0.1,0,0.2,0,0.3,0c0.2,0,0.3,0,0.5,0.1c0.1,0,0.2,0,0.3,0.1c0.1,0,0.3,0.1,0.4,0.1s0.2,0.1,0.3,0.1
		s0.3,0.1,0.4,0.1s0.2,0.1,0.3,0.1c0.1,0.1,0.3,0.1,0.4,0.2c-0.2-0.1-0.1-0.1,0,0s0.2,0.1,0.4,0.2c0.1,0.1,0.2,0.1,0.3,0.2
		s0.2,0.2,0.3,0.2c0.1,0.1,0.2,0.1,0.3,0.2s0.2,0.2,0.3,0.3c0.1,0.1,0.2,0.1,0.2,0.2c0.1,0.1,0.2,0.2,0.3,0.3
		c0.1,0.1,0.1,0.2,0.2,0.2c0.1,0.1,0.2,0.2,0.3,0.4c0.1,0.1,0.1,0.2,0.2,0.2c0.1,0.1,0.2,0.3,0.3,0.4c0,0.1,0.1,0.1,0.1,0.2
		c0.1,0.2,0.2,0.4,0.3,0.6l0,0c0.1,0.2,0.2,0.5,0.3,0.7c0,0.1,0,0.2,0.1,0.2c0,0.2,0.1,0.3,0.1,0.5c0,0.1,0,0.2,0.1,0.3
		c0,0.1,0,0.2,0.1,0.4H56V14V2H2V44z"/>
</g>
<g id="Cruise">
</g>
<g id="Railway">
</g>
<g id="Trem">
</g>
<g id="Bus">
</g>
<g id="Yatch">
</g>
<g id="pLANE">
</g>
<g id="Bicycle">
</g>
<g id="Halte">
</g>
<g id="Bus_Stop">
</g>
<g id="Station">
</g>
<g id="Airport">
</g>
<g id="Layer_17">
</g>
</svg>
