<svg xmlns="http://www.w3.org/2000/svg" viewBox="0 0 50 50"><defs><style>.cls-1{fill:#666;}</style></defs><g id="Camada_2" data-name="Camada 2"><g id="Camada_1-2" data-name="Camada 1"><path class="cls-1" d="M38.47,16.77A8.44,8.44,0,0,0,47,8.39a8.52,8.52,0,0,0-17,0A8.45,8.45,0,0,0,38.47,16.77Zm0-14.69a6.31,6.31,0,1,1-6.41,6.31A6.35,6.35,0,0,1,38.47,2.08ZM7.2,15.1A5.26,5.26,0,1,0,1.9,9.84,5.21,5.21,0,0,0,7.2,15.1Zm0-8.38A3.18,3.18,0,1,1,4,9.9,3.11,3.11,0,0,1,7.2,6.72Zm31.27,11.2h0a11.52,11.52,0,0,0-9.53,5,8.41,8.41,0,0,0-8.25-6.72h0a8.45,8.45,0,0,0-7,3.7,7.24,7.24,0,0,0-6.5-4.07A7.15,7.15,0,0,0,0,22.92v13H12.28v3.69H27V50H50V29.27A11.54,11.54,0,0,0,38.47,17.92ZM12.28,24.48V33.8H2.12V22.92a5,5,0,0,1,5.08-5,5,5,0,0,1,5.08,5Zm14.65,4.79V37.5H14.39v-13a6.27,6.27,0,0,1,12.54,0Zm20.9,18.65H29.05V29.27a9.42,9.42,0,0,1,18.83,0V47.92ZM20.69,15.36a6.11,6.11,0,0,0,6.19-6.09,6.19,6.19,0,0,0-12.38,0A6.19,6.19,0,0,0,20.69,15.36Zm0-10.15a4,4,0,1,1-4.08,4A4,4,0,0,1,20.69,5.21Z"/></g></g></svg>