<svg xmlns="http://www.w3.org/2000/svg" viewBox="0 0 37.5 50"><defs><style>.cls-1{fill:#666;}</style></defs><g id="Camada_2" data-name="Camada 2"><g id="Camada_1-2" data-name="Camada 1"><path class="cls-1" d="M6.51,23.24H9.38l1.49,2.58,1.45-2.58h2.83l-2.62,4.07,2.87,4.34H12.48L10.82,29l-1.67,2.7H6.25l2.9-4.39Z"/><path class="cls-1" d="M16.23,23.24h2.6v6.34h4.06v2.07H16.23Z"/><path class="cls-1" d="M23.62,28.87l2.47-.16a1.81,1.81,0,0,0,.33.92,1.38,1.38,0,0,0,1.15.51,1.27,1.27,0,0,0,.85-.26.8.8,0,0,0,.3-.61.75.75,0,0,0-.28-.58,3.33,3.33,0,0,0-1.33-.49,5.74,5.74,0,0,1-2.44-1,2.07,2.07,0,0,1-.74-1.63,2.19,2.19,0,0,1,.38-1.22,2.48,2.48,0,0,1,1.13-.91,5.26,5.26,0,0,1,2.07-.33,4.26,4.26,0,0,1,2.46.6,2.58,2.58,0,0,1,1,1.91l-2.45.14a1.15,1.15,0,0,0-1.27-1.08,1,1,0,0,0-.68.19.58.58,0,0,0-.23.47.47.47,0,0,0,.19.36,2.18,2.18,0,0,0,.87.31,11.14,11.14,0,0,1,2.44.74,2.49,2.49,0,0,1,1.07.94,2.29,2.29,0,0,1,.34,1.24,2.64,2.64,0,0,1-.45,1.49,2.79,2.79,0,0,1-1.25,1,5.12,5.12,0,0,1-2,.35,4.18,4.18,0,0,1-3-.82A3.26,3.26,0,0,1,23.62,28.87Z"/><g id="document"><path class="cls-1" d="M26.53,0H3A3,3,0,0,0,0,3V47a3,3,0,0,0,3,3H34.5a3,3,0,0,0,3-3V11a3,3,0,0,0-.88-2.12l-8-8A3,3,0,0,0,26.53,0Zm.59,2.12,8.26,8.26H27.12Zm-25,42.76V5.12a3,3,0,0,1,3-3H25V12.5H35.38V44.88a3,3,0,0,1-3,3H5.12A3,3,0,0,1,2.12,44.88Z"/></g></g></g></svg>