<svg id="Camada_1" data-name="Camada 1" xmlns="http://www.w3.org/2000/svg" viewBox="0 0 324.4201 123.0348"><polyline points="24.139 77.749 24.139 115.556 50.739 115.556" style="fill:none;stroke:red;stroke-miterlimit:10;stroke-width:3px"/><polygon points="48.55 123.035 61.502 115.556 48.55 108.077 48.55 123.035" style="fill:red"/><polyline points="83.452 74.586 83.452 92.393 110.052 92.393" style="fill:none;stroke:#29abe2;stroke-miterlimit:10;stroke-width:3px"/><polygon points="107.863 99.872 120.815 92.393 107.863 84.914 107.863 99.872" style="fill:#3fa9f5"/><polyline points="141.363 26.546 141.363 8.739 167.963 8.739" style="fill:none;stroke:#8cc63f;stroke-miterlimit:10;stroke-width:3px"/><polygon points="165.774 1.26 178.726 8.739 165.774 16.218 165.774 1.26" style="fill:#8cc63f"/><line x1="223.5435" y1="51.6172" x2="250.1435" y2="51.6172" style="fill:none;stroke:#ed1e79;stroke-miterlimit:10;stroke-width:3px"/><polygon points="247.955 44.138 260.907 51.617 247.955 59.096 247.955 44.138" style="fill:#ed1e79"/><circle cx="25.1088" cy="53.5064" r="23.6088" style="fill:none;stroke:red;stroke-miterlimit:10;stroke-width:3px"/><path d="M18.1,64.5833V62.0657h3.1372v2.5176A3.8062,3.8062,0,0,0,24.9932,68.34a4.1225,4.1225,0,0,0,2.8481-1.0732A3.4041,3.4041,0,0,0,29.08,64.5833V45.761h3.1372V64.5833a5.9852,5.9852,0,0,1-2.1875,4.706,7.3559,7.3559,0,0,1-5.0361,1.8574,6.81,6.81,0,0,1-4.83-1.8989A6.0907,6.0907,0,0,1,18.1,64.5833Z" transform="translate(-9.0067 -4.9475)" style="fill:#b3b3b3"/><path d="M34.4458,70.8577,40.72,61.4465l-6.2739-9.081H37.583l4.6641,6.563,4.747-6.563h3.1372l-6.2744,9.081,6.2744,9.4112H46.9941l-4.747-6.8936L37.583,70.8577Z" transform="translate(-9.0067 -4.9475)" style="fill:#b3b3b3"/><circle cx="83.2619" cy="50.9773" r="23.6088" style="fill:none;stroke:#29abe2;stroke-miterlimit:10;stroke-width:3px"/><path d="M74.7254,46.1831V43.3765H93.5481v2.8066H85.6639v22.29H82.5271v-22.29Z" transform="translate(-9.0067 -4.9475)" style="fill:#b3b3b3"/><path d="M94.1263,68.4732,100.4,59.062l-6.2739-9.081h3.1372l4.664,6.563,4.7471-6.563h3.1372l-6.2744,9.081,6.2744,9.4112h-3.1372L101.9275,61.58l-4.664,6.8936Z" transform="translate(-9.0067 -4.9475)" style="fill:#b3b3b3"/><circle cx="141.415" cy="50.9773" r="23.6088" style="fill:none;stroke:#8cc63f;stroke-miterlimit:10;stroke-width:3px"/><path d="M132.61,59.95h3.1372a5.9509,5.9509,0,0,0,6.2745,6.2744,7.3519,7.3519,0,0,0,4.5405-1.28,4.0449,4.0449,0,0,0,1.7334-3.4263,3.4791,3.4791,0,0,0-2.0225-3.0957,14.1247,14.1247,0,0,0-4.2514-1.3208,14.271,14.271,0,0,1-6.0679-2.4355,6.1726,6.1726,0,0,1-2.7246-5.0772,5.9126,5.9126,0,0,1,2.394-4.9121,10.1625,10.1625,0,0,1,6.3985-1.8574,9.1189,9.1189,0,0,1,6.3979,2.188,7.5049,7.5049,0,0,1,2.394,5.82h-3.1372a6.6419,6.6419,0,0,0-1.94-3.7973,5.3918,5.3918,0,0,0-3.7148-1.4034,7.1773,7.1773,0,0,0-4.128,1.0733,3.3579,3.3579,0,0,0-1.5273,2.8891,3.8031,3.8031,0,0,0,1.7749,3.1787,8.894,8.894,0,0,0,3.88,1.5269,17.9192,17.9192,0,0,1,6.3979,2.1465,5.4394,5.4394,0,0,1,3.0132,4.7886,6.9449,6.9449,0,0,1-2.5591,5.6547,10.42,10.42,0,0,1-6.852,2.1465A9.5259,9.5259,0,0,1,135.17,66.554,8.7668,8.7668,0,0,1,132.61,59.95Z" transform="translate(-9.0067 -4.9475)" style="fill:#b3b3b3"/><path d="M152.5474,68.4114,158.8214,59l-6.274-9.0811h3.1373l4.664,6.563,4.7471-6.563h3.1372L161.9586,59l6.2744,9.4111h-3.1372l-4.7471-6.8936-4.664,6.8936Z" transform="translate(-9.0067 -4.9475)" style="fill:#b3b3b3"/><circle cx="199.5682" cy="51.6172" r="23.6088" style="fill:none;stroke:#ed1e79;stroke-miterlimit:10;stroke-width:3px"/><path d="M190.5573,69.1131V44.0164h10.8149a8.5016,8.5016,0,0,1,5.9438,2.0249,6.7855,6.7855,0,0,1,2.229,5.3325,6.8892,6.8892,0,0,1-1.0732,3.7617,6.2591,6.2591,0,0,1-3.0132,2.397,7.1622,7.1622,0,0,1,2.1465,2.3081,5.9771,5.9771,0,0,1,.8252,3.0078l.165,4.8633a2.2827,2.2827,0,0,0,.4541,1.1123l.1656.2891h-3.1372l-.0826-.1651a3.1168,3.1168,0,0,1-.5366-1.4033l-.165-4.7061a3.5155,3.5155,0,0,0-1.61-2.9716,5.9021,5.9021,0,0,0-3.55-1.0733h-6.4389V69.1131Zm3.1372-13.1265h7.6777a5.318,5.318,0,0,0,3.6733-1.249,4.4356,4.4356,0,0,0,1.3623-3.3745,4.2539,4.2539,0,0,0-1.3623-3.2906,5.3183,5.3183,0,0,0-3.6733-1.2495h-7.6777Z" transform="translate(-9.0067 -4.9475)" style="fill:#b3b3b3"/><path d="M210.9069,69.1131l6.2739-9.4112-6.2739-9.081h3.1372l4.664,6.563,4.7471-6.563h3.1372l-6.2744,9.081,6.2744,9.4112h-3.1372L218.7081,62.22l-4.664,6.8936Z" transform="translate(-9.0067 -4.9475)" style="fill:#b3b3b3"/><path d="M132.3906,101.6l4.918-12.4111h1.0469L143.2109,101.6h-.9629l-1.59-3.9765h-5.7348l-1.59,3.9765Zm7.9532-4.7724L137.79,90.1516l-2.6157,6.6758Z" transform="translate(-9.0067 -4.9475)" style="fill:#b3b3b3"/><path d="M145.2827,101.3489a1.9491,1.9491,0,0,1-.4814-1.34V93.3323h-1.2769v-.6485h1.2769V90.1516h.8369v2.5322h1.2139v.6485h-1.2139v6.6767a1.5,1.5,0,0,0,.272.9.7376.7376,0,0,0,.6279.376,1.2765,1.2765,0,0,0,.6489-.1465v.6074a2.2766,2.2766,0,0,1-.7114.167A1.5475,1.5475,0,0,1,145.2827,101.3489Z" transform="translate(-9.0067 -4.9475)" style="fill:#b3b3b3"/><path d="M148.6729,89.1887h.8374v1.2764h-.8374Zm0,12.4111v-8.916h.8374V101.6Z" transform="translate(-9.0067 -4.9475)" style="fill:#b3b3b3"/><path d="M154.4492,101.6l-3.3276-8.916h.7744l3.0347,7.9532,2.8672-7.9532h.7954l-3.2647,8.916Z" transform="translate(-9.0067 -4.9475)" style="fill:#b3b3b3"/><path d="M160.2046,89.1887h.8374v1.2764h-.8374Zm0,12.4111v-8.916h.8374V101.6Z" transform="translate(-9.0067 -4.9475)" style="fill:#b3b3b3"/><path d="M164.2651,100.4485a4.9466,4.9466,0,0,1-1.1513-3.3067,5.1432,5.1432,0,0,1,1.1513-3.37,3.4672,3.4672,0,0,1,2.7627-1.4013,3.1938,3.1938,0,0,1,1.8833.6064A3.5568,3.5568,0,0,1,170.125,94.61V89.1887h.8374V101.6h-.8374V99.7786a2.9581,2.9581,0,0,1-1.1929,1.4863,3.3224,3.3224,0,0,1-1.9043.5644A3.4848,3.4848,0,0,1,164.2651,100.4485Zm4.96-.4395a4.6253,4.6253,0,0,0,.9-2.8672,4.54,4.54,0,0,0-.9-2.8466,2.7135,2.7135,0,0,0-2.1973-1.1924,2.6575,2.6575,0,0,0-2.1767,1.1924,4.5366,4.5366,0,0,0-.9,2.8466,4.6222,4.6222,0,0,0,.9,2.8672,2.6589,2.6589,0,0,0,2.1767,1.1934A2.7149,2.7149,0,0,0,169.2251,100.009Z" transform="translate(-9.0067 -4.9475)" style="fill:#b3b3b3"/><path d="M173.85,101.1809a2.1643,2.1643,0,0,1-.021-3.5576,3.9864,3.9864,0,0,1,2.26-.8789,9.3681,9.3681,0,0,0,2.1557-.419q.8577-.293.8579-.69v-.7959a1.3855,1.3855,0,0,0-.7534-1.1719,3.5542,3.5542,0,0,0-3.5366-.02,1.3674,1.3674,0,0,0-.7119,1.13v.4609h-.7954v-.5449a1.8153,1.8153,0,0,1,.9419-1.5273,4.1166,4.1166,0,0,1,2.3022-.628,4.4212,4.4212,0,0,1,2.3652.6065,1.7363,1.7363,0,0,1,.9834,1.4658v5.3994a1.6936,1.6936,0,0,0,.23.9.662.662,0,0,0,.5649.376.794.794,0,0,0,.1885-.02.2707.2707,0,0,0,.1255-.0625V101.6a1.8842,1.8842,0,0,1-.7954.1465,1.0677,1.0677,0,0,1-.8369-.4189,1.5539,1.5539,0,0,1-.335-1.0049,2.1248,2.1248,0,0,1-1.0674,1.1514,3.9144,3.9144,0,0,1-1.8837.4394A3.4846,3.4846,0,0,1,173.85,101.1809Zm4.2065-.6279a2.9251,2.9251,0,0,0,1.0464-1.82V96.6809a2.5267,2.5267,0,0,1-1.0674.4189,14.76,14.76,0,0,1-1.9462.2725,2.8028,2.8028,0,0,0-1.6534.6689,1.7052,1.7052,0,0,0-.67,1.34,1.649,1.649,0,0,0,.6909,1.34,2.4485,2.4485,0,0,0,1.6324.5645A2.9443,2.9443,0,0,0,178.0566,100.553Z" transform="translate(-9.0067 -4.9475)" style="fill:#b3b3b3"/><path d="M183.1636,100.4485a4.9462,4.9462,0,0,1-1.1514-3.3067,5.1427,5.1427,0,0,1,1.1514-3.37,3.4672,3.4672,0,0,1,2.7627-1.4013,3.194,3.194,0,0,1,1.8833.6064,3.5559,3.5559,0,0,1,1.2138,1.6328V89.1887h.8374V101.6h-.8374V99.7786a2.9585,2.9585,0,0,1-1.1928,1.4863,3.3227,3.3227,0,0,1-1.9043.5644A3.4848,3.4848,0,0,1,183.1636,100.4485Zm4.96-.4395a4.6253,4.6253,0,0,0,.9-2.8672,4.54,4.54,0,0,0-.9-2.8466,2.7132,2.7132,0,0,0-2.1972-1.1924,2.6575,2.6575,0,0,0-2.1768,1.1924,4.5366,4.5366,0,0,0-.9,2.8466,4.6222,4.6222,0,0,0,.9,2.8672,2.6589,2.6589,0,0,0,2.1768,1.1934A2.7146,2.7146,0,0,0,188.1235,100.009Z" transform="translate(-9.0067 -4.9475)" style="fill:#b3b3b3"/><path d="M193.084,100.6155a6.0889,6.0889,0,0,1,0-6.9483,3.5822,3.5822,0,0,1,2.8882-1.2968,3.7225,3.7225,0,0,1,2.8882,1.1923,4.5413,4.5413,0,0,1,1.0883,3.1817v.3974h-7.1162a4.5686,4.5686,0,0,0,.8584,2.9092,2.758,2.758,0,0,0,2.2813,1.0879,3.43,3.43,0,0,0,1.9253-.5644,3.0217,3.0217,0,0,0,1.2138-1.5284h.8374a3.1227,3.1227,0,0,1-1.34,2.0508,4.38,4.38,0,0,1-2.6367.8164A3.5771,3.5771,0,0,1,193.084,100.6155Zm6.0273-4.27v-.3134a3.1739,3.1739,0,0,0-1.0044-2.0928,3.08,3.08,0,0,0-2.1347-.8369,2.965,2.965,0,0,0-2.1138.8574,3.2509,3.2509,0,0,0-1.0259,2.1562v.23Z" transform="translate(-9.0067 -4.9475)" style="fill:#b3b3b3"/><path d="M74.5923,125.1516V112.7405h5.6089a2.5947,2.5947,0,0,1,2.0512.9843,3.4742,3.4742,0,0,1,.858,2.3643,3.7215,3.7215,0,0,1-.858,2.47,2.5546,2.5546,0,0,1-2.0512,1.0264H75.43v5.5664Zm5.4624-6.3623a2.0018,2.0018,0,0,0,1.57-.7529,2.6212,2.6212,0,0,0,.6489-1.8008,2.92,2.92,0,0,0-.6489-1.9043,1.9828,1.9828,0,0,0-1.57-.7744H75.43v5.2324Z" transform="translate(-9.0067 -4.9475)" style="fill:#b3b3b3"/><path d="M84.8892,125.1516v-8.916h.8374v2.01a3.7889,3.7889,0,0,1,1.0463-1.5694,2.3366,2.3366,0,0,1,1.5069-.5869h.4814v.9629a.3314.3314,0,0,1-.1465-.042.2212.2212,0,0,0-.0839-.041,2.4084,2.4084,0,0,0-1.7788.8369,4.0213,4.0213,0,0,0-1.0254,2.1133v5.2324Z" transform="translate(-9.0067 -4.9475)" style="fill:#b3b3b3"/><path d="M90.812,124.0422a4.7628,4.7628,0,0,1-1.1509-3.3486A5.0933,5.0933,0,0,1,90.812,117.22a3.8207,3.8207,0,0,1,3.0347-1.2979,3.8609,3.8609,0,0,1,3.0351,1.2979,5.152,5.152,0,0,1,1.13,3.4736,4.8156,4.8156,0,0,1-1.13,3.3486,3.92,3.92,0,0,1-3.0351,1.2559A3.8785,3.8785,0,0,1,90.812,124.0422Zm5.4629-.5019a4.2727,4.2727,0,0,0,.9-2.8467,4.4579,4.4579,0,0,0-.9-2.93,3.002,3.002,0,0,0-2.4282-1.1094,2.9638,2.9638,0,0,0-2.4278,1.1094,4.3888,4.3888,0,0,0-.9209,2.93,4.2079,4.2079,0,0,0,.9209,2.8467,3.0106,3.0106,0,0,0,2.4278,1.0674A3.05,3.05,0,0,0,96.2749,123.54Z" transform="translate(-9.0067 -4.9475)" style="fill:#b3b3b3"/><path d="M100.67,124.0012a4.9485,4.9485,0,0,1-1.1513-3.3076,5.14,5.14,0,0,1,1.1513-3.3691,3.4684,3.4684,0,0,1,2.7627-1.4024,3.1887,3.1887,0,0,1,1.8833.6074,3.5492,3.5492,0,0,1,1.2139,1.6319v-5.4209h.8374v12.4111H106.53v-1.82a2.9518,2.9518,0,0,1-1.1929,1.4853,3.3228,3.3228,0,0,1-1.9043.5655A3.4849,3.4849,0,0,1,100.67,124.0012Zm4.96-.44a4.6233,4.6233,0,0,0,.9-2.8672,4.535,4.535,0,0,0-.9-2.8457,2.7123,2.7123,0,0,0-2.1973-1.1934,2.6563,2.6563,0,0,0-2.1767,1.1934,4.532,4.532,0,0,0-.9,2.8457,4.62,4.62,0,0,0,.9,2.8672,2.6562,2.6562,0,0,0,2.1767,1.1933A2.7122,2.7122,0,0,0,105.63,123.5608Z" transform="translate(-9.0067 -4.9475)" style="fill:#b3b3b3"/><path d="M110.82,124.5657a2.5607,2.5607,0,0,1-.9-1.9668v-6.3633h.8374v6.3633a1.9962,1.9962,0,0,0,.6485,1.4853,2.2121,2.2121,0,0,0,1.57.6074,2.7183,2.7183,0,0,0,1.9463-.8369,3.8183,3.8183,0,0,0,1.0884-2.1142v-5.5049h.8374v8.916H116.01v-1.5693a2.98,2.98,0,0,1-1.2139,1.3183,3.5126,3.5126,0,0,1-1.8208.4815A3.0986,3.0986,0,0,1,110.82,124.5657Z" transform="translate(-9.0067 -4.9475)" style="fill:#b3b3b3"/><path d="M120.0918,124.9006a1.9455,1.9455,0,0,1-.4814-1.34V116.885h-1.2769v-.6494H119.61v-2.5322h.8369v2.5322h1.2138v.6494h-1.2138v6.6758a1.497,1.497,0,0,0,.2719.9.7391.7391,0,0,0,.628.3769,1.2765,1.2765,0,0,0,.6489-.1465v.6065a2.2878,2.2878,0,0,1-.7114.168A1.5451,1.5451,0,0,1,120.0918,124.9006Z" transform="translate(-9.0067 -4.9475)" style="fill:#b3b3b3"/><path d="M124.0674,124.0422a4.7628,4.7628,0,0,1-1.1509-3.3486,5.0933,5.0933,0,0,1,1.1509-3.4736,3.8207,3.8207,0,0,1,3.0347-1.2979,3.861,3.861,0,0,1,3.0351,1.2979,5.1525,5.1525,0,0,1,1.13,3.4736,4.8161,4.8161,0,0,1-1.13,3.3486,3.92,3.92,0,0,1-3.0351,1.2559A3.8785,3.8785,0,0,1,124.0674,124.0422Zm5.4629-.5019a4.2727,4.2727,0,0,0,.9-2.8467,4.4579,4.4579,0,0,0-.9-2.93,3.0021,3.0021,0,0,0-2.4282-1.1094,2.9638,2.9638,0,0,0-2.4278,1.1094,4.3883,4.3883,0,0,0-.9209,2.93,4.2074,4.2074,0,0,0,.9209,2.8467,3.0106,3.0106,0,0,0,2.4278,1.0674A3.05,3.05,0,0,0,129.53,123.54Z" transform="translate(-9.0067 -4.9475)" style="fill:#b3b3b3"/><path d="M191.9937,17.7981V5.387h8.1v.8164h-7.2622v4.7724h6.6342V11.75h-6.6342v5.253h7.2622v.7949Z" transform="translate(-9.0067 -4.9475)" style="fill:#b3b3b3"/><path d="M201.9346,17.1916a2.5567,2.5567,0,0,1-1.0044-2.03h.7744a1.9607,1.9607,0,0,0,.7744,1.5488,2.8671,2.8671,0,0,0,1.8628.6279,3.362,3.362,0,0,0,2.03-.5654,1.8443,1.8443,0,0,0,.7534-1.5273,1.4382,1.4382,0,0,0-.7949-1.2139,5.033,5.033,0,0,0-2.1348-.6074,4.1246,4.1246,0,0,1-2.2607-.795,2.0254,2.0254,0,0,1-.8579-1.6533,1.98,1.98,0,0,1,.8579-1.7168,4.123,4.123,0,0,1,2.4072-.6064,3.8962,3.8962,0,0,1,2.3647.6484,2.0373,2.0373,0,0,1,.9,1.7373h-.7954a1.9173,1.9173,0,0,0-.7949-1.2763,2.8308,2.8308,0,0,0-1.6743-.461,3.1315,3.1315,0,0,0-1.8.461,1.4093,1.4093,0,0,0-.6694,1.2138,1.4356,1.4356,0,0,0,.8159,1.2139,5.045,5.045,0,0,0,2.1348.6064,4.02,4.02,0,0,1,2.2607.8369,2.3233,2.3233,0,0,1-.1465,3.6836,4.2729,4.2729,0,0,1-2.5952.712A3.5887,3.5887,0,0,1,201.9346,17.1916Z" transform="translate(-9.0067 -4.9475)" style="fill:#b3b3b3"/><path d="M210.4321,17.5471a1.9455,1.9455,0,0,1-.4814-1.34V9.5315h-1.2769V8.8821h1.2769V6.35h.8369V8.8821h1.2139v.6494h-1.2139v6.6758a1.4964,1.4964,0,0,0,.272.9.739.739,0,0,0,.6279.3769,1.2765,1.2765,0,0,0,.6489-.1465v.6065a2.2864,2.2864,0,0,1-.7114.1679A1.5451,1.5451,0,0,1,210.4321,17.5471Z" transform="translate(-9.0067 -4.9475)" style="fill:#b3b3b3"/><path d="M214.0317,17.38a2.1653,2.1653,0,0,1-.021-3.5586,4.0011,4.0011,0,0,1,2.26-.8789,9.3692,9.3692,0,0,0,2.1558-.418q.8576-.2929.8579-.6914v-.7949a1.3845,1.3845,0,0,0-.7535-1.1719,3.5572,3.5572,0,0,0-3.5366-.0214,1.3686,1.3686,0,0,0-.7119,1.1308v.46h-.7954v-.544a1.8171,1.8171,0,0,1,.9419-1.5283,4.1249,4.1249,0,0,1,2.3022-.6279,4.4221,4.4221,0,0,1,2.3653.6074,1.7363,1.7363,0,0,1,.9834,1.4649v5.3994a1.6892,1.6892,0,0,0,.23.9.6635.6635,0,0,0,.565.3769.7445.7445,0,0,0,.1885-.0215.2616.2616,0,0,0,.1255-.0625v.3975a1.8863,1.8863,0,0,1-.7955.1465,1.07,1.07,0,0,1-.8369-.418,1.5577,1.5577,0,0,1-.3349-1.0049,2.1252,2.1252,0,0,1-1.0674,1.1514,3.9136,3.9136,0,0,1-1.8838.4394A3.4848,3.4848,0,0,1,214.0317,17.38Zm4.2066-.6279a2.9276,2.9276,0,0,0,1.0464-1.8213V12.88a2.5539,2.5539,0,0,1-1.0674.419,14.7892,14.7892,0,0,1-1.9463.2714,2.7966,2.7966,0,0,0-1.6533.67,1.7032,1.7032,0,0,0-.67,1.34,1.6459,1.6459,0,0,0,.6909,1.3389,2.4442,2.4442,0,0,0,1.6323.5654A2.944,2.944,0,0,0,218.2383,16.7522ZM217.1709,4.9475h1.2769l-1.4024,3.1816H216.46Z" transform="translate(-9.0067 -4.9475)" style="fill:#b3b3b3"/><path d="M223.3867,20.1428a2.52,2.52,0,0,1-1.13-2.0517h.7954a1.8907,1.8907,0,0,0,.879,1.5488,3.6686,3.6686,0,0,0,2.1557.6279,3.1671,3.1671,0,0,0,2.1973-.7324,2.4827,2.4827,0,0,0,.8374-1.9668V15.7473a3.07,3.07,0,0,1-1.2139,1.3809,3.33,3.33,0,0,1-1.8.5234,3.4877,3.4877,0,0,1-2.8047-1.2344,4.9318,4.9318,0,0,1-1.0674-3.3066,4.9363,4.9363,0,0,1,1.0674-3.3076,3.4907,3.4907,0,0,1,2.8047-1.2344,3.3491,3.3491,0,0,1,1.8623.5439,2.9317,2.9317,0,0,1,1.1514,1.4444V8.8821h.8369v8.707a3.1011,3.1011,0,0,1-1.0254,2.49,4.1245,4.1245,0,0,1-2.8462.9A4.3569,4.3569,0,0,1,223.3867,20.1428Zm4.856-4.27a4.42,4.42,0,0,0,.8789-2.7627,4.42,4.42,0,0,0-.8789-2.7627,2.6841,2.6841,0,0,0-4.3325-.0635,4.4517,4.4517,0,0,0-.8374,2.8262,4.4507,4.4507,0,0,0,.8374,2.8252,2.6849,2.6849,0,0,0,4.3325-.0625Z" transform="translate(-9.0067 -4.9475)" style="fill:#b3b3b3"/><path d="M232.6372,5.387h.8374V6.6643h-.8374Zm0,12.4111V8.8821h.8374v8.916Z" transform="translate(-9.0067 -4.9475)" style="fill:#b3b3b3"/><path d="M236.7393,16.6887a4.7628,4.7628,0,0,1-1.1509-3.3486,5.0938,5.0938,0,0,1,1.1509-3.4737,3.8208,3.8208,0,0,1,3.0346-1.2978,3.8613,3.8613,0,0,1,3.0352,1.2978,5.1529,5.1529,0,0,1,1.13,3.4737,4.8161,4.8161,0,0,1-1.13,3.3486,3.92,3.92,0,0,1-3.0352,1.2559A3.8784,3.8784,0,0,1,236.7393,16.6887Zm5.4628-.5019a4.2724,4.2724,0,0,0,.9-2.8467,4.4572,4.4572,0,0,0-.9-2.93,3.0018,3.0018,0,0,0-2.4282-1.1094,2.9637,2.9637,0,0,0-2.4277,1.1094,4.3881,4.3881,0,0,0-.9209,2.93,4.2076,4.2076,0,0,0,.9209,2.8467,3.01,3.01,0,0,0,2.4277,1.0673A3.05,3.05,0,0,0,242.2021,16.1868Z" transform="translate(-9.0067 -4.9475)" style="fill:#b3b3b3"/><path d="M273.11,61.6116V49.2h5.9228a2.8742,2.8742,0,0,1,2.1768.9629,3.209,3.209,0,0,1,.8994,2.3023,3.8591,3.8591,0,0,1-.544,2.0717,2.0945,2.0945,0,0,1-1.4023,1.0259,2.0678,2.0678,0,0,1,1.2558,1.3184A6.7041,6.7041,0,0,1,281.9,59.56q0,.88.042,1.3188a1.8171,1.8171,0,0,0,.167.7325h-.8369A1.75,1.75,0,0,1,281,60.6907l-.0625-1.7788a3.7661,3.7661,0,0,0-.6064-2.1558,1.7072,1.7072,0,0,0-1.4444-.8789h-4.9394v5.7344Zm5.7763-6.5088a2.2556,2.2556,0,0,0,1.6953-.7534,2.5269,2.5269,0,0,0,.69-1.8,2.5744,2.5744,0,0,0-.69-1.8,2.2838,2.2838,0,0,0-1.6953-.7325h-4.9394v5.086Z" transform="translate(-9.0067 -4.9475)" style="fill:#b3b3b3"/><path d="M284.8516,60.6277a6.0866,6.0866,0,0,1,0-6.9483,3.58,3.58,0,0,1,2.8877-1.2973,3.7213,3.7213,0,0,1,2.8886,1.1928,4.5419,4.5419,0,0,1,1.0879,3.1812v.3975H284.6a4.567,4.567,0,0,0,.8584,2.9091,2.759,2.759,0,0,0,2.2813,1.0884,3.4267,3.4267,0,0,0,1.9257-.5649,3.0229,3.0229,0,0,0,1.2139-1.5279h.8369a3.1209,3.1209,0,0,1-1.34,2.0508,4.3805,4.3805,0,0,1-2.6367.8164A3.5769,3.5769,0,0,1,284.8516,60.6277Zm6.0273-4.27v-.3134a3.1779,3.1779,0,0,0-1.0049-2.0933,3.0787,3.0787,0,0,0-2.1347-.8369,2.9623,2.9623,0,0,0-2.1133.8579A3.2536,3.2536,0,0,0,284.6,56.1282v.23Z" transform="translate(-9.0067 -4.9475)" style="fill:#b3b3b3"/><path d="M294.3105,60.5862a5.06,5.06,0,0,1-1.2343-3.4326,4.9258,4.9258,0,0,1,1.2343-3.37,3.8482,3.8482,0,0,1,2.9932-1.4018,3.7232,3.7232,0,0,1,2.47.8579,2.6736,2.6736,0,0,1,1.0254,2.0928h-.8369a1.8859,1.8859,0,0,0-.7744-1.5069,2.8975,2.8975,0,0,0-1.8838-.6279,3.0917,3.0917,0,0,0-2.4072,1.1514,4.2217,4.2217,0,0,0-.9834,2.8042,4.3621,4.3621,0,0,0,.9834,2.8671,3.051,3.051,0,0,0,2.4072,1.1934,2.724,2.724,0,0,0,1.8418-.6489,1.9631,1.9631,0,0,0,.7744-1.5489h.8789a2.6932,2.6932,0,0,1-1.0254,2.1138,3.6672,3.6672,0,0,1-2.47.8789A3.8249,3.8249,0,0,1,294.3105,60.5862Z" transform="translate(-9.0067 -4.9475)" style="fill:#b3b3b3"/><path d="M303.3936,61.0256a2.5631,2.5631,0,0,1-.8995-1.9673V52.6955h.837v6.3628a1.9984,1.9984,0,0,0,.6484,1.4859,2.215,2.215,0,0,0,1.57.6069,2.7171,2.7171,0,0,0,1.9463-.8369A3.8115,3.8115,0,0,0,308.584,58.2V52.6955h.8379v8.9161h-.8379v-1.57a2.9764,2.9764,0,0,1-1.2139,1.3189,3.5148,3.5148,0,0,1-1.82.4809A3.0979,3.0979,0,0,1,303.3936,61.0256Z" transform="translate(-9.0067 -4.9475)" style="fill:#b3b3b3"/><path d="M312.1006,61.6116V52.6955h.8369v2.0093a3.7926,3.7926,0,0,1,1.0469-1.5693,2.3345,2.3345,0,0,1,1.5068-.5864h.4815v.9629a.3311.3311,0,0,1-.1465-.042.2159.2159,0,0,0-.084-.0415,2.4088,2.4088,0,0,0-1.7793.8369,4.0248,4.0248,0,0,0-1.0254,2.1137v5.2325Z" transform="translate(-9.0067 -4.9475)" style="fill:#b3b3b3"/><path d="M317.709,61.0046a2.5562,2.5562,0,0,1-1.0039-2.03h.7744a1.9593,1.9593,0,0,0,.7744,1.5488,2.8626,2.8626,0,0,0,1.8623.6279,3.3679,3.3679,0,0,0,2.03-.5649,1.8463,1.8463,0,0,0,.7529-1.5279,1.4378,1.4378,0,0,0-.7949-1.2138,5.0324,5.0324,0,0,0-2.1348-.607,4.1215,4.1215,0,0,1-2.2607-.7954,2.0243,2.0243,0,0,1-.8574-1.6533,1.9785,1.9785,0,0,1,.8574-1.7163,4.1239,4.1239,0,0,1,2.4072-.6069,3.8979,3.8979,0,0,1,2.3652.6489,2.0367,2.0367,0,0,1,.8995,1.7368h-.795a1.92,1.92,0,0,0-.7949-1.2764,2.8319,2.8319,0,0,0-1.6748-.46,3.1305,3.1305,0,0,0-1.8.46,1.4113,1.4113,0,0,0-.67,1.2139,1.4362,1.4362,0,0,0,.8164,1.2139,5.0353,5.0353,0,0,0,2.1348.6069,4.0138,4.0138,0,0,1,2.2607.8369,2.3233,2.3233,0,0,1-.1465,3.6836,4.2755,4.2755,0,0,1-2.5957.7114A3.5875,3.5875,0,0,1,317.709,61.0046Z" transform="translate(-9.0067 -4.9475)" style="fill:#b3b3b3"/><path d="M326.2275,60.5022a4.7612,4.7612,0,0,1-1.1513-3.3486,5.0921,5.0921,0,0,1,1.1513-3.4742,3.8207,3.8207,0,0,1,3.0342-1.2973,3.8626,3.8626,0,0,1,3.0352,1.2973,5.15,5.15,0,0,1,1.13,3.4742,4.8137,4.8137,0,0,1-1.13,3.3486,3.9216,3.9216,0,0,1-3.0352,1.2558A3.8786,3.8786,0,0,1,326.2275,60.5022ZM331.69,60a4.2731,4.2731,0,0,0,.8994-2.8466,4.46,4.46,0,0,0-.8994-2.93,3.0024,3.0024,0,0,0-2.4287-1.1089,2.964,2.964,0,0,0-2.4277,1.1089,4.3931,4.3931,0,0,0-.9209,2.93A4.2106,4.2106,0,0,0,326.834,60a3.0124,3.0124,0,0,0,2.4277,1.0674A3.0519,3.0519,0,0,0,331.69,60Z" transform="translate(-9.0067 -4.9475)" style="fill:#b3b3b3"/></svg>