<?xml version="1.0" encoding="utf-8"?>
<!-- Generator: Adobe Illustrator 25.2.0, SVG Export Plug-In . SVG Version: 6.00 Build 0)  -->
<svg version="1.1" id="Layer_1" xmlns="http://www.w3.org/2000/svg" xmlns:xlink="http://www.w3.org/1999/xlink" x="0px" y="0px"
	 viewBox="0 0 1280 620.6" style="enable-background:new 0 0 1280 620.6;" xml:space="preserve">
<style type="text/css">
	.st0{opacity:0.5;fill:#CCCCCC;}
	.st1{fill:#0C232B;}
	.st2{fill:#F0A5A6;}
	.st3{fill:#231F20;}
	.st4{fill:#184656;}
	.st5{fill:#399AAA;}
	.st6{fill:#E95F5C;}
	.st7{fill:#134E75;}
	.st8{fill:#C080B1;}
	.st9{fill:#CC7F7F;}
	.st10{fill:#999999;}
	.st11{fill:url(#SVGID_1_);}
	.st12{fill:#BBBDBF;}
	.st13{fill:#E6E7E8;}
	.st14{fill:#CCCCCC;}
	.st15{fill:#808080;}
	.st16{fill:#0C3A5E;}
	.st17{fill:#46ACC3;}
	.st18{fill:url(#SVGID_2_);}
	.st19{fill:#FCC14B;}
	.st20{opacity:0.5;fill:#C94545;}
	.st21{fill:#F7931E;}
	.st22{fill:#B3B3B3;}
</style>
<ellipse class="st0" cx="413.5" cy="596.1" rx="91.5" ry="12.5"/>
<ellipse class="st0" cx="918.5" cy="596.1" rx="91.5" ry="12.5"/>
<g>
	<path class="st1" d="M894.7,270.1c0,0-5.2-6.1,0.6-15.1c4-6,8.2-3.5,8-0.5C903.2,257.4,899.6,265.9,894.7,270.1z"/>
	<path class="st2" d="M481.5,319.3c0,0-4.9,1.5-5.4,2.1c-0.2,0.2-1.7,1-0.6,4.1c0.4,1.1,1.2,2.3,2.4,2.4c0.7,0.1,2.9-1,4.5-1.6
		c0.5,0.7,0.9,0.9,1.4,1.1c1.5,0.5,2.5,0.6,4.7,0.2c2.2-0.4,5.3-0.7,7-2.1c1.8-1.4,0.7-2.2,0.7-2.2s0.9-0.3,1-1.2
		c0.1-1-0.5-1.7-0.5-1.7s0.8-0.8,0.9-1.6c0.1-0.8-0.6-1.6-0.6-1.6s1.3-0.5,1.1-1.7c-0.2-1.1-2.5-1.5-3.2-1.5c-0.7,0-2,0.1-2,0.1
		s0.8-2.2-0.1-2.3c-0.5-0.1-2.8,1.2-4.8,1c-2.4-0.1-4,1.8-4.5,2.5C482.4,317,481.5,319.3,481.5,319.3z"/>
	<g>
		<path class="st3" d="M413.3,571.6l-4.7,17.5c0,0,5.2,3.6,10.1,0.7l3.3-15.6C422,574.1,413,571.2,413.3,571.6z"/>
		<path class="st3" d="M418.1,581c0,0-1.7,4.8,0.9,6.6c2.5,1.7,5.3,1.3,9.6,0.7c5.6-0.8,14.2,7,3.3,6.3c-1.6-0.1-10.5-0.8-14.7-4.2
			c-2-1.7-1.7-5.6-1.1-6.8L418.1,581z"/>
	</g>
	<path class="st1" d="M429.9,392.5c-11.2-11-23.7-16.8-35.1-7.5c0,0-3.3,2.6-3.3,2.6c-16.7,13.5,29.2,82.3,38.3,94.2
		c11.6,15.2,33.8,36.2,40.4,25.9c7.6-11.9,5.3-23.8,5.3-25.9c0-16.9-7.5-32.1-15.1-45.8C454.1,424.6,442.8,405.1,429.9,392.5z"/>
	<path class="st1" d="M421,582.5c8.7-9.5,26-31.2,36.2-50.5c0,0,0.1-0.1,0.1-0.1l13.4-23.9c4.9-11.8,0.8-17.8-5.3-21
		c0,0-23.4,7.6-23.4,7.6c-10.6,19.2-27.9,69-31.1,81.4C410.9,576,417,582.6,421,582.5z"/>
	<g>
		<path class="st3" d="M373.3,574.1l-6.9,16.7c0,0,4.7,4.2,9.9,1.9l5.3-15C381.6,577.7,373.1,573.6,373.3,574.1z"/>
		<path class="st3" d="M375.8,583.3c0,0-1.4,4.9,1.3,6.5s5.3,1,9.6,0.2c5.5-1.1,14.6,6.1,3.7,6.1c-1.6,0-10.6-0.2-14.9-3.3
			c-2.1-1.5-2.1-5.5-1.5-6.7L375.8,583.3z"/>
	</g>
	<path class="st4" d="M379,587.5c10.1-10.7,30.4-35,43.3-56.5c0-0.1,0.1-0.1,0.1-0.2l6.1-10c7.1-11.6,8.1-23.8,2.4-27.2l-1.9-1.2
		c-5.7-3.5-21.2-1.7-21.3-1.6c-26.8,43.5-33.2,75.8-38,89.6C369.7,580.5,374.9,587.7,379,587.5z"/>
	<path class="st4" d="M421.6,383.8c-7.2-14-24.4-10.7-38.2-5.5c0,0-3.9,1.5-3.9,1.5c-20.1,7.5-12.5,32.7-4.7,51.2
		c5.9,14,29.8,70.7,39.2,78.3c3.7,3,14.3,3.1,16.2,2.3c2-0.7,3.6-3.3,4.4-8.1c2.6-14.8,1.5-40.9-0.1-56.5
		C433.2,434.1,429.9,399.9,421.6,383.8z"/>
	<path class="st2" d="M409.3,256.8c4,6.9,3.6,19.8,1,21c-5.6,2.6-17.6-2.2-21.6-9.1c-4-6.9-2.6-15.2,3.1-18.5
		C397.4,247,405.3,249.9,409.3,256.8z"/>
	<path class="st2" d="M402.7,287.6h-10.8v-16.3l12.4,0.7C404.4,272,401.2,280.6,402.7,287.6z"/>
	<path class="st2" d="M407.5,257.8c0,0,4.9,2.4,6.5,2.6c1.6,0.2,2.4,0.8,0.9,2.6c-1.4,1.8-3.9,2.5-3.9,2.5L407.5,257.8z"/>
	<path class="st5" d="M480,321.4c-0.2-1-1.2-1.7-2.3-1.6c-6.6,0.9-24.9,4.2-26.7,5.1c-1.7,0.8-22.9-13.6-24.1-15.2
		c-8.1-2.1,0,15.3-3.4,20c2.6,4.5,18.3,9.1,18.3,9.1c9.5,2.3,31.3-7.4,38.1-11.1c0.8-0.4,1.3-1.4,1-2.3L480,321.4z"/>
	<path class="st5" d="M432.2,327.1c-1.6,1.7-3.6,3.9-5.3,5.6c-8.6-4.4-13.6-5.6-23.8-14.3c-9.3-8.8-18.2-11.5-16.3-21.4
		c2-7.5,12.7-9.8,12.8-9.8c10.9,4.8,27.9,22,38.4,33.9C436.4,323.4,434.1,325,432.2,327.1z"/>
	<path class="st6" d="M388.5,283c1.6-1,0.2-2.3,1.6-2.3l11.6,1.3c3.6-0.1,1.8,1.8,2.4,2.3c15.8,13.7,17.6,54.9,23.4,89.7
		c0.1,0.7,0.2,1.3,0.2,2c0.5,1.1,0.7,2.3,0.6,3.5c-0.9,7.3-14.6,14-31.6,15c-15.2,0.9-28.2-3-31.6-9.2c0,0,0,0,0-0.1
		c-0.1-0.1-0.1-0.3-0.2-0.4c-0.8-1.6-1.1-3.6-1.1-5.7c0.3-13.6-0.3-26.5,1.5-37.9C370.7,288.7,387.9,282.9,388.5,283z"/>
	<path class="st1" d="M391.3,270.4c0,0,1.6-0.2,1.6-3.1c0-2.1,1.7-4.1,2.6-4.3s3.7-0.8,4.3-4.8c0.2-1.4-0.3-3.6,0.7-4.8
		c0.3-0.4,0.8-0.6,1.2-0.7c3.2-1.1,6.9-0.2,9.8-2.2c2.8-1.9,2.3-6.4-0.7-7.4c-3.1-1-6.9,4.4-9.7,3.7c-1.4-0.3-2.2-1.6-3.3-2.4
		c-1.4-0.9-3.2-1.2-4.8-1.2c-3.5,0.1-6.8,1.5-8.5,4.7c-1,1.9-1.9,4-4.1,4.7c-1.2,0.4-2.4,0.5-3.6,0.8c-2.1,0.6-4,1.9-5.1,3.7
		c-2.5,4.2,0.7,9,4.6,11c3.3,1.6,2.9,3.9,2.7,5.7c-0.2,3.4,4,7.9,9.6,4.3c1.2,1.2,3.2,0.7,3.2,0.7l1.3-3.7
		C393.3,275.2,391.4,272.5,391.3,270.4z"/>
	<path class="st2" d="M391.6,265.1c0.8,2.2,2.4,3.6,3.6,3.2c1.2-0.4,1.6-2.6,0.8-4.8s-2.4-3.6-3.6-3.2
		C391.2,260.8,390.8,262.9,391.6,265.1z"/>
	<g>
		<g>
			<path class="st3" d="M978,561.8l6.3,13.6c0,0-2.1,5.8-7.6,6.3l-5.3-13.6C971.3,568.1,977.9,561.3,978,561.8z"/>
			<path class="st3" d="M973.4,572.9c0,0,2.8,4.5,1.8,7.3c-1,2.8-3.4,4.1-7.2,6.1c-4.9,2.6-7.3,13.7,1,6.9c1.2-1,7.9-6.7,9.3-11.8
				c0.7-2.5-1.9-5.5-3-6L973.4,572.9z"/>
		</g>
	</g>
	<path class="st7" d="M970.1,575.5c-10.4-8.5-51.1-59.5-51.1-59.5c-7.8-9.6-8.3-17.4-3.5-21.3l1.6-1.3c4.8-3.8,19-4.1,19.1-4
		c27.8,34.2,40,60.2,46.4,73c0.7,1.4,0.6,3-0.2,4.4C980.3,570.1,975.8,575.9,970.1,575.5z"/>
	<g>
		<g>
			<path class="st3" d="M881.8,576l-1.8,14.9c0,0-4.8,3.9-9.8,1.4l2.6-14.4C872.8,577.9,882,575.6,881.8,576z"/>
			<path class="st3" d="M872.1,583c0,0,0,5.3-2.3,7.2c-2.4,1.9-5.1,1.7-9.3,1.4c-5.5-0.4-13.4,7.8-2.8,6.4
				c1.6-0.2,10.2-1.5,14.1-5.2c1.9-1.8,1.3-5.7,0.6-6.7L872.1,583z"/>
		</g>
	</g>
	<path class="st7" d="M870.1,581.4c-8.5-19.1-10.8-75.6-9.2-86.4c0,0,30.1-2,30.1-2c0.1,18.7-2.8,67.5-5.9,83.6
		c-0.3,1.8-1.7,3.3-3.5,3.8C878.2,581.3,872.3,582.6,870.1,581.4z"/>
	<path class="st2" d="M787.4,332.2c0,0,5.1-0.9,5.7-0.7c0.2,0.1,2,0.1,2.4,3.3c0.2,1.2,0,2.6-1,3.3c-0.6,0.4-3.1,0.5-4.7,0.7
		c-0.1,0.8-0.4,1.2-0.8,1.6c-1.1,1.1-1.9,1.7-4,2.4c-2.1,0.7-5,1.8-7.2,1.4c-2.2-0.4-1.7-1.7-1.7-1.7s-0.9,0.1-1.5-0.6
		c-0.6-0.8-0.3-1.7-0.3-1.7s-1.1-0.3-1.5-1c-0.4-0.7-0.2-1.7-0.2-1.7s-1.4,0.1-1.7-1c-0.3-1.1,1.5-2.5,2.1-2.8
		c0.6-0.3,1.8-0.8,1.8-0.8s-1.7-1.6-1-2.1c0.4-0.3,3-0.3,4.8-1.3c2-1.2,4.4-0.3,5.2,0.1C785.7,330.6,787.4,332.2,787.4,332.2z"/>
	<path class="st1" d="M929.1,264.3c-1.8-4.4-6.2-2.7-6.2-2.7s2.7-5.6-1.3-7.9c-4.1-2.3-5.8,1.6-8,0.9c-1.8-0.6-1.7-2-2.6-2.8
		c-0.4,0.7-0.9,1.4-1.7,2c-3.2,2.1-6.9,3.3-9.9,5.6c-0.6,0.5-1.4,0.7-2.1,0.7c0,0,0,0,0,0c-0.7,0.4-1.4,0.6-2.2,0.6
		c1.5,2,3.9,3,8.4,2.1c4.7-1,6,1,6.1,4.5c0.1,3.5,1.5,4.8,1.5,4.8s3.2-2,3.8,1.9c0.6,3.9-2.6,5.3-2.6,5.3s0,1.5-0.5,4.5
		c-0.5,3.1-0.2,3.4,2.4,2.7c3.4-1,6.2-2.5,8.1-5.2c1.9-2.6,2-5.4,0.5-6.1C922.6,275,930.8,268.3,929.1,264.3z"/>
	<path class="st7" d="M901,388.8c3-15.5,56.2-31.1,47.6,34.7c-2,15.1-9.7,72-16.2,82.2c-2.6,4-14.7,8.6-15.8,7.1
		c-1-1.4-3.1-4.1-5-8.3c-5.8-13.3-4.7-36.4-7-51.6C902.7,440.2,897.5,406.6,901,388.8z"/>
	<path class="st7" d="M868.1,413.1c3.9-15.2,6-27.3,14.5-33.9c0,0,47,7.2,47,7.2c4.5,19.4-13.8,35-26.9,69.6
		c-2.3,6-8.3,30.6-11.7,44.2c-3.3,13.3-14.9,17.2-20.5,15c-9.2-3.5-9.5-13.5-9.7-15.4C858.9,480.1,864.7,426.4,868.1,413.1z"/>
	<path class="st6" d="M923.7,318.5C919,310.9,923,291,923,291c11.5-6.1,25.4,10.3,30.3,21c10.8,17.2,15.6,33.5,16.6,38.6
		c1,5.4-3.1,16.6-5.7,15.3c-4.7-2.3-25.8-30.3-38.4-34.7C925.8,331.1,923.7,318.5,923.7,318.5z"/>
	<path class="st6" d="M889.8,290.5c0,0,27.4,9.9,21,15.4l-18.2,14.1c0,0-0.1,0-0.1,0.1c-14.4,12.6-39.8,21.9-44.8,22.4
		c-2.7,0.3-8.3-12-0.5-17.6C854.7,320,879.2,297.6,889.8,290.5z"/>
	<path class="st8" d="M905.6,295.5c2.7-0.5,5.3-2,7.6-4.1l-0.2,2.4l-5.3,10.3l-4.7-8.4C903.9,295.7,904.7,295.6,905.6,295.5z"/>
	<path class="st6" d="M791.9,335.4l0.1-2.9c0.1-2.9,2.8-5.2,5.9-5.1c37.5,1.3,49.2-2.9,49.2-2.9c23.5-3.4,8.8,19.7-3.9,18.7
		c0,0-41.2-1.2-47-2.4C793.6,340.3,791.7,338,791.9,335.4z"/>
	<path class="st6" d="M902.1,287c-2.4,0-12,7.9-17.1,23.5c-4.4,13.4-7.5,48.4-8.4,72.8c-0.2,6.5,14.6,6.8,31.3,6.7
		c15.7-0.1,39.7-0.8,40-6.6c0.5-11.9-13.5-75.2-15.4-85.2c-8.8-11.9-18.1-9.9-19.1-10.3L902.1,287z"/>
	<path class="st2" d="M901.7,290.6c0,0,8.8,5.8,15.4-1.7l-1.8-6.1l-0.1-6.1l-15.6,5C899.6,281.7,902.3,283.9,901.7,290.6z"/>
	<path class="st9" d="M910.4,283.5c-1.2,2-2.8,5.7-5,6.6c-1.1,0.5-2.4,0.6-3.6,0.1c-0.7-4.6-2.2-8.5-2.2-8.5l14-4.9
		C912.8,279.2,911.7,281.4,910.4,283.5z"/>
	<path class="st2" d="M896.2,260c-4.9,16.2,0.8,23.8,3.4,24.5c5.5,1.4,15.6-5,18-11.9c2.5-6.9-0.2-14.2-5.9-16.2
		C906,254.3,898.3,252.9,896.2,260z"/>
	<path class="st6" d="M484.1,319.2c-4.7,20-10,42.7-22.6,55.3c-33.8,33.8-79.5,34.3-157.1,23.1c-47.5-6.8-86.3-0.6-118.6,19
		c-27.3,16.6-49.6,42.9-68.4,80.4c-20.3,40.7-59.1,64.2-103.7,77.2v9.5c47.9-13.5,89.9-38.5,111.9-82.6
		c38.7-77.4,93.4-106.5,177.4-94.4c32.8,4.7,67.2,8.6,96.3,5.4c28.8-3.2,50.6-13.1,68.6-31.1c14.5-14.4,20.1-38.5,25.1-59.7
		c6.7-28.9,36.5-24.8,37.8-24.6l0.7-4.5l0.7-4.5C518.6,285.6,491,289.4,484.1,319.2z"/>
	<g>
		<g>
			<path class="st6" d="M629.9,277.5H601c-1.4,0-2.5-1.1-2.5-2.5l0,0c0-1.4,1.1-2.5,2.5-2.5h28.9c1.4,0,2.5,1.1,2.5,2.5l0,0
				C632.4,276.3,631.3,277.5,629.9,277.5z"/>
			<path class="st6" d="M629.9,308.8H601c-1.4,0-2.5-1.1-2.5-2.5l0,0c0-1.4,1.1-2.5,2.5-2.5h28.9c1.4,0,2.5,1.1,2.5,2.5l0,0
				C632.4,307.6,631.3,308.8,629.9,308.8z"/>
		</g>
		<path class="st10" d="M542,299.2l-17.4-2.4c-1.8-0.2-3.2-2.7-3.2-5.6l0,0c0-2.8,1.4-5.3,3.2-5.6l17.4-2.4c4.1-0.6,7.9,3,7.9,7.9
			l0,0C549.9,296.2,546.1,299.7,542,299.2z"/>
		<linearGradient id="SVGID_1_" gradientUnits="userSpaceOnUse" x1="543.5841" y1="290.6103" x2="594.508" y2="290.6103">
			<stop  offset="0.3073" style="stop-color:#CCCCCC"/>
			<stop  offset="0.8855" style="stop-color:#666666"/>
		</linearGradient>
		<path class="st11" d="M584.6,312.5h-31c-5.5,0-9.9-4.5-9.9-9.9v-23.9c0-5.5,4.5-9.9,9.9-9.9h31c5.5,0,9.9,4.5,9.9,9.9v23.9
			C594.5,308,590,312.5,584.6,312.5z"/>
		<path class="st10" d="M603.3,317h-22c-2.8,0-5-2.3-5-5v-42.7c0-2.8,2.3-5,5-5h22c2.8,0,5,2.3,5,5V312
			C608.3,314.7,606,317,603.3,317z"/>
		<path class="st12" d="M579.7,321.6h-4.2c-1.5,0-2.7-1.2-2.7-2.7v-56.8c0-1.5,1.2-2.7,2.7-2.7h4.2c1.5,0,2.7,1.2,2.7,2.7V319
			C582.3,320.4,581.1,321.6,579.7,321.6z"/>
	</g>
	<rect x="567.7" y="268.7" class="st13" width="5" height="43.8"/>
	<path class="st14" d="M543.5,283.3c-0.5,0-1,0-1.5,0l-4.3,0.6v14.7l4.3,0.6c0.5,0.1,1,0.1,1.5,0V283.3z"/>
	<rect x="582.3" y="264.3" class="st15" width="2.8" height="52.8"/>
	<path class="st7" d="M948.4,377.5c-0.8-6.4-1.8-12.8-3-19.1c-1.3-6.6-1.5-8.4-3.1-14.9c-4.2-6-8.2-12.2-11.7-14.1
		c-7.1-1.8-8.7-25.2-6.8-30c0.9-2.3,1.8-4.9,3.1-7c0.6-1,2.1-2,2-3.4c-0.2-2.1-2.9-2-4.7-1.8c-0.1,0-0.1,0-0.2,0
		c-3.3-0.4-5.4,1.7-6.6,4.5c-1,2.5-1.8,5.2-2.5,7.8c-0.8,3.4-1,7.3-2.2,10.6c-1.2,3.1-3,3.5-6,3.8c-1.7,0.2-3.5,0.3-5.2,0.3
		c-3.4,0-9.7,0.3-9.7-4.4c-0.1-6.7,2.5-14.1,5.5-20c0.5-0.9-0.5-1.8-1.2-1.6c-0.9-0.5-2.2-0.4-3.3-0.2c-1.1,0.1-2.5,0.2-3.4,0.9
		c-0.8,0.5-1.1,1.4-1.4,2.3c0,0.1,0,0.2,0,0.2c-1.6,3.4-2.9,5.7-3.9,9.4c-0.5,1.9-0.9,5-1.2,6.9c-0.5,3.2,0.5,19.9-3.4,21.3
		c-2.3,0.9-4.5,8.2-5.4,19.8c-0.6,7.5-2.8,45.3-3,51.8c-0.1,2.6,36-2.9,43.4-2.8c10.1,0.1,34.2,11.3,35.1,6.9
		C951.3,395.5,949.1,382.9,948.4,377.5z"/>
	<path class="st16" d="M949.5,404.7c1.8-9.2-0.4-21.8-1-27.1c-0.8-6.4-1.8-12.8-3-19.1c-1.3-6.6-1.5-8.4-3.1-14.9
		c-4.2-6-8.2-12.2-11.7-14.1c-0.3-0.1-0.7-0.2-1-0.4c-0.4,10.8-0.7,21.6-2.9,32.2c-1.9,9.1-5.9,17.5-10.1,25.7
		c5.8,4.7,8.5,13.6,11.4,20c5.1,11.3,9.1,23.1,12.6,35c1.3,4.5,2.4,9,3.3,13.6c2.1-13.6,3.8-26.1,4.6-32c0.9-7.1,1.1-13.2,0.8-18.5
		C949.4,404.9,949.5,404.8,949.5,404.7z"/>
	<path class="st17" d="M1262.8,576.6c-22.5,0.7-47.1,3.1-72.9,5.7c-45.7,4.5-92.9,9.3-130.2,3.9c-41.2-5.9-63.1-22.8-69-53.2
		c-10.9-56.1-30.7-98.3-59.1-125.2c-26.6-25.3-54.1-30.6-68.2-31.5c-2.2-0.1-4.6-0.2-7.2-0.3c-20.9-0.7-52.5-1.8-68.6-35.5
		c-11.1-27.7-25.4-45.2-42.4-51.9c-13.4-5.3-23.5-1.6-24-1.4l3.3,8.6c0.3-0.1,30.9-10.9,54.6,48.3l0.1,0.3
		c18.5,38.9,54.9,40.1,76.7,40.9c2.5,0.1,4.9,0.2,7,0.3c12.8,0.8,38,5.7,62.4,29c26.9,25.6,45.9,66.1,56.4,120.3
		c6.6,34.3,31.8,54.2,76.7,60.6c12.3,1.8,25.5,2.5,39.3,2.5c29.5,0,61.6-3.2,93.1-6.3c25.5-2.5,49.9-5,72-5.7V576.6z"/>
	<path class="st2" d="M910.6,389.8c0,0,4.7-2,5.4-1.9c0.2,0,2-0.4,3.1,2.7c0.4,1.1,0.6,2.5-0.2,3.4c-0.5,0.5-2.9,1.1-4.4,1.8
		c0,0.8-0.1,1.2-0.4,1.7c-0.8,1.4-1.5,2.1-3.4,3.2c-1.9,1.1-4.4,2.9-6.7,3c-2.2,0.1-2-1.2-2-1.2s-0.8,0.3-1.6-0.3
		c-0.7-0.6-0.7-1.6-0.7-1.6s-1.1-0.1-1.7-0.6c-0.6-0.6-0.5-1.6-0.5-1.6s-1.3,0.4-1.9-0.6c-0.6-1,0.9-2.8,1.4-3.2
		c0.5-0.4,1.5-1.2,1.5-1.2s-2.1-1.1-1.5-1.8c0.3-0.4,2.9-0.9,4.3-2.4c1.7-1.6,4.3-1.3,5.1-1C908.5,388.7,910.6,389.8,910.6,389.8z"
		/>
	<path class="st2" d="M476.8,338.2c0,0-5.1,0.8-5.6,1.2c-0.2,0.2-1.9,0.7-1.2,3.9c0.2,1.2,0.9,2.4,2,2.7c0.7,0.2,3-0.6,4.7-0.9
		c0.4,0.7,0.7,1,1.2,1.3c1.4,0.7,2.4,1,4.6,0.9s5.3,0.1,7.2-1c2-1.1,1-2.1,1-2.1s0.9-0.1,1.2-1.1s-0.3-1.7-0.3-1.7s0.9-0.7,1.1-1.5
		c0.2-0.8-0.4-1.6-0.4-1.6s1.3-0.3,1.3-1.5s-2.3-1.9-2.9-1.9c-0.7-0.1-1.9-0.2-1.9-0.2s1.1-2,0.3-2.3c-0.4-0.1-2.9,0.7-4.9,0.3
		c-2.3-0.5-4.3,1.2-4.9,1.8C478,336.1,476.8,338.2,476.8,338.2z"/>
	<path class="st6" d="M916.1,395l-2.9-5.1c-1-1.7-0.5-3.8,1-4.6c4-2,10.6-5.7,16.8-10.2c3.9-2.9,13.8-11.6,20-24.8
		c2.3-4.9,19.1,3.4,18.9,4.9c-1.6,11.7-15.3,26.5-23.7,30.5l-6.2,3c0,0-0.1,0-0.1,0c-7.6,3.7-15.5,6.8-20.1,8.1
		C918.5,397.2,916.9,396.5,916.1,395z"/>
	<g>
		<path class="st10" d="M721.1,298.5l17.4-2.4c1.8-0.2,3.2-2.7,3.2-5.6l0,0c0-2.8-1.4-5.3-3.2-5.6l-17.4-2.4c-4.1-0.6-7.9,3-7.9,7.9
			l0,0C713.2,295.6,717,299.1,721.1,298.5z"/>
		<path class="st14" d="M724.7,283.2l-3.5-0.5c-4.1-0.6-7.9,3-7.9,7.9c0,5,3.8,8.5,7.9,7.9l3.5-0.5V283.2z"/>
		<linearGradient id="SVGID_2_" gradientUnits="userSpaceOnUse" x1="668.6515" y1="290.6103" x2="719.5754" y2="290.6103">
			<stop  offset="0.1983" style="stop-color:#666666"/>
			<stop  offset="0.5698" style="stop-color:#CCCCCC"/>
		</linearGradient>
		<path class="st18" d="M678.6,312.5h31c5.5,0,9.9-4.5,9.9-9.9v-23.9c0-5.5-4.5-9.9-9.9-9.9h-31c-5.5,0-9.9,4.5-9.9,9.9v23.9
			C668.7,308,673.1,312.5,678.6,312.5z"/>
		<path class="st10" d="M659.9,317h22c2.8,0,5-2.3,5-5v-42.7c0-2.8-2.3-5-5-5h-22c-2.8,0-5,2.3-5,5V312
			C654.9,314.7,657.1,317,659.9,317z"/>
		<path class="st15" d="M681.9,264.2h-5.3V317h5.3c2.8,0,5-2.3,5-5v-42.7C687,266.5,684.7,264.2,681.9,264.2z"/>
		<path class="st12" d="M683.5,321.6h4.2c1.5,0,2.7-1.2,2.7-2.7v-56.8c0-1.5-1.2-2.7-2.7-2.7h-4.2c-1.5,0-2.7,1.2-2.7,2.7V319
			C680.9,320.4,682,321.6,683.5,321.6z"/>
		<g>
			<path class="st10" d="M710.2,279.7h-16.2c-0.5,0-0.9-0.4-0.9-0.9l0,0c0-0.5,0.4-0.9,0.9-0.9h16.2c0.5,0,0.9,0.4,0.9,0.9l0,0
				C711.2,279.3,710.8,279.7,710.2,279.7z"/>
			<path class="st10" d="M710.2,284.4h-16.2c-0.5,0-0.9-0.4-0.9-0.9l0,0c0-0.5,0.4-0.9,0.9-0.9h16.2c0.5,0,0.9,0.4,0.9,0.9l0,0
				C711.2,284,710.8,284.4,710.2,284.4z"/>
			<path class="st10" d="M710.2,289.2h-16.2c-0.5,0-0.9-0.4-0.9-0.9l0,0c0-0.5,0.4-0.9,0.9-0.9h16.2c0.5,0,0.9,0.4,0.9,0.9l0,0
				C711.2,288.8,710.8,289.2,710.2,289.2z"/>
			<path class="st10" d="M710.2,293.9h-16.2c-0.5,0-0.9-0.4-0.9-0.9l0,0c0-0.5,0.4-0.9,0.9-0.9h16.2c0.5,0,0.9,0.4,0.9,0.9l0,0
				C711.2,293.5,710.8,293.9,710.2,293.9z"/>
			<path class="st10" d="M710.2,298.6h-16.2c-0.5,0-0.9-0.4-0.9-0.9l0,0c0-0.5,0.4-0.9,0.9-0.9h16.2c0.5,0,0.9,0.4,0.9,0.9l0,0
				C711.2,298.2,710.8,298.6,710.2,298.6z"/>
			<path class="st10" d="M710.2,303.4h-16.2c-0.5,0-0.9-0.4-0.9-0.9l0,0c0-0.5,0.4-0.9,0.9-0.9h16.2c0.5,0,0.9,0.4,0.9,0.9l0,0
				C711.2,303,710.8,303.4,710.2,303.4z"/>
		</g>
	</g>
	<path class="st2" d="M780.2,340.8c0.6-0.6,1-1.4,0.9-2.2c-0.2-0.9-0.7-1.2-1.4-1.2c0.6-0.7,0.9-1.5,0.5-2.4c-0.4-1-1.1-1.2-2-1.1
		c0.2-0.4,0.3-0.8,0.2-1.2c-0.1-0.8-0.8-1.2-1.5-1.3c-2.5-0.5-4.5,1.8-5.5,3.8c-0.1,0.2,0,0.4,0.1,0.5c0,0.1,0.1,0.2,0.2,0.2
		c2.3,1.1,3.6,3.7,4.9,5.8c0.7,1.2,1,2.6,2.5,2.2C781.3,343.3,781.6,341.2,780.2,340.8z"/>
	<path class="st2" d="M495,325.8c1.5-0.6,0.9-1.9,0.8-3.2c-0.1-2.4-0.5-5.3,0.7-7.5c0.1-0.1,0.1-0.2,0-0.3c0.1-0.2,0-0.4-0.2-0.5
		c-1.9-1-4.9-1.8-6.6,0c-0.5,0.5-0.8,1.2-0.5,1.9c0.2,0.4,0.5,0.7,0.9,0.9c-0.7,0.4-1.2,1-1,2c0.2,1,1,1.5,1.8,1.7
		c-0.5,0.4-0.9,1-0.5,1.8c0.3,0.7,1.2,1.1,2,1.3C491.6,325,493.1,326.6,495,325.8z"/>
	<path class="st17" d="M407.7,344.7c-8-7.5-16.8-16.6-23.2-25.6c0,0-0.1-0.1-0.1-0.1l-5.2-7.1c-6.1-8.3,2.3-20.6,2.3-20.6
		c5.8-4.3,14.8-4.7,20.8,3.6l5.2,7.1c0,0,0.1,0.1,0.1,0.1c5.3,7.1,10.3,15.7,14.5,24C416.4,331.6,411.7,338,407.7,344.7z"/>
	<path class="st19" d="M418.3,339.5c1.4,0,2.8-0.1,4.2-0.1c-0.7-4.9-1.4-9.6-2.3-14.2c-17.5,2.5-35.3,2.3-52.5-1.1
		c-0.7,3.6-1.3,7.6-1.9,11.9C382.6,341.2,401,340.1,418.3,339.5z"/>
	<path class="st19" d="M404.1,365c7.3-0.8,14.5-2.8,21.2-5.6c-0.5-3.3-0.9-6.6-1.4-9.9c-1.5,0.1-3,0.1-4.5,0.2
		c-18,0.6-37.3,1.8-54.8-3.4c-0.4,3.9-0.6,7.9-0.7,12C376.5,364.1,390.1,366.6,404.1,365z"/>
	<path class="st20" d="M427.5,374c-2.7-16.5-4.6-34.4-7.5-50.2c-3-0.4-6-0.9-9-1.4c-8.5-1.3-17.1-3.5-25.7-4.3
		c6.7,19.2,16.1,38.7,31.7,51.3c3.4,2.8,7.1,5.1,10.9,7.2c-0.1-0.2-0.1-0.4-0.2-0.6C427.7,375.3,427.6,374.7,427.5,374z"/>
	<path class="st17" d="M474.1,340.1c-0.1-1-1-1.7-1.9-1.5c-8.2,1.6-28.6,2.8-32.5,3.8c-5.2,1.3-10.6-1.2-12.8-6.1
		c-4.9-10.9-11.8-24-19.4-34.2c0,0-0.1-0.1-0.1-0.1l-5.2-7.1c-3.7-3.6-10.7-4.3-16.6,0c0,0-9,12-6.5,17l5.2,7.1c0,0,0.1,0.1,0.1,0.1
		c11.8,16.4,31.5,33.6,39.8,39.6c3.6,6.5,18.2,4.6,30.4-1.3c0,0,17.9-9,19.8-10.7L474.1,340.1z"/>
	<path class="st1" d="M916.6,256.7c-0.7,0.7-1.3,1.5-1.9,2.5c-0.8,1.3-1.6,0.5-2.3,2c0.3,0.2,0.2,2.7,0.5,2.9c1.2,1,2.3,2.5,2.3,2.5
		c0.9-5.5,3.6-0.9,3.8,0.8c0.2,1.7-1.8,4.6-0.4,4.6c1.4,0,2.7-4.5,2.7-4.5c-0.3-7.3-1.8-7.1-3.6-9.7
		C917.6,257.5,917.1,257.1,916.6,256.7z"/>
	<path class="st1" d="M914.4,265.1c-0.4,0.2-2.2-4.6-2.6-4.6c0.3,0.9,1.7,7.3,2.1,8.6c0.6,2.1,1.9,2.3,2,2c0.1-0.5-0.3-1-0.4-1.5
		c-0.3-1-0.1-2.2-0.2-3.2c0-0.2-0.3-1.6-0.3-1.6C914.8,264.9,914.6,265,914.4,265.1z"/>
	<path class="st6" d="M896.6,261c0.6,0.3,1.1,0.6,1.8,0.8h28.5c0.4-5.1-2.7-10.9-6.7-13.5c-5.5-3.6-14.5-3.7-19.7-1.8
		C897.1,247.7,890.6,258.5,896.6,261z"/>
	<path class="st7" d="M895.9,261.8l16.3,0c-0.1-1.6-3.3-2.4-4.8-2.8c-6.9-1.9-13.9-3.8-20.8-5.8c-2.3-0.6-4.7-1.3-7-1.4
		c-0.5,0-1.1,0-1.5,0.3c-0.8,0.5-0.9,1.8-0.5,2.6c0.4,0.9,1.2,1.5,2,2c4.5,3,8.7,5.3,14,5.1C893.9,261.8,895.4,261.7,895.9,261.8z"
		/>
</g>
<g>
	<path class="st21" d="M584.6,21.4c0-8.3,4.6-13.3,11.1-13.3c6.5,0,11.1,5.1,11.1,13.3c0,8.3-4.6,13.5-11.1,13.5
		C589.1,34.9,584.6,29.7,584.6,21.4z M603.3,21.4c0-6.5-3-10.4-7.7-10.4c-4.6,0-7.7,4-7.7,10.4s3,10.6,7.7,10.6
		C600.3,32,603.3,27.9,603.3,21.4z"/>
	<path class="st21" d="M610.5,24.9c0-6.4,4.2-10.1,8.9-10.1c4.7,0,8.9,3.7,8.9,10.1c0,6.4-4.2,10-8.9,10
		C614.7,34.9,610.5,31.3,610.5,24.9z M625,24.9c0-4.4-2.2-7.4-5.5-7.4c-3.3,0-5.5,3-5.5,7.4c0,4.4,2.2,7.3,5.5,7.3
		C622.7,32.2,625,29.3,625,24.9z"/>
	<path class="st21" d="M633.4,15.3h2.7l0.3,2.2h0.1c1.7-1.4,3.9-2.7,6.1-2.7c5,0,7.6,3.8,7.6,9.8c0,6.5-3.9,10.4-8.3,10.4
		c-1.8,0-3.6-0.8-5.3-2.2l0.1,3.3v6.5h-3.2V15.3z M646.8,24.6c0-4.2-1.4-7.1-5.1-7.1c-1.6,0-3.3,0.9-5.1,2.6v10.1
		c1.7,1.5,3.4,2,4.7,2C644.5,32.2,646.8,29.3,646.8,24.6z"/>
	<path class="st21" d="M653.1,32.3l1.6-2.1c1.7,1.3,3.4,2.3,5.7,2.3c2.5,0,3.8-1.3,3.8-3c0-2-2.3-2.8-4.4-3.6
		c-2.7-1-5.7-2.3-5.7-5.5c0-3.1,2.5-5.4,6.6-5.4c2.4,0,4.5,1,6,2.2L665,19c-1.3-1-2.7-1.7-4.4-1.7c-2.4,0-3.5,1.3-3.5,2.8
		c0,1.8,2.1,2.5,4.3,3.3c2.8,1,5.9,2.2,5.9,5.8c0,3.1-2.5,5.7-7,5.7C657.5,34.9,654.9,33.8,653.1,32.3z"/>
	<path class="st21" d="M671.1,32.5c0-1.5,1.1-2.5,2.4-2.5c1.3,0,2.4,1,2.4,2.5c0,1.4-1.1,2.5-2.4,2.5
		C672.1,34.9,671.1,33.9,671.1,32.5z"/>
	<path class="st21" d="M680.9,32.5c0-1.5,1.1-2.5,2.4-2.5c1.3,0,2.3,1,2.3,2.5c0,1.4-1.1,2.5-2.3,2.5
		C682,34.9,680.9,33.9,680.9,32.5z"/>
	<path class="st21" d="M690.7,32.5c0-1.5,1.1-2.5,2.4-2.5c1.3,0,2.4,1,2.4,2.5c0,1.4-1.1,2.5-2.4,2.5
		C691.8,34.9,690.7,33.9,690.7,32.5z"/>
</g>
<g>
	<g>
		<path class="st22" d="M407.4,88.7V62.1h2.5l16,24.3V62.1h1.8v26.5h-2.5l-16-24v24H407.4z"/>
		<path class="st22" d="M433.8,87.8c-1.3-1.1-2-2.4-2-3.8c0-1.4,0.7-2.7,2-3.8c1.3-1.1,2.9-1.7,4.8-1.9c1.9-0.2,3.4-0.5,4.6-0.9
			c1.2-0.4,1.8-0.9,1.8-1.5v-1.7c0-1-0.5-1.8-1.6-2.5c-1-0.7-2.3-1-3.8-1c-1.4,0-2.7,0.3-3.7,1c-1,0.7-1.5,1.5-1.5,2.4v1h-1.7v-1.2
			c0-1.3,0.7-2.4,2-3.3c1.4-0.9,3-1.3,4.9-1.3c2,0,3.7,0.4,5.1,1.3c1.4,0.9,2.1,1.9,2.1,3.1v11.5c0,0.7,0.2,1.4,0.5,1.9
			c0.3,0.5,0.7,0.8,1.2,0.8c0.1,0,0.3,0,0.4,0c0.1,0,0.2-0.1,0.3-0.1v0.8c-0.4,0.2-1,0.3-1.7,0.3c-0.7,0-1.3-0.3-1.8-0.9
			c-0.5-0.6-0.7-1.3-0.7-2.1c-0.4,1-1.1,1.8-2.3,2.5c-1.2,0.6-2.5,0.9-4,0.9C436.7,89.3,435.1,88.8,433.8,87.8z M442.8,86.4
			c1.2-1,2-2.3,2.2-3.9v-4.4c-0.4,0.4-1.2,0.7-2.3,0.9c-1,0.2-2.4,0.4-4.2,0.6c-1.4,0.1-2.6,0.6-3.5,1.4c-1,0.8-1.4,1.8-1.4,2.9
			c0,1.1,0.5,2.1,1.5,2.9c1,0.8,2.1,1.2,3.5,1.2C440.2,88,441.6,87.5,442.8,86.4z M434.6,66.5c0.3-0.7,0.8-1.3,1.4-1.7
			c0.6-0.4,1.2-0.6,1.8-0.6c0.6,0,1.3,0.3,2.3,1c0.9,0.7,1.7,1,2.2,1c0.5,0,0.9-0.1,1.4-0.4c0.4-0.2,0.8-0.6,1-1l1,1
			c-0.4,0.6-0.8,1.1-1.4,1.5c-0.6,0.4-1.2,0.5-1.9,0.5c-0.6,0-1.3-0.3-2.3-1c-1-0.7-1.7-1-2.3-1c-0.4,0-0.8,0.1-1.2,0.4
			c-0.4,0.3-0.7,0.7-0.9,1.2L434.6,66.5z"/>
		<path class="st22" d="M453.8,86.3c-1.6-1.8-2.5-4.2-2.5-7.2c0-3.1,0.8-5.5,2.5-7.4c1.6-1.8,3.8-2.8,6.5-2.8c2.7,0,4.8,0.9,6.5,2.8
			c1.6,1.9,2.4,4.4,2.4,7.4c0,3-0.8,5.4-2.4,7.2c-1.6,1.8-3.8,2.7-6.5,2.7C457.6,89,455.4,88.1,453.8,86.3z M465.5,85.2
			c1.3-1.5,1.9-3.5,1.9-6.1c0-2.6-0.6-4.7-1.9-6.3c-1.3-1.6-3-2.4-5.2-2.4c-2.2,0-3.9,0.8-5.2,2.4c-1.3,1.6-2,3.6-2,6.3
			c0,2.5,0.7,4.6,2,6.1c1.3,1.5,3,2.3,5.2,2.3C462.4,87.5,464.1,86.7,465.5,85.2z"/>
		<path class="st22" d="M488.4,88.7V71.5h-3v-1.7h3v-3.6c0-1.1,0.4-2.1,1.2-2.9c0.8-0.8,1.8-1.2,2.9-1.2h1.1v1.4h-1
			c-0.7,0-1.2,0.3-1.7,0.8c-0.5,0.5-0.7,1.1-0.7,1.9v3.6h3.4v1.7h-3.4v17.1H488.4z"/>
		<path class="st22" d="M498,86.3c-1.6-1.8-2.5-4.2-2.5-7.2c0-3.1,0.8-5.5,2.5-7.4c1.6-1.8,3.8-2.8,6.5-2.8c2.7,0,4.8,0.9,6.5,2.8
			c1.6,1.9,2.4,4.4,2.4,7.4c0,3-0.8,5.4-2.4,7.2c-1.6,1.8-3.8,2.7-6.5,2.7C501.7,89,499.6,88.1,498,86.3z M509.6,85.2
			c1.3-1.5,1.9-3.5,1.9-6.1c0-2.6-0.6-4.7-1.9-6.3c-1.3-1.6-3-2.4-5.2-2.4c-2.2,0-3.9,0.8-5.2,2.4c-1.3,1.6-2,3.6-2,6.3
			c0,2.5,0.7,4.6,2,6.1c1.3,1.5,3,2.3,5.2,2.3C506.6,87.5,508.3,86.7,509.6,85.2z"/>
		<path class="st22" d="M517.9,62.1h1.8v2.7h-1.8V62.1z M517.9,88.7V69.6h1.8v19.1H517.9z"/>
		<path class="st22" d="M539.7,95.8V69.6h1.8v3.9c0.5-1.4,1.4-2.5,2.5-3.4c1.2-0.8,2.5-1.3,3.9-1.3c2.6,0,4.6,0.9,6.1,2.8
			c1.5,1.9,2.3,4.4,2.3,7.4c0,3-0.7,5.4-2.2,7.2c-1.5,1.8-3.4,2.7-5.9,2.7c-1.5,0-2.8-0.4-4-1.2c-1.2-0.8-2.1-1.8-2.8-3.2v11.2
			H539.7z M552.8,85.3c1.2-1.6,1.8-3.7,1.8-6.4c0-2.6-0.6-4.7-1.8-6.3c-1.2-1.6-2.7-2.4-4.7-2.4c-1.8,0-3.4,0.8-4.7,2.5
			c-1.3,1.7-2,3.7-2,6.1c0,2.4,0.7,4.5,2,6.2c1.3,1.7,2.8,2.5,4.7,2.5C550.1,87.7,551.7,86.9,552.8,85.3z"/>
		<path class="st22" d="M562.2,86.3c-1.6-1.8-2.5-4.2-2.5-7.2c0-3.1,0.8-5.5,2.5-7.4c1.6-1.8,3.8-2.8,6.5-2.8c2.7,0,4.8,0.9,6.5,2.8
			c1.6,1.9,2.4,4.4,2.4,7.4c0,3-0.8,5.4-2.4,7.2c-1.6,1.8-3.8,2.7-6.5,2.7C566,89,563.8,88.1,562.2,86.3z M573.9,85.2
			c1.3-1.5,1.9-3.5,1.9-6.1c0-2.6-0.6-4.7-1.9-6.3c-1.3-1.6-3-2.4-5.2-2.4c-2.2,0-3.9,0.8-5.2,2.4c-1.3,1.6-2,3.6-2,6.3
			c0,2.5,0.7,4.6,2,6.1c1.3,1.5,3,2.3,5.2,2.3C570.9,87.5,572.6,86.7,573.9,85.2z"/>
		<path class="st22" d="M582.7,87.4c-1.4-1.2-2.1-2.6-2.1-4.3h1.7c0,1.3,0.6,2.4,1.7,3.3c1.1,0.9,2.4,1.3,4,1.3
			c1.8,0,3.2-0.4,4.3-1.2c1.1-0.8,1.6-1.9,1.6-3.3c0-1-0.6-1.9-1.7-2.6c-1.1-0.7-2.7-1.1-4.6-1.3c-2-0.2-3.6-0.7-4.8-1.7
			c-1.2-1-1.8-2.1-1.8-3.5c0-1.6,0.6-2.8,1.8-3.7c1.2-0.9,2.9-1.3,5.1-1.3c2.1,0,3.8,0.5,5.1,1.4c1.3,0.9,1.9,2.2,1.9,3.7h-1.7
			c-0.2-1.2-0.8-2.1-1.7-2.7c-0.9-0.7-2.1-1-3.6-1c-1.6,0-2.9,0.3-3.8,1c-1,0.7-1.4,1.5-1.4,2.6c0,1,0.6,1.9,1.7,2.6
			c1.1,0.7,2.7,1.1,4.6,1.3c2,0.2,3.6,0.8,4.8,1.8c1.2,1,1.8,2.3,1.8,3.8c0,1.7-0.7,3.1-2.1,4.1c-1.4,1-3.2,1.5-5.5,1.5
			C585.8,89.2,584.1,88.6,582.7,87.4z"/>
		<path class="st22" d="M600.2,87.4c-1.4-1.2-2.1-2.6-2.1-4.3h1.7c0,1.3,0.6,2.4,1.7,3.3c1.1,0.9,2.4,1.3,4,1.3
			c1.8,0,3.2-0.4,4.3-1.2c1.1-0.8,1.6-1.9,1.6-3.3c0-1-0.6-1.9-1.7-2.6c-1.1-0.7-2.7-1.1-4.6-1.3c-2-0.2-3.6-0.7-4.8-1.7
			c-1.2-1-1.8-2.1-1.8-3.5c0-1.6,0.6-2.8,1.8-3.7c1.2-0.9,2.9-1.3,5.1-1.3c2.1,0,3.8,0.5,5.1,1.4c1.3,0.9,1.9,2.2,1.9,3.7h-1.7
			c-0.2-1.2-0.8-2.1-1.7-2.7c-0.9-0.7-2.1-1-3.6-1c-1.6,0-2.9,0.3-3.8,1c-1,0.7-1.4,1.5-1.4,2.6c0,1,0.6,1.9,1.7,2.6
			c1.1,0.7,2.7,1.1,4.6,1.3c2,0.2,3.6,0.8,4.8,1.8c1.2,1,1.8,2.3,1.8,3.8c0,1.7-0.7,3.1-2.1,4.1c-1.4,1-3.2,1.5-5.5,1.5
			C603.4,89.2,601.6,88.6,600.2,87.4z"/>
		<path class="st22" d="M617.2,88.7V69.6h1.8v19.1H617.2z M619.1,60.8h2.7l-3,6.8h-1.3L619.1,60.8z"/>
		<path class="st22" d="M629.5,88.7l-7.1-19.1h1.7l6.5,17l6.1-17h1.7l-7,19.1H629.5z"/>
		<path class="st22" d="M643,86.6c-1.6-1.9-2.3-4.4-2.3-7.4c0-3.1,0.8-5.5,2.3-7.4c1.5-1.8,3.6-2.8,6.2-2.8c2.6,0,4.6,0.8,6.2,2.5
			c1.5,1.7,2.3,4,2.3,6.8v0.8h-15.2c0,2.6,0.6,4.7,1.8,6.2s2.8,2.3,4.9,2.3c1.5,0,2.9-0.4,4.1-1.2c1.3-0.8,2.1-1.9,2.6-3.3h1.8
			c-0.3,1.8-1.3,3.2-2.9,4.4s-3.5,1.7-5.6,1.7C646.6,89.3,644.5,88.4,643,86.6z M655.9,77.4v-0.7c-0.1-1.8-0.9-3.2-2.1-4.5
			c-1.3-1.2-2.8-1.8-4.6-1.8c-1.7,0-3.2,0.6-4.5,1.8c-1.3,1.3-2,2.8-2.2,4.6v0.5H655.9z"/>
		<path class="st22" d="M661.9,88.7V62.1h1.8v26.5H661.9z"/>
		<path class="st22" d="M685,86.5c-1.8-2-2.6-4.5-2.6-7.3c0-2.8,0.9-5.2,2.6-7.2c1.8-2,3.9-3,6.4-3c2.1,0,3.8,0.6,5.3,1.8
			c1.5,1.3,2.2,2.7,2.2,4.5h-1.8c0-1.3-0.6-2.3-1.7-3.2c-1.1-0.9-2.4-1.3-4-1.3c-2,0-3.7,0.8-5.1,2.5c-1.4,1.7-2.1,3.7-2.1,6
			c0,2.4,0.7,4.4,2.1,6.1c1.4,1.7,3.1,2.5,5.1,2.5c1.5,0,2.9-0.5,3.9-1.4c1.1-0.9,1.7-2,1.7-3.3h1.9c0,1.8-0.7,3.3-2.2,4.5
			c-1.5,1.3-3.2,1.9-5.3,1.9C688.9,89.5,686.8,88.5,685,86.5z"/>
		<path class="st22" d="M704,86.3c-1.6-1.8-2.5-4.2-2.5-7.2c0-3.1,0.8-5.5,2.5-7.4c1.6-1.8,3.8-2.8,6.5-2.8c2.7,0,4.8,0.9,6.5,2.8
			c1.6,1.9,2.4,4.4,2.4,7.4c0,3-0.8,5.4-2.4,7.2c-1.6,1.8-3.8,2.7-6.5,2.7C707.8,89,705.6,88.1,704,86.3z M715.7,85.2
			c1.3-1.5,1.9-3.5,1.9-6.1c0-2.6-0.6-4.7-1.9-6.3c-1.3-1.6-3-2.4-5.2-2.4c-2.2,0-3.9,0.8-5.2,2.4c-1.3,1.6-2,3.6-2,6.3
			c0,2.5,0.7,4.6,2,6.1c1.3,1.5,3,2.3,5.2,2.3C712.7,87.5,714.4,86.7,715.7,85.2z"/>
		<path class="st22" d="M723.9,88.7V69.6h1.8v3.2c0.5-1.1,1.3-2,2.3-2.7c1-0.7,2-1,3.2-1c1.3,0,2.5,0.4,3.5,1.1c1,0.7,1.7,1.7,2,2.8
			c0.6-1.2,1.4-2.1,2.5-2.8c1.2-0.7,2.4-1.1,3.8-1.1c1.7,0,3.2,0.6,4.4,1.7c1.2,1.2,1.8,2.6,1.8,4.2v13.6h-1.8V75.1
			c0-1.3-0.4-2.3-1.3-3.2c-0.8-0.9-1.9-1.3-3.1-1.3c-1.4,0-2.7,0.5-3.8,1.5c-1.1,1-1.8,2.2-2.1,3.8v12.9h-1.8V75.1
			c0-1.3-0.4-2.3-1.2-3.2s-1.8-1.3-2.9-1.3c-1.3,0-2.5,0.5-3.6,1.6c-1,1.1-1.7,2.4-2,4v12.6H723.9z"/>
		<path class="st22" d="M754.7,95.8V69.6h1.8v3.9c0.5-1.4,1.4-2.5,2.5-3.4c1.2-0.8,2.5-1.3,3.9-1.3c2.6,0,4.6,0.9,6.1,2.8
			c1.5,1.9,2.3,4.4,2.3,7.4c0,3-0.7,5.4-2.2,7.2c-1.5,1.8-3.4,2.7-5.9,2.7c-1.5,0-2.8-0.4-4-1.2c-1.2-0.8-2.1-1.8-2.8-3.2v11.2
			H754.7z M767.9,85.3c1.2-1.6,1.8-3.7,1.8-6.4c0-2.6-0.6-4.7-1.8-6.3c-1.2-1.6-2.7-2.4-4.7-2.4c-1.8,0-3.4,0.8-4.7,2.5
			c-1.3,1.7-2,3.7-2,6.1c0,2.4,0.7,4.5,2,6.2c1.3,1.7,2.8,2.5,4.7,2.5C765.1,87.7,766.7,86.9,767.9,85.3z"/>
		<path class="st22" d="M776,88.7V62.1h1.8v26.5H776z"/>
		<path class="st22" d="M784.7,86.6c-1.5-1.9-2.3-4.4-2.3-7.4c0-3.1,0.8-5.5,2.3-7.4c1.5-1.8,3.6-2.8,6.2-2.8c2.6,0,4.6,0.8,6.2,2.5
			c1.5,1.7,2.3,4,2.3,6.8v0.8h-15.2c0,2.6,0.6,4.7,1.8,6.2s2.8,2.3,4.9,2.3c1.5,0,2.9-0.4,4.1-1.2c1.3-0.8,2.1-1.9,2.6-3.3h1.8
			c-0.3,1.8-1.3,3.2-2.9,4.4s-3.5,1.7-5.6,1.7C788.3,89.3,786.2,88.4,784.7,86.6z M797.5,77.4v-0.7c-0.1-1.8-0.9-3.2-2.1-4.5
			c-1.3-1.2-2.8-1.8-4.6-1.8c-1.7,0-3.2,0.6-4.5,1.8c-1.3,1.3-2,2.8-2.2,4.6v0.5H797.5z"/>
		<path class="st22" d="M804.7,88.1c-0.7-0.8-1-1.7-1-2.9V71H801v-1.4h2.7v-5.4h1.8v5.4h2.6V71h-2.6v14.3c0,0.7,0.2,1.4,0.6,1.9
			c0.4,0.5,0.8,0.8,1.3,0.8c0.6,0,1-0.1,1.4-0.3V89c-0.7,0.2-1.2,0.4-1.5,0.4C806.3,89.3,805.5,88.9,804.7,88.1z"/>
		<path class="st22" d="M812.4,87.8c-1.3-1.1-2-2.4-2-3.8c0-1.4,0.7-2.7,2-3.8c1.3-1.1,2.9-1.7,4.8-1.9c1.9-0.2,3.4-0.5,4.6-0.9
			c1.2-0.4,1.8-0.9,1.8-1.5v-1.7c0-1-0.5-1.8-1.6-2.5c-1-0.7-2.3-1-3.8-1c-1.4,0-2.7,0.3-3.7,1c-1,0.7-1.5,1.5-1.5,2.4v1h-1.7v-1.2
			c0-1.3,0.7-2.4,2-3.3c1.4-0.9,3-1.3,4.9-1.3c2,0,3.7,0.4,5.1,1.3c1.4,0.9,2.1,1.9,2.1,3.1v11.5c0,0.7,0.2,1.4,0.5,1.9
			c0.3,0.5,0.7,0.8,1.2,0.8c0.1,0,0.3,0,0.4,0s0.2-0.1,0.3-0.1v0.8c-0.4,0.2-1,0.3-1.7,0.3c-0.7,0-1.3-0.3-1.8-0.9
			c-0.5-0.6-0.7-1.3-0.7-2.1c-0.4,1-1.1,1.8-2.3,2.5c-1.2,0.6-2.5,0.9-4,0.9C815.3,89.3,813.8,88.8,812.4,87.8z M821.4,86.4
			c1.2-1,2-2.3,2.2-3.9v-4.4c-0.4,0.4-1.2,0.7-2.3,0.9c-1,0.2-2.4,0.4-4.2,0.6c-1.4,0.1-2.6,0.6-3.5,1.4c-1,0.8-1.4,1.8-1.4,2.9
			c0,1.1,0.5,2.1,1.5,2.9c1,0.8,2.1,1.2,3.5,1.2C818.8,88,820.2,87.5,821.4,86.4z"/>
		<path class="st22" d="M831.2,88.7V69.6h1.8v4.3c0.5-1.4,1.3-2.5,2.2-3.4c1-0.8,2.1-1.3,3.2-1.3h1v2.1c-0.1,0-0.2,0-0.3-0.1
			c-0.1-0.1-0.1-0.1-0.2-0.1c-1.4,0-2.7,0.6-3.8,1.8c-1.1,1.2-1.9,2.7-2.2,4.5v11.2H831.2z"/>
		<path class="st22" d="M857.3,87.8c-1.3-1.1-2-2.4-2-3.8c0-1.4,0.7-2.7,2-3.8c1.3-1.1,2.9-1.7,4.8-1.9c1.9-0.2,3.4-0.5,4.6-0.9
			c1.2-0.4,1.8-0.9,1.8-1.5v-1.7c0-1-0.5-1.8-1.6-2.5c-1-0.7-2.3-1-3.8-1c-1.4,0-2.7,0.3-3.7,1c-1,0.7-1.5,1.5-1.5,2.4v1h-1.7v-1.2
			c0-1.3,0.7-2.4,2-3.3c1.4-0.9,3-1.3,4.9-1.3c2,0,3.7,0.4,5.1,1.3c1.4,0.9,2.1,1.9,2.1,3.1v11.5c0,0.7,0.2,1.4,0.5,1.9
			c0.3,0.5,0.7,0.8,1.2,0.8c0.1,0,0.3,0,0.4,0s0.2-0.1,0.3-0.1v0.8c-0.4,0.2-1,0.3-1.7,0.3c-0.7,0-1.3-0.3-1.8-0.9
			c-0.5-0.6-0.7-1.3-0.7-2.1c-0.4,1-1.1,1.8-2.3,2.5c-1.2,0.6-2.5,0.9-4,0.9C860.2,89.3,858.6,88.8,857.3,87.8z M866.3,86.4
			c1.2-1,2-2.3,2.2-3.9v-4.4c-0.4,0.4-1.2,0.7-2.3,0.9c-1,0.2-2.4,0.4-4.2,0.6c-1.4,0.1-2.6,0.6-3.5,1.4c-1,0.8-1.4,1.8-1.4,2.9
			c0,1.1,0.5,2.1,1.5,2.9c1,0.8,2.1,1.2,3.5,1.2C863.7,88,865.1,87.5,866.3,86.4z"/>
		<path class="st22" d="M365.6,131.9v-19.1h1.8v4.3c0.5-1.4,1.3-2.5,2.2-3.4c1-0.8,2.1-1.3,3.2-1.3h1v2.1c-0.1,0-0.2,0-0.3-0.1
			c-0.1-0.1-0.1-0.1-0.2-0.1c-1.4,0-2.7,0.6-3.8,1.8c-1.1,1.2-1.9,2.7-2.2,4.5v11.2H365.6z"/>
		<path class="st22" d="M378.2,129.8c-1.6-1.9-2.3-4.4-2.3-7.4c0-3.1,0.8-5.5,2.3-7.4c1.5-1.8,3.6-2.8,6.2-2.8
			c2.6,0,4.6,0.8,6.2,2.5c1.5,1.7,2.3,4,2.3,6.8v0.8h-15.2c0,2.6,0.6,4.7,1.8,6.2c1.2,1.6,2.8,2.3,4.9,2.3c1.5,0,2.9-0.4,4.1-1.2
			c1.3-0.8,2.1-1.9,2.6-3.3h1.8c-0.3,1.8-1.3,3.2-2.9,4.4s-3.5,1.7-5.6,1.7C381.8,132.5,379.7,131.6,378.2,129.8z M391.1,120.6V120
			c-0.1-1.8-0.9-3.2-2.1-4.5c-1.3-1.2-2.8-1.8-4.6-1.8c-1.7,0-3.2,0.6-4.5,1.8c-1.3,1.3-2,2.8-2.2,4.6v0.5H391.1z"/>
		<path class="st22" d="M410.7,139v-11.2c-0.5,1.4-1.4,2.5-2.5,3.4c-1.2,0.9-2.5,1.3-3.9,1.3c-2.5,0-4.6-1-6.1-2.9
			c-1.5-1.9-2.3-4.5-2.3-7.6c0-3,0.8-5.4,2.3-7.2c1.5-1.8,3.5-2.7,6.1-2.7c1.4,0,2.6,0.4,3.8,1.2c1.2,0.8,2.1,1.8,2.7,3.1v-3.6h1.8
			V139H410.7z M408.9,128.4c1.3-1.8,1.9-3.9,1.9-6.4c0-2.3-0.6-4.3-1.9-5.9c-1.3-1.6-2.8-2.4-4.6-2.4c-2,0-3.6,0.8-4.8,2.3
			s-1.8,3.5-1.8,6c0,2.7,0.6,4.9,1.8,6.5s2.8,2.5,4.8,2.5C406,131,407.6,130.1,408.9,128.4z"/>
		<path class="st22" d="M419.9,130.6c-1.3-1.2-1.9-2.6-1.9-4.2v-13.6h1.8v13.6c0,1.2,0.5,2.3,1.4,3.2c0.9,0.9,2,1.3,3.4,1.3
			c1.5,0,2.9-0.6,4.2-1.8c1.2-1.2,2-2.7,2.3-4.5v-11.8h1.8v19.1H431v-3.4c-0.5,1.2-1.4,2.1-2.6,2.8c-1.2,0.7-2.5,1-3.9,1
			C422.7,132.4,421.2,131.8,419.9,130.6z"/>
		<path class="st22" d="M438.5,105.3h1.8v2.7h-1.8V105.3z M438.5,131.9v-19.1h1.8v19.1H438.5z"/>
		<path class="st22" d="M446.6,130.6c-1.4-1.2-2.1-2.6-2.1-4.3h1.7c0,1.3,0.6,2.4,1.7,3.3c1.1,0.9,2.4,1.3,4,1.3
			c1.8,0,3.2-0.4,4.3-1.2c1.1-0.8,1.6-1.9,1.6-3.3c0-1-0.6-1.9-1.7-2.6c-1.1-0.7-2.7-1.1-4.6-1.3c-2-0.2-3.6-0.7-4.8-1.7
			c-1.2-1-1.8-2.1-1.8-3.5c0-1.6,0.6-2.8,1.8-3.7c1.2-0.9,2.9-1.3,5.1-1.3c2.1,0,3.8,0.5,5.1,1.4c1.3,0.9,1.9,2.2,1.9,3.7H457
			c-0.2-1.2-0.8-2.1-1.7-2.7c-0.9-0.7-2.1-1-3.6-1c-1.6,0-2.9,0.3-3.8,1c-1,0.7-1.4,1.5-1.4,2.6c0,1,0.6,1.9,1.7,2.6
			c1.1,0.7,2.7,1.1,4.6,1.3c2,0.2,3.6,0.8,4.8,1.8c1.2,1,1.8,2.3,1.8,3.8c0,1.7-0.7,3.1-2.1,4.1c-1.4,1-3.2,1.5-5.5,1.5
			C449.7,132.4,448,131.8,446.6,130.6z"/>
		<path class="st22" d="M463.6,105.3h1.8v2.7h-1.8V105.3z M463.6,131.9v-19.1h1.8v19.1H463.6z"/>
		<path class="st22" d="M471.9,129.1c-1.4-1.9-2.1-4.2-2.1-6.8c0-2.8,0.8-5.2,2.5-7.2c1.7-2,3.7-3,6.1-3c2,0,3.7,0.6,5.1,1.8
			c1.4,1.2,2.1,2.6,2.1,4.3H484c-0.1-1.3-0.7-2.5-1.7-3.4c-1.1-0.9-2.3-1.4-3.8-1.4c-1.9,0-3.5,0.9-4.9,2.6c-1.3,1.7-2,3.8-2,6.2
			c0,2.4,0.7,4.5,2,6.3c1.3,1.7,3,2.6,4.9,2.6c1.5,0,2.8-0.6,3.8-1.7c1-1.1,1.6-2.5,1.6-4.1h1.9c-0.2,2-0.9,3.7-2.3,5.1
			c-1.4,1.4-3,2.1-4.8,2.2l-0.4,0.9c0.8,0.2,1.4,0.6,1.9,1.2c0.5,0.5,0.8,1.1,0.8,1.8c0,0.8-0.4,1.5-1.1,2.1
			c-0.7,0.6-1.6,0.8-2.6,0.8c-0.7,0-1.4-0.1-1.9-0.2c-0.6-0.2-1-0.4-1.3-0.7v-1.7c0.4,0.4,0.9,0.7,1.5,0.9c0.5,0.2,1.1,0.3,1.7,0.3
			c0.6,0,1.1-0.1,1.5-0.4c0.4-0.3,0.6-0.6,0.6-1c0-0.5-0.3-0.9-0.9-1.3c-0.6-0.4-1.3-0.6-2.2-0.7l1-2
			C475.1,132.2,473.3,131.1,471.9,129.1z"/>
		<path class="st22" d="M490.2,131c-1.3-1.1-2-2.4-2-3.8c0-1.4,0.7-2.7,2-3.8c1.3-1.1,2.9-1.7,4.8-1.9c1.9-0.2,3.4-0.5,4.6-0.9
			c1.2-0.4,1.8-0.9,1.8-1.5v-1.7c0-1-0.5-1.8-1.6-2.5c-1-0.7-2.3-1-3.8-1c-1.4,0-2.7,0.3-3.7,1c-1,0.7-1.5,1.5-1.5,2.4v1H489v-1.2
			c0-1.3,0.7-2.4,2-3.3c1.4-0.9,3-1.3,4.9-1.3c2,0,3.7,0.4,5.1,1.3c1.4,0.9,2.1,1.9,2.1,3.1v11.5c0,0.7,0.2,1.4,0.5,1.9
			c0.3,0.5,0.7,0.8,1.2,0.8c0.1,0,0.3,0,0.4,0c0.1,0,0.2-0.1,0.3-0.1v0.8c-0.4,0.2-1,0.3-1.7,0.3c-0.7,0-1.3-0.3-1.8-0.9
			c-0.5-0.6-0.7-1.3-0.7-2.1c-0.4,1-1.1,1.8-2.3,2.5c-1.2,0.6-2.5,0.9-4,0.9C493.1,132.5,491.5,132,490.2,131z M499.2,129.6
			c1.2-1,2-2.3,2.2-3.9v-4.4c-0.4,0.4-1.2,0.7-2.3,0.9c-1,0.2-2.4,0.4-4.2,0.6c-1.4,0.1-2.6,0.6-3.5,1.4c-1,0.8-1.4,1.8-1.4,2.9
			c0,1.1,0.5,2.1,1.5,2.9c1,0.8,2.1,1.2,3.5,1.2C496.5,131.2,497.9,130.7,499.2,129.6z M491,109.7c0.3-0.7,0.8-1.3,1.4-1.7
			c0.6-0.4,1.2-0.6,1.8-0.6c0.6,0,1.3,0.3,2.3,1c0.9,0.7,1.7,1,2.2,1c0.5,0,0.9-0.1,1.4-0.4c0.4-0.2,0.8-0.6,1-1l1,1
			c-0.4,0.6-0.8,1.1-1.4,1.5c-0.6,0.4-1.2,0.5-1.9,0.5c-0.6,0-1.3-0.3-2.3-1c-1-0.7-1.7-1-2.3-1c-0.4,0-0.8,0.1-1.2,0.4
			c-0.4,0.3-0.7,0.7-0.9,1.2L491,109.7z"/>
		<path class="st22" d="M510.2,129.5c-1.6-1.8-2.5-4.2-2.5-7.2c0-3.1,0.8-5.5,2.5-7.4c1.6-1.8,3.8-2.8,6.5-2.8
			c2.7,0,4.8,0.9,6.5,2.8c1.6,1.9,2.4,4.4,2.4,7.4c0,3-0.8,5.4-2.4,7.2c-1.6,1.8-3.8,2.7-6.5,2.7
			C513.9,132.2,511.8,131.3,510.2,129.5z M521.8,128.4c1.3-1.5,1.9-3.5,1.9-6.1c0-2.6-0.6-4.7-1.9-6.3c-1.3-1.6-3-2.4-5.2-2.4
			c-2.2,0-3.9,0.8-5.2,2.4c-1.3,1.6-2,3.6-2,6.3c0,2.5,0.7,4.6,2,6.1c1.3,1.5,3,2.3,5.2,2.3C518.8,130.7,520.5,129.9,521.8,128.4z"
			/>
		<path class="st22" d="M530.2,136.1c0.3,0,0.6-0.2,0.8-0.6c0.2-0.4,0.4-0.9,0.4-1.5v-2.1h-1.3v-2.7h2.6v4.8c0,0.8-0.2,1.5-0.6,2.1
			c-0.4,0.6-0.9,0.9-1.5,0.9L530.2,136.1z"/>
		<path class="st22" d="M552.7,139v-26.2h1.8v3.9c0.5-1.4,1.4-2.5,2.5-3.4c1.2-0.8,2.5-1.3,3.9-1.3c2.6,0,4.6,0.9,6.1,2.8
			c1.5,1.9,2.3,4.4,2.3,7.4c0,3-0.7,5.4-2.2,7.2c-1.5,1.8-3.4,2.7-5.9,2.7c-1.5,0-2.8-0.4-4-1.2c-1.2-0.8-2.1-1.8-2.8-3.2V139H552.7
			z M565.8,128.5c1.2-1.6,1.8-3.7,1.8-6.4c0-2.6-0.6-4.7-1.8-6.3c-1.2-1.6-2.7-2.4-4.7-2.4c-1.8,0-3.4,0.8-4.7,2.5
			c-1.3,1.7-2,3.7-2,6.1c0,2.4,0.7,4.5,2,6.2c1.3,1.7,2.8,2.5,4.7,2.5C563.1,130.9,564.7,130.1,565.8,128.5z"/>
		<path class="st22" d="M575.2,129.5c-1.6-1.8-2.5-4.2-2.5-7.2c0-3.1,0.8-5.5,2.5-7.4c1.6-1.8,3.8-2.8,6.5-2.8
			c2.7,0,4.8,0.9,6.5,2.8c1.6,1.9,2.4,4.4,2.4,7.4c0,3-0.8,5.4-2.4,7.2c-1.6,1.8-3.8,2.7-6.5,2.7C579,132.2,576.8,131.3,575.2,129.5
			z M586.9,128.4c1.3-1.5,1.9-3.5,1.9-6.1c0-2.6-0.6-4.7-1.9-6.3c-1.3-1.6-3-2.4-5.2-2.4c-2.2,0-3.9,0.8-5.2,2.4
			c-1.3,1.6-2,3.6-2,6.3c0,2.5,0.7,4.6,2,6.1c1.3,1.5,3,2.3,5.2,2.3C583.9,130.7,585.6,129.9,586.9,128.4z"/>
		<path class="st22" d="M595.1,131.9v-19.1h1.8v4.3c0.5-1.4,1.3-2.5,2.2-3.4c1-0.8,2.1-1.3,3.2-1.3h1v2.1c-0.1,0-0.2,0-0.3-0.1
			c-0.1-0.1-0.1-0.1-0.2-0.1c-1.4,0-2.7,0.6-3.8,1.8c-1.1,1.2-1.9,2.7-2.2,4.5v11.2H595.1z"/>
		<path class="st22" d="M621.2,131.9v-17.1h-3V113h3v-3.6c0-1.1,0.4-2.1,1.2-2.9c0.8-0.8,1.8-1.2,2.9-1.2h1.1v1.4h-1
			c-0.7,0-1.2,0.3-1.7,0.8c-0.5,0.5-0.7,1.1-0.7,1.9v3.6h3.4v1.7H623v17.1H621.2z"/>
		<path class="st22" d="M630,131c-1.3-1.1-2-2.4-2-3.8c0-1.4,0.7-2.7,2-3.8c1.3-1.1,2.9-1.7,4.8-1.9c1.9-0.2,3.4-0.5,4.6-0.9
			c1.2-0.4,1.8-0.9,1.8-1.5v-1.7c0-1-0.5-1.8-1.6-2.5c-1-0.7-2.3-1-3.8-1c-1.4,0-2.7,0.3-3.7,1c-1,0.7-1.5,1.5-1.5,2.4v1h-1.7v-1.2
			c0-1.3,0.7-2.4,2-3.3c1.4-0.9,3-1.3,4.9-1.3c2,0,3.7,0.4,5.1,1.3c1.4,0.9,2.1,1.9,2.1,3.1v11.5c0,0.7,0.2,1.4,0.5,1.9
			c0.3,0.5,0.7,0.8,1.2,0.8c0.1,0,0.3,0,0.4,0s0.2-0.1,0.3-0.1v0.8c-0.4,0.2-1,0.3-1.7,0.3c-0.7,0-1.3-0.3-1.8-0.9
			c-0.5-0.6-0.7-1.3-0.7-2.1c-0.4,1-1.1,1.8-2.3,2.5c-1.2,0.6-2.5,0.9-4,0.9C632.9,132.5,631.3,132,630,131z M639,129.6
			c1.2-1,2-2.3,2.2-3.9v-4.4c-0.4,0.4-1.2,0.7-2.3,0.9c-1,0.2-2.4,0.4-4.2,0.6c-1.4,0.1-2.6,0.6-3.5,1.4c-1,0.8-1.4,1.8-1.4,2.9
			c0,1.1,0.5,2.1,1.5,2.9c1,0.8,2.1,1.2,3.5,1.2C636.4,131.2,637.8,130.7,639,129.6z"/>
		<path class="st22" d="M653.6,131.9l-7.1-19.1h1.7l6.5,17l6.1-17h1.7l-7,19.1H653.6z"/>
		<path class="st22" d="M667.1,129.5c-1.6-1.8-2.5-4.2-2.5-7.2c0-3.1,0.8-5.5,2.5-7.4c1.6-1.8,3.8-2.8,6.5-2.8
			c2.7,0,4.8,0.9,6.5,2.8c1.6,1.9,2.4,4.4,2.4,7.4c0,3-0.8,5.4-2.4,7.2c-1.6,1.8-3.8,2.7-6.5,2.7
			C670.9,132.2,668.7,131.3,667.1,129.5z M678.8,128.4c1.3-1.5,1.9-3.5,1.9-6.1c0-2.6-0.6-4.7-1.9-6.3c-1.3-1.6-3-2.4-5.2-2.4
			c-2.2,0-3.9,0.8-5.2,2.4c-1.3,1.6-2,3.6-2,6.3c0,2.5,0.7,4.6,2,6.1c1.3,1.5,3,2.3,5.2,2.3C675.8,130.7,677.5,129.9,678.8,128.4z"
			/>
		<path class="st22" d="M687,131.9v-19.1h1.8v4.3c0.5-1.4,1.3-2.5,2.2-3.4c1-0.8,2.1-1.3,3.2-1.3h1v2.1c-0.1,0-0.2,0-0.3-0.1
			c-0.1-0.1-0.1-0.1-0.2-0.1c-1.4,0-2.7,0.6-3.8,1.8c-1.1,1.2-1.9,2.7-2.2,4.5v11.2H687z"/>
		<path class="st22" d="M717.6,131.9l-7.1-19.1h1.7l6.5,17l6.1-17h1.7l-7,19.1H717.6z"/>
		<path class="st22" d="M731,129.8c-1.5-1.9-2.3-4.4-2.3-7.4c0-3.1,0.8-5.5,2.3-7.4c1.5-1.8,3.6-2.8,6.2-2.8c2.6,0,4.6,0.8,6.2,2.5
			c1.5,1.7,2.3,4,2.3,6.8v0.8h-15.2c0,2.6,0.6,4.7,1.8,6.2s2.8,2.3,4.9,2.3c1.5,0,2.9-0.4,4.1-1.2c1.3-0.8,2.1-1.9,2.6-3.3h1.8
			c-0.3,1.8-1.3,3.2-2.9,4.4s-3.5,1.7-5.6,1.7C734.6,132.5,732.6,131.6,731,129.8z M743.9,120.6V120c-0.1-1.8-0.9-3.2-2.1-4.5
			c-1.3-1.2-2.8-1.8-4.6-1.8c-1.7,0-3.2,0.6-4.5,1.8c-1.3,1.3-2,2.8-2.2,4.6v0.5H743.9z"/>
		<path class="st22" d="M749.9,131.9v-19.1h1.8v4.3c0.5-1.4,1.3-2.5,2.2-3.4c1-0.8,2.1-1.3,3.2-1.3h1v2.1c-0.1,0-0.2,0-0.3-0.1
			c-0.1-0.1-0.1-0.1-0.2-0.1c-1.4,0-2.7,0.6-3.8,1.8c-1.1,1.2-1.9,2.7-2.2,4.5v11.2H749.9z"/>
		<path class="st22" d="M761.3,105.3h1.8v2.7h-1.8V105.3z M761.3,131.9v-19.1h1.8v19.1H761.3z"/>
		<path class="st22" d="M769.2,131.9v-17.1h-3V113h3v-3.6c0-1.1,0.4-2.1,1.2-2.9c0.8-0.8,1.8-1.2,2.9-1.2h1.1v1.4h-1
			c-0.7,0-1.2,0.3-1.7,0.8c-0.5,0.5-0.7,1.1-0.7,1.9v3.6h3.4v1.7H771v17.1H769.2z"/>
		<path class="st22" d="M777.5,105.3h1.8v2.7h-1.8V105.3z M777.5,131.9v-19.1h1.8v19.1H777.5z"/>
		<path class="st22" d="M798.7,139v-11.2c-0.5,1.4-1.4,2.5-2.5,3.4s-2.5,1.3-3.9,1.3c-2.5,0-4.6-1-6.1-2.9c-1.5-1.9-2.3-4.5-2.3-7.6
			c0-3,0.8-5.4,2.3-7.2c1.5-1.8,3.5-2.7,6.1-2.7c1.4,0,2.6,0.4,3.8,1.2c1.2,0.8,2.1,1.8,2.7,3.1v-3.6h1.8V139H798.7z M796.9,128.4
			c1.3-1.8,1.9-3.9,1.9-6.4c0-2.3-0.6-4.3-1.9-5.9c-1.3-1.6-2.8-2.4-4.6-2.4c-2,0-3.6,0.8-4.8,2.3c-1.2,1.5-1.8,3.5-1.8,6
			c0,2.7,0.6,4.9,1.8,6.5c1.2,1.6,2.8,2.5,4.8,2.5C794,131,795.6,130.1,796.9,128.4z"/>
		<path class="st22" d="M807.9,130.6c-1.3-1.2-1.9-2.6-1.9-4.2v-13.6h1.8v13.6c0,1.2,0.5,2.3,1.4,3.2c0.9,0.9,2,1.3,3.4,1.3
			c1.5,0,2.9-0.6,4.2-1.8c1.2-1.2,2-2.7,2.3-4.5v-11.8h1.8v19.1H819v-3.4c-0.5,1.2-1.4,2.1-2.6,2.8c-1.2,0.7-2.5,1-3.9,1
			C810.7,132.4,809.2,131.8,807.9,130.6z"/>
		<path class="st22" d="M827.7,129.8c-1.5-1.9-2.3-4.4-2.3-7.4c0-3.1,0.8-5.5,2.3-7.4c1.5-1.8,3.6-2.8,6.2-2.8
			c2.6,0,4.6,0.8,6.2,2.5c1.5,1.7,2.3,4,2.3,6.8v0.8h-15.2c0,2.6,0.6,4.7,1.8,6.2s2.8,2.3,4.9,2.3c1.5,0,2.9-0.4,4.1-1.2
			c1.3-0.8,2.1-1.9,2.6-3.3h1.8c-0.3,1.8-1.3,3.2-2.9,4.4s-3.5,1.7-5.6,1.7C831.3,132.5,829.2,131.6,827.7,129.8z M840.5,120.6V120
			c-0.1-1.8-0.9-3.2-2.1-4.5c-1.3-1.2-2.8-1.8-4.6-1.8c-1.7,0-3.2,0.6-4.5,1.8c-1.3,1.3-2,2.8-2.2,4.6v0.5H840.5z"/>
		<path class="st22" d="M861.4,130.6c-1.4-1.2-2.1-2.6-2.1-4.3h1.7c0,1.3,0.6,2.4,1.7,3.3c1.1,0.9,2.4,1.3,4,1.3
			c1.8,0,3.2-0.4,4.3-1.2c1.1-0.8,1.6-1.9,1.6-3.3c0-1-0.6-1.9-1.7-2.6c-1.1-0.7-2.7-1.1-4.6-1.3c-2-0.2-3.6-0.7-4.8-1.7
			c-1.2-1-1.8-2.1-1.8-3.5c0-1.6,0.6-2.8,1.8-3.7c1.2-0.9,2.9-1.3,5.1-1.3c2.1,0,3.8,0.5,5.1,1.4c1.3,0.9,1.9,2.2,1.9,3.7h-1.7
			c-0.2-1.2-0.8-2.1-1.7-2.7c-0.9-0.7-2.1-1-3.6-1c-1.6,0-2.9,0.3-3.8,1c-1,0.7-1.4,1.5-1.4,2.6c0,1,0.6,1.9,1.7,2.6
			c1.1,0.7,2.7,1.1,4.6,1.3c2,0.2,3.6,0.8,4.8,1.8c1.2,1,1.8,2.3,1.8,3.8c0,1.7-0.7,3.1-2.1,4.1c-1.4,1-3.2,1.5-5.5,1.5
			C864.5,132.4,862.8,131.8,861.4,130.6z"/>
		<path class="st22" d="M880,130.6c-1.3-1.2-1.9-2.6-1.9-4.2v-13.6h1.8v13.6c0,1.2,0.5,2.3,1.4,3.2c0.9,0.9,2,1.3,3.4,1.3
			c1.5,0,2.9-0.6,4.2-1.8c1.2-1.2,2-2.7,2.3-4.5v-11.8h1.8v19.1h-1.8v-3.4c-0.5,1.2-1.4,2.1-2.6,2.8c-1.2,0.7-2.5,1-3.9,1
			C882.9,132.4,881.3,131.8,880,130.6z"/>
		<path class="st22" d="M899.1,131c-1.3-1.1-2-2.4-2-3.8c0-1.4,0.7-2.7,2-3.8c1.3-1.1,2.9-1.7,4.8-1.9c1.9-0.2,3.4-0.5,4.6-0.9
			c1.2-0.4,1.8-0.9,1.8-1.5v-1.7c0-1-0.5-1.8-1.6-2.5c-1-0.7-2.3-1-3.8-1c-1.4,0-2.7,0.3-3.7,1c-1,0.7-1.5,1.5-1.5,2.4v1h-1.7v-1.2
			c0-1.3,0.7-2.4,2-3.3c1.4-0.9,3-1.3,4.9-1.3c2,0,3.7,0.4,5.1,1.3c1.4,0.9,2.1,1.9,2.1,3.1v11.5c0,0.7,0.2,1.4,0.5,1.9
			c0.3,0.5,0.7,0.8,1.2,0.8c0.1,0,0.3,0,0.4,0s0.2-0.1,0.3-0.1v0.8c-0.4,0.2-1,0.3-1.7,0.3c-0.7,0-1.3-0.3-1.8-0.9
			c-0.5-0.6-0.7-1.3-0.7-2.1c-0.4,1-1.1,1.8-2.3,2.5c-1.2,0.6-2.5,0.9-4,0.9C902,132.5,900.4,132,899.1,131z M908.1,129.6
			c1.2-1,2-2.3,2.2-3.9v-4.4c-0.4,0.4-1.2,0.7-2.3,0.9c-1,0.2-2.4,0.4-4.2,0.6c-1.4,0.1-2.6,0.6-3.5,1.4c-1,0.8-1.4,1.8-1.4,2.9
			c0,1.1,0.5,2.1,1.5,2.9c1,0.8,2.1,1.2,3.5,1.2C905.4,131.2,906.8,130.7,908.1,129.6z"/>
		<path class="st22" d="M445.1,172.9c-1.8-2-2.6-4.5-2.6-7.3c0-2.8,0.9-5.2,2.6-7.2c1.8-2,3.9-3,6.4-3c2.1,0,3.8,0.6,5.3,1.8
			c1.5,1.3,2.2,2.7,2.2,4.5h-1.8c0-1.3-0.6-2.3-1.7-3.2c-1.1-0.9-2.4-1.3-4-1.3c-2,0-3.7,0.8-5.1,2.5c-1.4,1.7-2.1,3.7-2.1,6
			c0,2.4,0.7,4.4,2.1,6.1c1.4,1.7,3.1,2.5,5.1,2.5c1.5,0,2.9-0.5,3.9-1.4c1.1-0.9,1.7-2,1.7-3.3h1.9c0,1.8-0.7,3.3-2.2,4.5
			c-1.5,1.3-3.2,1.9-5.3,1.9C449,175.9,446.9,174.9,445.1,172.9z"/>
		<path class="st22" d="M464.1,172.7c-1.6-1.8-2.5-4.2-2.5-7.2c0-3.1,0.8-5.5,2.5-7.4c1.6-1.8,3.8-2.8,6.5-2.8
			c2.7,0,4.8,0.9,6.5,2.8c1.6,1.9,2.4,4.4,2.4,7.4c0,3-0.8,5.4-2.4,7.2c-1.6,1.8-3.8,2.7-6.5,2.7
			C467.9,175.4,465.7,174.5,464.1,172.7z M475.8,171.6c1.3-1.5,1.9-3.5,1.9-6.1c0-2.6-0.6-4.7-1.9-6.3c-1.3-1.6-3-2.4-5.2-2.4
			c-2.2,0-3.9,0.8-5.2,2.4c-1.3,1.6-2,3.6-2,6.3c0,2.5,0.7,4.6,2,6.1c1.3,1.5,3,2.3,5.2,2.3C472.7,173.9,474.5,173.1,475.8,171.6z"
			/>
		<path class="st22" d="M484,175.1V156h1.8v3.2c0.5-1.1,1.4-2,2.5-2.7c1.1-0.7,2.3-1,3.7-1c1.9,0,3.5,0.6,4.8,1.8
			c1.3,1.3,2,2.7,2,4.5v13.2h-1.8v-13.2c0-1.3-0.5-2.4-1.5-3.4c-1-0.9-2.2-1.4-3.5-1.4c-1.5,0-2.8,0.5-4,1.5c-1.2,1-1.9,2.3-2.1,3.9
			v12.6H484z"/>
		<path class="st22" d="M505.3,173c-1.6-1.9-2.3-4.4-2.3-7.4c0-3.1,0.8-5.5,2.3-7.4c1.5-1.8,3.6-2.8,6.2-2.8c2.6,0,4.6,0.8,6.2,2.5
			c1.5,1.7,2.3,4,2.3,6.8v0.8h-15.2c0,2.6,0.6,4.7,1.8,6.2c1.2,1.6,2.8,2.3,4.9,2.3c1.5,0,2.9-0.4,4.1-1.2c1.3-0.8,2.1-1.9,2.6-3.3
			h1.8c-0.3,1.8-1.3,3.2-2.9,4.4s-3.5,1.7-5.6,1.7C508.9,175.7,506.9,174.8,505.3,173z M518.2,163.8v-0.7c-0.1-1.8-0.9-3.2-2.1-4.5
			c-1.3-1.2-2.8-1.8-4.6-1.8c-1.7,0-3.2,0.6-4.5,1.8c-1.3,1.3-2,2.8-2.2,4.6v0.5H518.2z"/>
		<path class="st22" d="M528.9,165l-6.4-9h2l5.6,7.7l5.6-7.7h2l-6.6,9l7.3,10h-2l-6.4-8.5l-6.1,8.5h-2.1L528.9,165z"/>
		<path class="st22" d="M542.2,174.2c-1.3-1.1-2-2.4-2-3.8c0-1.4,0.7-2.7,2-3.8c1.3-1.1,2.9-1.7,4.8-1.9c1.9-0.2,3.4-0.5,4.6-0.9
			c1.2-0.4,1.8-0.9,1.8-1.5v-1.7c0-1-0.5-1.8-1.6-2.5c-1-0.7-2.3-1-3.8-1c-1.4,0-2.7,0.3-3.7,1c-1,0.7-1.5,1.5-1.5,2.4v1H541v-1.2
			c0-1.3,0.7-2.4,2-3.3c1.4-0.9,3-1.3,4.9-1.3c2,0,3.7,0.4,5.1,1.3c1.4,0.9,2.1,1.9,2.1,3.1v11.5c0,0.7,0.2,1.4,0.5,1.9
			c0.3,0.5,0.7,0.8,1.2,0.8c0.1,0,0.3,0,0.4,0c0.1,0,0.2-0.1,0.3-0.1v0.8c-0.4,0.2-1,0.3-1.7,0.3c-0.7,0-1.3-0.3-1.8-0.9
			c-0.5-0.6-0.7-1.3-0.7-2.1c-0.4,1-1.1,1.8-2.3,2.5c-1.2,0.6-2.5,0.9-4,0.9C545.1,175.7,543.5,175.2,542.2,174.2z M551.2,172.8
			c1.2-1,2-2.3,2.2-3.9v-4.4c-0.4,0.4-1.2,0.7-2.3,0.9c-1,0.2-2.4,0.4-4.2,0.6c-1.4,0.1-2.6,0.6-3.5,1.4c-1,0.8-1.4,1.8-1.4,2.9
			c0,1.1,0.5,2.1,1.5,2.9c1,0.8,2.1,1.2,3.5,1.2C548.6,174.4,550,173.9,551.2,172.8z M543,152.9c0.3-0.7,0.8-1.3,1.4-1.7
			c0.6-0.4,1.2-0.6,1.8-0.6c0.6,0,1.3,0.3,2.3,1c0.9,0.7,1.7,1,2.2,1c0.5,0,0.9-0.1,1.4-0.4c0.4-0.2,0.8-0.6,1-1l1,1
			c-0.4,0.6-0.8,1.1-1.4,1.5c-0.6,0.4-1.2,0.5-1.9,0.5c-0.6,0-1.3-0.3-2.3-1c-1-0.7-1.7-1-2.3-1c-0.4,0-0.8,0.1-1.2,0.4
			c-0.4,0.3-0.7,0.7-0.9,1.2L543,152.9z"/>
		<path class="st22" d="M562.2,172.7c-1.6-1.8-2.5-4.2-2.5-7.2c0-3.1,0.8-5.5,2.5-7.4c1.6-1.8,3.8-2.8,6.5-2.8
			c2.7,0,4.8,0.9,6.5,2.8c1.6,1.9,2.4,4.4,2.4,7.4c0,3-0.8,5.4-2.4,7.2c-1.6,1.8-3.8,2.7-6.5,2.7C566,175.4,563.8,174.5,562.2,172.7
			z M573.9,171.6c1.3-1.5,1.9-3.5,1.9-6.1c0-2.6-0.6-4.7-1.9-6.3c-1.3-1.6-3-2.4-5.2-2.4c-2.2,0-3.9,0.8-5.2,2.4
			c-1.3,1.6-2,3.6-2,6.3c0,2.5,0.7,4.6,2,6.1c1.3,1.5,3,2.3,5.2,2.3C570.8,173.9,572.5,173.1,573.9,171.6z"/>
		<path class="st22" d="M597.7,172.9c-1.8-2-2.6-4.5-2.6-7.3c0-2.8,0.9-5.2,2.6-7.2c1.8-2,3.9-3,6.4-3c2.1,0,3.8,0.6,5.3,1.8
			c1.5,1.3,2.2,2.7,2.2,4.5h-1.8c0-1.3-0.6-2.3-1.7-3.2c-1.1-0.9-2.4-1.3-4-1.3c-2,0-3.7,0.8-5.1,2.5c-1.4,1.7-2.1,3.7-2.1,6
			c0,2.4,0.7,4.4,2.1,6.1c1.4,1.7,3.1,2.5,5.1,2.5c1.5,0,2.9-0.5,3.9-1.4c1.1-0.9,1.7-2,1.7-3.3h1.9c0,1.8-0.7,3.3-2.2,4.5
			c-1.5,1.3-3.2,1.9-5.3,1.9C601.6,175.9,599.5,174.9,597.7,172.9z"/>
		<path class="st22" d="M616.7,172.7c-1.6-1.8-2.5-4.2-2.5-7.2c0-3.1,0.8-5.5,2.5-7.4c1.6-1.8,3.8-2.8,6.5-2.8
			c2.7,0,4.8,0.9,6.5,2.8c1.6,1.9,2.4,4.4,2.4,7.4c0,3-0.8,5.4-2.4,7.2c-1.6,1.8-3.8,2.7-6.5,2.7
			C620.5,175.4,618.4,174.5,616.7,172.7z M628.4,171.6c1.3-1.5,1.9-3.5,1.9-6.1c0-2.6-0.6-4.7-1.9-6.3c-1.3-1.6-3-2.4-5.2-2.4
			c-2.2,0-3.9,0.8-5.2,2.4c-1.3,1.6-2,3.6-2,6.3c0,2.5,0.7,4.6,2,6.1c1.3,1.5,3,2.3,5.2,2.3C625.4,173.9,627.1,173.1,628.4,171.6z"
			/>
		<path class="st22" d="M636.6,175.1V156h1.8v3.2c0.5-1.1,1.3-2,2.3-2.7c1-0.7,2-1,3.2-1c1.3,0,2.5,0.4,3.5,1.1c1,0.7,1.7,1.7,2,2.8
			c0.6-1.2,1.4-2.1,2.5-2.8c1.2-0.7,2.4-1.1,3.8-1.1c1.7,0,3.2,0.6,4.4,1.7c1.2,1.2,1.8,2.6,1.8,4.2v13.6h-1.8v-13.6
			c0-1.3-0.4-2.3-1.3-3.2c-0.8-0.9-1.9-1.3-3.1-1.3c-1.4,0-2.7,0.5-3.8,1.5c-1.1,1-1.8,2.2-2.1,3.8v12.9h-1.8v-13.6
			c0-1.3-0.4-2.3-1.2-3.2s-1.8-1.3-2.9-1.3c-1.3,0-2.5,0.5-3.6,1.6c-1,1.1-1.7,2.4-2,4v12.6H636.6z"/>
		<path class="st22" d="M682.2,174.2c-1.3-1.1-2-2.4-2-3.8c0-1.4,0.7-2.7,2-3.8c1.3-1.1,2.9-1.7,4.8-1.9c1.9-0.2,3.4-0.5,4.6-0.9
			c1.2-0.4,1.8-0.9,1.8-1.5v-1.7c0-1-0.5-1.8-1.6-2.5c-1-0.7-2.3-1-3.8-1c-1.4,0-2.7,0.3-3.7,1c-1,0.7-1.5,1.5-1.5,2.4v1H681v-1.2
			c0-1.3,0.7-2.4,2-3.3c1.4-0.9,3-1.3,4.9-1.3c2,0,3.7,0.4,5.1,1.3c1.4,0.9,2.1,1.9,2.1,3.1v11.5c0,0.7,0.2,1.4,0.5,1.9
			c0.3,0.5,0.7,0.8,1.2,0.8c0.1,0,0.3,0,0.4,0s0.2-0.1,0.3-0.1v0.8c-0.4,0.2-1,0.3-1.7,0.3c-0.7,0-1.3-0.3-1.8-0.9
			c-0.5-0.6-0.7-1.3-0.7-2.1c-0.4,1-1.1,1.8-2.3,2.5c-1.2,0.6-2.5,0.9-4,0.9C685.1,175.7,683.5,175.2,682.2,174.2z M691.2,172.8
			c1.2-1,2-2.3,2.2-3.9v-4.4c-0.4,0.4-1.2,0.7-2.3,0.9c-1,0.2-2.4,0.4-4.2,0.6c-1.4,0.1-2.6,0.6-3.5,1.4c-1,0.8-1.4,1.8-1.4,2.9
			c0,1.1,0.5,2.1,1.5,2.9c1,0.8,2.1,1.2,3.5,1.2C688.5,174.4,689.9,173.9,691.2,172.8z"/>
		<path class="st22" d="M715.2,148.5h1.8v2.7h-1.8V148.5z M715.2,175.1V156h1.8v19.1H715.2z"/>
		<path class="st22" d="M722.7,175.1V156h1.8v3.2c0.5-1.1,1.4-2,2.5-2.7c1.1-0.7,2.3-1,3.7-1c1.9,0,3.5,0.6,4.8,1.8
			c1.3,1.3,2,2.7,2,4.5v13.2h-1.8v-13.2c0-1.3-0.5-2.4-1.5-3.4c-1-0.9-2.2-1.4-3.5-1.4c-1.5,0-2.8,0.5-4,1.5c-1.2,1-1.9,2.3-2.1,3.9
			v12.6H722.7z"/>
		<path class="st22" d="M744.1,174.5c-0.7-0.8-1-1.7-1-2.9v-14.3h-2.7V156h2.7v-5.4h1.8v5.4h2.6v1.4h-2.6v14.3
			c0,0.7,0.2,1.4,0.6,1.9c0.4,0.5,0.8,0.8,1.3,0.8c0.6,0,1-0.1,1.4-0.3v1.3c-0.7,0.2-1.2,0.4-1.5,0.4
			C745.6,175.7,744.8,175.3,744.1,174.5z"/>
		<path class="st22" d="M752.5,173c-1.5-1.9-2.3-4.4-2.3-7.4c0-3.1,0.8-5.5,2.3-7.4c1.5-1.8,3.6-2.8,6.2-2.8c2.6,0,4.6,0.8,6.2,2.5
			c1.5,1.7,2.3,4,2.3,6.8v0.8h-15.2c0,2.6,0.6,4.7,1.8,6.2s2.8,2.3,4.9,2.3c1.5,0,2.9-0.4,4.1-1.2c1.3-0.8,2.1-1.9,2.6-3.3h1.8
			c-0.3,1.8-1.3,3.2-2.9,4.4s-3.5,1.7-5.6,1.7C756.1,175.7,754,174.8,752.5,173z M765.3,163.8v-0.7c-0.1-1.8-0.9-3.2-2.1-4.5
			c-1.3-1.2-2.8-1.8-4.6-1.8c-1.7,0-3.2,0.6-4.5,1.8c-1.3,1.3-2,2.8-2.2,4.6v0.5H765.3z"/>
		<path class="st22" d="M771.3,175.1V156h1.8v4.3c0.5-1.4,1.3-2.5,2.2-3.4c1-0.8,2.1-1.3,3.2-1.3h1v2.1c-0.1,0-0.2,0-0.3-0.1
			c-0.1-0.1-0.1-0.1-0.2-0.1c-1.4,0-2.7,0.6-3.8,1.8c-1.1,1.2-1.9,2.7-2.2,4.5v11.2H771.3z"/>
		<path class="st22" d="M782.7,175.1V156h1.8v3.2c0.5-1.1,1.4-2,2.5-2.7c1.1-0.7,2.3-1,3.7-1c1.9,0,3.5,0.6,4.8,1.8
			c1.3,1.3,2,2.7,2,4.5v13.2h-1.8v-13.2c0-1.3-0.5-2.4-1.5-3.4c-1-0.9-2.2-1.4-3.5-1.4c-1.5,0-2.8,0.5-4,1.5c-1.2,1-1.9,2.3-2.1,3.9
			v12.6H782.7z"/>
		<path class="st22" d="M804,173c-1.5-1.9-2.3-4.4-2.3-7.4c0-3.1,0.8-5.5,2.3-7.4c1.5-1.8,3.6-2.8,6.2-2.8c2.6,0,4.6,0.8,6.2,2.5
			c1.5,1.7,2.3,4,2.3,6.8v0.8h-15.2c0,2.6,0.6,4.7,1.8,6.2s2.8,2.3,4.9,2.3c1.5,0,2.9-0.4,4.1-1.2c1.3-0.8,2.1-1.9,2.6-3.3h1.8
			c-0.3,1.8-1.3,3.2-2.9,4.4s-3.5,1.7-5.6,1.7C807.6,175.7,805.6,174.8,804,173z M816.9,163.8v-0.7c-0.1-1.8-0.9-3.2-2.1-4.5
			c-1.3-1.2-2.8-1.8-4.6-1.8c-1.7,0-3.2,0.6-4.5,1.8c-1.3,1.3-2,2.8-2.2,4.6v0.5H816.9z"/>
		<path class="st22" d="M824.1,174.5c-0.7-0.8-1-1.7-1-2.9v-14.3h-2.7V156h2.7v-5.4h1.8v5.4h2.6v1.4h-2.6v14.3
			c0,0.7,0.2,1.4,0.6,1.9c0.4,0.5,0.8,0.8,1.3,0.8c0.6,0,1-0.1,1.4-0.3v1.3c-0.7,0.2-1.2,0.4-1.5,0.4
			C825.7,175.7,824.8,175.3,824.1,174.5z"/>
		<path class="st22" d="M831.4,172.3h2.6v2.7h-2.6V172.3z"/>
	</g>
</g>
</svg>
