<?xml version="1.0" encoding="utf-8"?>
<!-- Generator: Adobe Illustrator 25.2.0, SVG Export Plug-In . SVG Version: 6.00 Build 0)  -->
<svg version="1.1" id="Layer_1" xmlns="http://www.w3.org/2000/svg" xmlns:xlink="http://www.w3.org/1999/xlink" x="0px" y="0px"
	 viewBox="0 0 1280 397" style="enable-background:new 0 0 1280 397;" xml:space="preserve">
<style type="text/css">
	.st0{opacity:0.5;fill:#CCCCCC;}
	.st1{fill:#0C232B;}
	.st2{fill:#F0A5A6;}
	.st3{fill:#231F20;}
	.st4{fill:#184656;}
	.st5{fill:#399AAA;}
	.st6{fill:#E95F5C;}
	.st7{fill:#134E75;}
	.st8{fill:#C080B1;}
	.st9{fill:#CC7F7F;}
	.st10{fill:#999999;}
	.st11{fill:url(#SVGID_1_);}
	.st12{fill:#BBBDBF;}
	.st13{fill:#E6E7E8;}
	.st14{fill:#CCCCCC;}
	.st15{fill:#808080;}
	.st16{fill:#0C3A5E;}
	.st17{fill:#46ACC3;}
	.st18{fill:url(#SVGID_2_);}
	.st19{fill:#FCC14B;}
	.st20{opacity:0.5;fill:#C94545;}
</style>
<ellipse class="st0" cx="413.5" cy="372.5" rx="91.5" ry="12.5"/>
<ellipse class="st0" cx="918.5" cy="372.5" rx="91.5" ry="12.5"/>
<g>
	<path class="st1" d="M894.7,46.5c0,0-5.2-6.1,0.6-15.1c4-6,8.2-3.5,8-0.5C903.2,33.8,899.6,42.3,894.7,46.5z"/>
	<path class="st2" d="M481.5,95.7c0,0-4.9,1.5-5.4,2.1c-0.2,0.2-1.7,1-0.6,4.1c0.4,1.1,1.2,2.3,2.4,2.4c0.7,0.1,2.9-1,4.5-1.6
		c0.5,0.7,0.9,0.9,1.4,1.1c1.5,0.5,2.5,0.6,4.7,0.2c2.2-0.4,5.3-0.7,7-2.1c1.8-1.4,0.7-2.2,0.7-2.2s0.9-0.3,1-1.2s-0.5-1.7-0.5-1.7
		s0.8-0.8,0.9-1.6c0.1-0.8-0.6-1.6-0.6-1.6s1.3-0.5,1.1-1.7c-0.2-1.1-2.5-1.5-3.2-1.5c-0.7,0-2,0.1-2,0.1s0.8-2.2-0.1-2.3
		c-0.5-0.1-2.8,1.2-4.8,1c-2.4-0.1-4,1.8-4.5,2.5C482.4,93.4,481.5,95.7,481.5,95.7z"/>
	<g>
		<path class="st3" d="M413.3,348l-4.7,17.5c0,0,5.2,3.6,10.1,0.7l3.3-15.6C422,350.5,413,347.6,413.3,348z"/>
		<path class="st3" d="M418.1,357.4c0,0-1.7,4.8,0.9,6.6c2.5,1.7,5.3,1.3,9.6,0.7c5.6-0.8,14.2,7,3.3,6.3
			c-1.6-0.1-10.5-0.8-14.7-4.2c-2-1.7-1.7-5.6-1.1-6.8L418.1,357.4z"/>
	</g>
	<path class="st1" d="M429.9,168.9c-11.2-11-23.7-16.8-35.1-7.5c0,0-3.3,2.6-3.3,2.6c-16.7,13.5,29.2,82.3,38.3,94.2
		c11.6,15.2,33.8,36.2,40.4,25.9c7.6-11.9,5.3-23.8,5.3-25.9c0-16.9-7.5-32.1-15.1-45.8C454.1,201,442.8,181.5,429.9,168.9z"/>
	<path class="st1" d="M421,358.9c8.7-9.5,26-31.2,36.2-50.5c0,0,0.1-0.1,0.1-0.1l13.4-23.9c4.9-11.8,0.8-17.8-5.3-21
		c0,0-23.4,7.6-23.4,7.6c-10.6,19.2-27.9,69-31.1,81.4C410.9,352.4,417,359,421,358.9z"/>
	<g>
		<path class="st3" d="M373.3,350.5l-6.9,16.7c0,0,4.7,4.2,9.9,1.9l5.3-15C381.6,354.1,373.1,350,373.3,350.5z"/>
		<path class="st3" d="M375.8,359.7c0,0-1.4,4.9,1.3,6.5c2.6,1.6,5.3,1,9.6,0.2c5.5-1.1,14.6,6.1,3.7,6.1c-1.6,0-10.6-0.2-14.9-3.3
			c-2.1-1.5-2.1-5.5-1.5-6.7L375.8,359.7z"/>
	</g>
	<path class="st4" d="M379,363.9c10.1-10.7,30.4-35,43.3-56.5c0-0.1,0.1-0.1,0.1-0.2l6.1-10c7.1-11.6,8.1-23.8,2.4-27.2l-1.9-1.2
		c-5.7-3.5-21.2-1.7-21.3-1.6c-26.8,43.5-33.2,75.8-38,89.6C369.7,356.9,374.9,364.1,379,363.9z"/>
	<path class="st4" d="M421.6,160.2c-7.2-14-24.4-10.7-38.2-5.5c0,0-3.9,1.5-3.9,1.5c-20.1,7.5-12.5,32.7-4.7,51.2
		c5.9,14,29.8,70.7,39.2,78.3c3.7,3,14.3,3.1,16.2,2.3c2-0.7,3.6-3.3,4.4-8.1c2.6-14.8,1.5-40.9-0.1-56.5
		C433.2,210.5,429.9,176.3,421.6,160.2z"/>
	<path class="st2" d="M409.3,33.2c4,6.9,3.6,19.8,1,21c-5.6,2.6-17.6-2.2-21.6-9.1c-4-6.9-2.6-15.2,3.1-18.5
		C397.4,23.4,405.3,26.3,409.3,33.2z"/>
	<path class="st2" d="M402.7,64h-10.8V47.7l12.4,0.7C404.4,48.4,401.2,56.9,402.7,64z"/>
	<path class="st2" d="M407.5,34.2c0,0,4.9,2.4,6.5,2.6c1.6,0.2,2.4,0.8,0.9,2.6c-1.4,1.8-3.9,2.5-3.9,2.5L407.5,34.2z"/>
	<path class="st5" d="M480,97.8c-0.2-1-1.2-1.7-2.3-1.6c-6.6,0.9-24.9,4.2-26.7,5.1c-1.7,0.8-22.9-13.6-24.1-15.2
		c-8.1-2.1,0,15.3-3.4,20c2.6,4.5,18.3,9.1,18.3,9.1c9.5,2.3,31.3-7.4,38.1-11.1c0.8-0.4,1.3-1.4,1-2.3L480,97.8z"/>
	<path class="st5" d="M432.2,103.5c-1.6,1.7-3.6,3.9-5.3,5.6c-8.6-4.4-13.6-5.6-23.8-14.3c-9.3-8.8-18.2-11.5-16.3-21.4
		c2-7.5,12.7-9.8,12.8-9.8c10.9,4.8,27.9,22,38.4,33.9C436.4,99.8,434.1,101.4,432.2,103.5z"/>
	<path class="st6" d="M388.5,59.4c1.6-1,0.2-2.3,1.6-2.3l11.6,1.3c3.6-0.1,1.8,1.8,2.4,2.3c15.8,13.7,17.6,54.9,23.4,89.7
		c0.1,0.7,0.2,1.3,0.2,2c0.5,1.1,0.7,2.3,0.6,3.5c-0.9,7.3-14.6,14-31.6,15c-15.2,0.9-28.2-3-31.6-9.2c0,0,0,0,0-0.1
		c-0.1-0.1-0.1-0.3-0.2-0.4c-0.8-1.6-1.1-3.6-1.1-5.7c0.3-13.6-0.3-26.5,1.5-37.9C370.7,65.1,387.9,59.3,388.5,59.4z"/>
	<path class="st1" d="M391.3,46.8c0,0,1.6-0.2,1.6-3.1c0-2.1,1.7-4.1,2.6-4.3c1-0.2,3.7-0.8,4.3-4.8c0.2-1.4-0.3-3.6,0.7-4.8
		c0.3-0.4,0.8-0.6,1.2-0.7c3.2-1.1,6.9-0.2,9.8-2.2c2.8-1.9,2.3-6.4-0.7-7.4c-3.1-1-6.9,4.4-9.7,3.7c-1.4-0.3-2.2-1.6-3.3-2.4
		c-1.4-0.9-3.2-1.2-4.8-1.2c-3.5,0.1-6.8,1.5-8.5,4.7c-1,1.9-1.9,4-4.1,4.7c-1.2,0.4-2.4,0.5-3.6,0.8c-2.1,0.6-4,1.9-5.1,3.7
		c-2.5,4.2,0.7,9,4.6,11c3.3,1.6,2.9,3.9,2.7,5.7c-0.2,3.4,4,7.9,9.6,4.3c1.2,1.2,3.2,0.7,3.2,0.7l1.3-3.7
		C393.3,51.6,391.4,48.9,391.3,46.8z"/>
	<path class="st2" d="M391.6,41.5c0.8,2.2,2.4,3.6,3.6,3.2c1.2-0.4,1.6-2.6,0.8-4.8c-0.8-2.2-2.4-3.6-3.6-3.2
		C391.2,37.2,390.8,39.3,391.6,41.5z"/>
	<g>
		<g>
			<path class="st3" d="M978,338.2l6.3,13.6c0,0-2.1,5.8-7.6,6.3l-5.3-13.6C971.3,344.5,977.9,337.7,978,338.2z"/>
			<path class="st3" d="M973.4,349.3c0,0,2.8,4.5,1.8,7.3c-1,2.8-3.4,4.1-7.2,6.1c-4.9,2.6-7.3,13.7,1,6.9c1.2-1,7.9-6.7,9.3-11.8
				c0.7-2.5-1.9-5.5-3-6L973.4,349.3z"/>
		</g>
	</g>
	<path class="st7" d="M970.1,351.9c-10.4-8.5-51.1-59.5-51.1-59.5c-7.8-9.6-8.3-17.4-3.5-21.3l1.6-1.3c4.8-3.8,19-4.1,19.1-4
		c27.8,34.2,40,60.2,46.4,73c0.7,1.4,0.6,3-0.2,4.4C980.3,346.5,975.8,352.3,970.1,351.9z"/>
	<g>
		<g>
			<path class="st3" d="M881.8,352.4l-1.8,14.9c0,0-4.8,3.9-9.8,1.4l2.6-14.4C872.8,354.3,882,351.9,881.8,352.4z"/>
			<path class="st3" d="M872.1,359.4c0,0,0,5.3-2.3,7.2c-2.4,1.9-5.1,1.7-9.3,1.4c-5.5-0.4-13.4,7.8-2.8,6.4
				c1.6-0.2,10.2-1.5,14.1-5.2c1.9-1.8,1.3-5.6,0.6-6.7L872.1,359.4z"/>
		</g>
	</g>
	<path class="st7" d="M870.1,357.7c-8.5-19.1-10.8-75.6-9.2-86.4c0,0,30.1-2,30.1-2c0.1,18.7-2.8,67.5-5.9,83.6
		c-0.3,1.8-1.7,3.3-3.5,3.8C878.2,357.7,872.3,359,870.1,357.7z"/>
	<path class="st2" d="M787.4,108.6c0,0,5.1-0.9,5.7-0.7c0.2,0.1,2,0.1,2.4,3.3c0.2,1.2,0,2.6-1,3.3c-0.6,0.4-3.1,0.5-4.7,0.7
		c-0.1,0.8-0.4,1.2-0.8,1.6c-1.1,1.1-1.9,1.7-4,2.4c-2.1,0.7-5,1.8-7.2,1.4c-2.2-0.4-1.7-1.7-1.7-1.7s-0.9,0.1-1.5-0.6
		c-0.6-0.8-0.3-1.7-0.3-1.7s-1.1-0.3-1.5-1c-0.4-0.7-0.2-1.7-0.2-1.7s-1.4,0.1-1.7-1c-0.3-1.1,1.5-2.5,2.1-2.8
		c0.6-0.3,1.8-0.8,1.8-0.8s-1.7-1.6-1-2.1c0.4-0.3,3-0.3,4.8-1.3c2-1.2,4.4-0.3,5.2,0.1C785.7,107,787.4,108.6,787.4,108.6z"/>
	<path class="st1" d="M929.1,40.7c-1.8-4.4-6.2-2.7-6.2-2.7s2.7-5.6-1.3-7.9c-4.1-2.3-5.8,1.6-8,0.9c-1.8-0.6-1.7-2-2.6-2.8
		c-0.4,0.7-0.9,1.4-1.7,2c-3.2,2.1-6.9,3.3-9.9,5.6c-0.6,0.5-1.4,0.7-2.1,0.7c0,0,0,0,0,0c-0.7,0.4-1.4,0.6-2.2,0.6
		c1.5,2,3.9,3,8.4,2.1c4.7-1,6,1,6.1,4.5c0.1,3.5,1.5,4.8,1.5,4.8s3.2-2,3.8,1.9c0.6,3.9-2.6,5.3-2.6,5.3s0,1.5-0.5,4.5
		c-0.5,3.1-0.2,3.4,2.4,2.7c3.4-1,6.2-2.5,8.1-5.2c1.9-2.6,2-5.4,0.5-6.1C922.6,51.4,930.8,44.7,929.1,40.7z"/>
	<path class="st7" d="M901,165.2c3-15.5,56.2-31.1,47.6,34.7c-2,15.1-9.7,72-16.2,82.2c-2.6,4-14.7,8.6-15.8,7.1
		c-1-1.4-3.1-4.1-5-8.3c-5.8-13.3-4.7-36.4-7-51.6C902.7,216.6,897.5,183,901,165.2z"/>
	<path class="st7" d="M868.1,189.5c3.9-15.2,6-27.3,14.5-33.9c0,0,47,7.2,47,7.2c4.5,19.4-13.8,35-26.9,69.6
		c-2.3,6-8.3,30.6-11.7,44.2c-3.3,13.3-14.9,17.2-20.5,15c-9.2-3.5-9.5-13.5-9.7-15.4C858.9,256.4,864.7,202.8,868.1,189.5z"/>
	<path class="st6" d="M923.7,94.9c-4.7-7.6-0.7-27.5-0.7-27.5c11.5-6.1,25.4,10.3,30.3,21c10.8,17.2,15.6,33.5,16.6,38.6
		c1,5.4-3.1,16.6-5.7,15.3c-4.7-2.3-25.8-30.3-38.4-34.7C925.8,107.5,923.7,94.9,923.7,94.9z"/>
	<path class="st6" d="M889.8,66.9c0,0,27.4,9.9,21,15.4l-18.2,14.1c0,0-0.1,0-0.1,0.1c-14.4,12.6-39.8,21.9-44.8,22.4
		c-2.7,0.3-8.3-12-0.5-17.6C854.7,96.4,879.2,74,889.8,66.9z"/>
	<path class="st8" d="M905.6,71.9c2.7-0.5,5.3-2,7.6-4.1l-0.2,2.4l-5.3,10.3l-4.7-8.4C903.9,72.1,904.7,72,905.6,71.9z"/>
	<path class="st6" d="M791.9,111.8l0.1-2.9c0.1-2.9,2.8-5.2,5.9-5.1c37.5,1.3,49.2-2.9,49.2-2.9c23.5-3.4,8.8,19.7-3.9,18.7
		c0,0-41.2-1.2-47-2.4C793.6,116.7,791.7,114.4,791.9,111.8z"/>
	<path class="st6" d="M902.1,63.4c-2.4,0-12,7.9-17.1,23.5c-4.4,13.4-7.5,48.4-8.4,72.8c-0.2,6.5,14.6,6.8,31.3,6.7
		c15.7-0.1,39.7-0.8,40-6.6c0.5-11.9-13.5-75.2-15.4-85.2c-8.8-11.9-18.1-9.9-19.1-10.3L902.1,63.4z"/>
	<path class="st2" d="M901.7,67c0,0,8.8,5.8,15.4-1.7l-1.8-6.1l-0.1-6.1l-15.6,5C899.6,58.1,902.3,60.3,901.7,67z"/>
	<path class="st9" d="M910.4,59.9c-1.2,2-2.8,5.7-5,6.6c-1.1,0.5-2.4,0.6-3.6,0.1c-0.7-4.6-2.2-8.5-2.2-8.5l14-4.9
		C912.8,55.6,911.7,57.8,910.4,59.9z"/>
	<path class="st2" d="M896.2,36.4c-4.9,16.2,0.8,23.8,3.4,24.5c5.5,1.4,15.6-5,18-11.9c2.5-6.9-0.2-14.2-5.9-16.2
		C906,30.7,898.3,29.3,896.2,36.4z"/>
	<path class="st6" d="M484.1,95.6c-4.7,20-10,42.7-22.6,55.3c-33.8,33.8-79.5,34.3-157.1,23.1c-47.5-6.8-86.3-0.6-118.6,19
		c-27.3,16.6-49.6,42.9-68.4,80.4c-20.3,40.7-59.1,64.2-103.7,77.2v9.5c47.9-13.5,89.9-38.5,111.9-82.6
		c38.7-77.4,93.4-106.5,177.4-94.4c32.8,4.7,67.2,8.6,96.3,5.4c28.8-3.2,50.6-13.1,68.6-31.1c14.5-14.4,20.1-38.5,25.1-59.7
		c6.7-28.9,36.5-24.8,37.8-24.6l0.7-4.5l0.7-4.5C518.6,61.9,491,65.8,484.1,95.6z"/>
	<g>
		<g>
			<path class="st6" d="M629.9,53.9H601c-1.4,0-2.5-1.1-2.5-2.5l0,0c0-1.4,1.1-2.5,2.5-2.5h28.9c1.4,0,2.5,1.1,2.5,2.5l0,0
				C632.4,52.7,631.3,53.9,629.9,53.9z"/>
			<path class="st6" d="M629.9,85.2H601c-1.4,0-2.5-1.1-2.5-2.5l0,0c0-1.4,1.1-2.5,2.5-2.5h28.9c1.4,0,2.5,1.1,2.5,2.5l0,0
				C632.4,84,631.3,85.2,629.9,85.2z"/>
		</g>
		<path class="st10" d="M542,75.6l-17.4-2.4c-1.8-0.2-3.2-2.7-3.2-5.6l0,0c0-2.8,1.4-5.3,3.2-5.6l17.4-2.4c4.1-0.6,7.9,3,7.9,7.9
			l0,0C549.9,72.6,546.1,76.1,542,75.6z"/>
		<linearGradient id="SVGID_1_" gradientUnits="userSpaceOnUse" x1="543.5841" y1="67.0045" x2="594.508" y2="67.0045">
			<stop  offset="0.3073" style="stop-color:#CCCCCC"/>
			<stop  offset="0.8855" style="stop-color:#666666"/>
		</linearGradient>
		<path class="st11" d="M584.6,88.9h-31c-5.5,0-9.9-4.5-9.9-9.9V55.1c0-5.5,4.5-9.9,9.9-9.9h31c5.5,0,9.9,4.5,9.9,9.9v23.9
			C594.5,84.4,590,88.9,584.6,88.9z"/>
		<path class="st10" d="M603.3,93.4h-22c-2.8,0-5-2.3-5-5V45.7c0-2.8,2.3-5,5-5h22c2.8,0,5,2.3,5,5v42.7
			C608.3,91.1,606,93.4,603.3,93.4z"/>
		<path class="st12" d="M579.7,98h-4.2c-1.5,0-2.7-1.2-2.7-2.7V38.6c0-1.5,1.2-2.7,2.7-2.7h4.2c1.5,0,2.7,1.2,2.7,2.7v56.8
			C582.3,96.8,581.1,98,579.7,98z"/>
	</g>
	<rect x="567.7" y="45.1" class="st13" width="5" height="43.8"/>
	<path class="st14" d="M543.5,59.7c-0.5,0-1,0-1.5,0l-4.3,0.6V75l4.3,0.6c0.5,0.1,1,0.1,1.5,0V59.7z"/>
	<rect x="582.3" y="40.7" class="st15" width="2.8" height="52.8"/>
	<path class="st7" d="M948.4,153.9c-0.8-6.4-1.8-12.8-3-19.1c-1.3-6.6-1.5-8.4-3.1-14.9c-4.2-6-8.2-12.2-11.7-14.1
		c-7.1-1.8-8.7-25.2-6.8-30c0.9-2.3,1.8-4.9,3.1-7c0.6-1,2.1-2,2-3.4c-0.2-2.1-2.9-2-4.7-1.8c-0.1,0-0.1,0-0.2,0
		c-3.3-0.4-5.4,1.7-6.6,4.5c-1,2.5-1.8,5.2-2.5,7.8c-0.8,3.4-1,7.3-2.2,10.6c-1.2,3.1-3,3.5-6,3.8c-1.7,0.2-3.5,0.3-5.2,0.3
		c-3.4,0-9.7,0.3-9.7-4.4c-0.1-6.7,2.5-14.1,5.5-20c0.5-0.9-0.5-1.8-1.2-1.6c-0.9-0.5-2.2-0.4-3.3-0.2c-1.1,0.1-2.5,0.2-3.4,0.9
		c-0.8,0.5-1.1,1.4-1.4,2.3c0,0.1,0,0.2,0,0.2c-1.6,3.4-2.9,5.7-3.9,9.4c-0.5,1.9-0.9,5-1.2,6.9c-0.5,3.2,0.5,19.9-3.4,21.3
		c-2.3,0.9-4.5,8.2-5.4,19.8c-0.6,7.5-2.8,45.3-3,51.8c-0.1,2.6,36-2.9,43.4-2.8c10.1,0.1,34.2,11.3,35.1,6.9
		C951.3,171.9,949.1,159.3,948.4,153.9z"/>
	<path class="st16" d="M949.5,181.1c1.8-9.2-0.4-21.8-1-27.1c-0.8-6.4-1.8-12.8-3-19.1c-1.3-6.6-1.5-8.4-3.1-14.9
		c-4.2-6-8.2-12.2-11.7-14.1c-0.3-0.1-0.7-0.2-1-0.4c-0.4,10.8-0.7,21.6-2.9,32.2c-1.9,9.1-5.9,17.5-10.1,25.7
		c5.8,4.7,8.5,13.6,11.4,20c5.1,11.3,9.1,23.1,12.6,35c1.3,4.5,2.4,9,3.3,13.6c2.1-13.6,3.8-26.1,4.6-32c0.9-7.1,1.1-13.2,0.8-18.5
		C949.4,181.3,949.5,181.2,949.5,181.1z"/>
	<path class="st17" d="M1262.8,353c-22.5,0.7-47.1,3.1-72.9,5.7c-45.7,4.5-92.9,9.3-130.2,3.9c-41.2-5.9-63.1-22.8-69-53.2
		c-10.9-56.1-30.7-98.3-59.1-125.2c-26.6-25.3-54.1-30.6-68.2-31.5c-2.2-0.1-4.6-0.2-7.2-0.3c-20.9-0.7-52.5-1.8-68.6-35.5
		c-11.1-27.7-25.4-45.2-42.4-51.9c-13.4-5.3-23.5-1.6-24-1.4l3.3,8.6c0.3-0.1,30.9-10.9,54.6,48.3l0.1,0.3
		c18.5,38.9,54.9,40.1,76.7,40.9c2.5,0.1,4.9,0.2,7,0.3c12.8,0.8,38,5.7,62.4,29c26.9,25.6,45.9,66.1,56.4,120.3
		c6.6,34.3,31.8,54.2,76.7,60.6c12.3,1.8,25.5,2.5,39.3,2.5c29.5,0,61.6-3.2,93.1-6.3c25.5-2.5,49.9-5,72-5.7V353z"/>
	<path class="st2" d="M910.6,166.2c0,0,4.7-2,5.4-1.9c0.2,0,2-0.4,3.1,2.7c0.4,1.1,0.6,2.5-0.2,3.4c-0.5,0.5-2.9,1.1-4.4,1.8
		c0,0.8-0.1,1.2-0.4,1.7c-0.8,1.4-1.5,2.1-3.4,3.2c-1.9,1.1-4.4,2.9-6.7,3c-2.2,0.1-2-1.2-2-1.2s-0.8,0.3-1.6-0.3
		c-0.7-0.6-0.7-1.6-0.7-1.6s-1.1-0.1-1.7-0.6c-0.6-0.6-0.5-1.6-0.5-1.6s-1.3,0.4-1.9-0.6c-0.6-1,0.9-2.8,1.4-3.2
		c0.5-0.4,1.5-1.2,1.5-1.2s-2.1-1.1-1.5-1.8c0.3-0.4,2.9-0.9,4.3-2.4c1.7-1.6,4.3-1.3,5.1-1C908.5,165.1,910.6,166.2,910.6,166.2z"
		/>
	<path class="st2" d="M476.8,114.6c0,0-5.1,0.8-5.6,1.2c-0.2,0.2-1.9,0.7-1.2,3.9c0.2,1.2,0.9,2.4,2,2.7c0.7,0.2,3-0.6,4.7-0.9
		c0.4,0.7,0.7,1,1.2,1.3c1.4,0.7,2.4,1,4.6,0.9s5.3,0.1,7.2-1c2-1.1,1-2.1,1-2.1s0.9-0.1,1.2-1.1s-0.3-1.7-0.3-1.7s0.9-0.7,1.1-1.5
		c0.2-0.8-0.4-1.6-0.4-1.6s1.3-0.3,1.3-1.5c0-1.1-2.3-1.9-2.9-1.9c-0.7-0.1-1.9-0.2-1.9-0.2s1.1-2,0.3-2.3c-0.4-0.1-2.9,0.7-4.9,0.3
		c-2.3-0.5-4.3,1.2-4.9,1.8C478,112.5,476.8,114.6,476.8,114.6z"/>
	<path class="st6" d="M916.1,171.4l-2.9-5.1c-1-1.7-0.5-3.8,1-4.6c4-2,10.6-5.7,16.8-10.2c3.9-2.9,13.8-11.6,20-24.8
		c2.3-4.9,19.1,3.4,18.9,4.9c-1.6,11.7-15.3,26.5-23.7,30.5l-6.2,3c0,0-0.1,0-0.1,0c-7.6,3.7-15.5,6.8-20.1,8.1
		C918.5,173.6,916.9,172.8,916.1,171.4z"/>
	<g>
		<path class="st10" d="M721.1,74.9l17.4-2.4c1.8-0.2,3.2-2.7,3.2-5.6l0,0c0-2.8-1.4-5.3-3.2-5.6l-17.4-2.4c-4.1-0.6-7.9,3-7.9,7.9
			l0,0C713.2,72,717,75.5,721.1,74.9z"/>
		<path class="st14" d="M724.7,59.6l-3.5-0.5c-4.1-0.6-7.9,3-7.9,7.9c0,5,3.8,8.5,7.9,7.9l3.5-0.5V59.6z"/>
		<linearGradient id="SVGID_2_" gradientUnits="userSpaceOnUse" x1="668.6515" y1="67.0045" x2="719.5754" y2="67.0045">
			<stop  offset="0.1983" style="stop-color:#666666"/>
			<stop  offset="0.5698" style="stop-color:#CCCCCC"/>
		</linearGradient>
		<path class="st18" d="M678.6,88.9h31c5.5,0,9.9-4.5,9.9-9.9V55.1c0-5.5-4.5-9.9-9.9-9.9h-31c-5.5,0-9.9,4.5-9.9,9.9v23.9
			C668.7,84.4,673.1,88.9,678.6,88.9z"/>
		<path class="st10" d="M659.9,93.4h22c2.8,0,5-2.3,5-5V45.7c0-2.8-2.3-5-5-5h-22c-2.8,0-5,2.3-5,5v42.7
			C654.9,91.1,657.1,93.4,659.9,93.4z"/>
		<path class="st15" d="M681.9,40.6h-5.3v52.8h5.3c2.8,0,5-2.3,5-5V45.7C687,42.9,684.7,40.6,681.9,40.6z"/>
		<path class="st12" d="M683.5,98h4.2c1.5,0,2.7-1.2,2.7-2.7V38.6c0-1.5-1.2-2.7-2.7-2.7h-4.2c-1.5,0-2.7,1.2-2.7,2.7v56.8
			C680.9,96.8,682,98,683.5,98z"/>
		<g>
			<path class="st10" d="M710.2,56.1h-16.2c-0.5,0-0.9-0.4-0.9-0.9l0,0c0-0.5,0.4-0.9,0.9-0.9h16.2c0.5,0,0.9,0.4,0.9,0.9l0,0
				C711.2,55.7,710.8,56.1,710.2,56.1z"/>
			<path class="st10" d="M710.2,60.8h-16.2c-0.5,0-0.9-0.4-0.9-0.9l0,0c0-0.5,0.4-0.9,0.9-0.9h16.2c0.5,0,0.9,0.4,0.9,0.9l0,0
				C711.2,60.4,710.8,60.8,710.2,60.8z"/>
			<path class="st10" d="M710.2,65.6h-16.2c-0.5,0-0.9-0.4-0.9-0.9l0,0c0-0.5,0.4-0.9,0.9-0.9h16.2c0.5,0,0.9,0.4,0.9,0.9l0,0
				C711.2,65.1,710.8,65.6,710.2,65.6z"/>
			<path class="st10" d="M710.2,70.3h-16.2c-0.5,0-0.9-0.4-0.9-0.9l0,0c0-0.5,0.4-0.9,0.9-0.9h16.2c0.5,0,0.9,0.4,0.9,0.9l0,0
				C711.2,69.9,710.8,70.3,710.2,70.3z"/>
			<path class="st10" d="M710.2,75h-16.2c-0.5,0-0.9-0.4-0.9-0.9l0,0c0-0.5,0.4-0.9,0.9-0.9h16.2c0.5,0,0.9,0.4,0.9,0.9l0,0
				C711.2,74.6,710.8,75,710.2,75z"/>
			<path class="st10" d="M710.2,79.8h-16.2c-0.5,0-0.9-0.4-0.9-0.9l0,0c0-0.5,0.4-0.9,0.9-0.9h16.2c0.5,0,0.9,0.4,0.9,0.9l0,0
				C711.2,79.4,710.8,79.8,710.2,79.8z"/>
		</g>
	</g>
	<path class="st2" d="M780.2,117.2c0.6-0.6,1-1.4,0.9-2.2c-0.2-0.9-0.7-1.2-1.4-1.2c0.6-0.7,0.9-1.5,0.5-2.4c-0.4-1-1.1-1.2-2-1.1
		c0.2-0.4,0.3-0.8,0.2-1.2c-0.1-0.8-0.8-1.2-1.5-1.3c-2.5-0.5-4.5,1.8-5.5,3.8c-0.1,0.2,0,0.4,0.1,0.5c0,0.1,0.1,0.2,0.2,0.2
		c2.3,1.1,3.6,3.7,4.9,5.8c0.7,1.2,1,2.6,2.5,2.2C781.3,119.7,781.6,117.6,780.2,117.2z"/>
	<path class="st2" d="M495,102.2c1.5-0.6,0.9-1.9,0.8-3.2c-0.1-2.4-0.5-5.3,0.7-7.5c0.1-0.1,0.1-0.2,0-0.3c0.1-0.2,0-0.4-0.2-0.5
		c-1.9-1-4.9-1.8-6.6,0c-0.5,0.5-0.8,1.2-0.5,1.9c0.2,0.4,0.5,0.7,0.9,0.9c-0.7,0.4-1.2,1-1,2c0.2,1,1,1.5,1.8,1.7
		c-0.5,0.4-0.9,1-0.5,1.8c0.3,0.7,1.2,1.1,2,1.3C491.6,101.4,493.1,103,495,102.2z"/>
	<path class="st17" d="M407.7,121.1c-8-7.5-16.8-16.6-23.2-25.6c0,0-0.1-0.1-0.1-0.1l-5.2-7.1c-6.1-8.3,2.3-20.6,2.3-20.6
		c5.8-4.3,14.8-4.7,20.8,3.6l5.2,7.1c0,0,0.1,0.1,0.1,0.1c5.3,7.1,10.3,15.7,14.5,24C416.4,107.9,411.7,114.4,407.7,121.1z"/>
	<path class="st19" d="M418.3,115.9c1.4,0,2.8-0.1,4.2-0.1c-0.7-4.9-1.4-9.6-2.3-14.2c-17.5,2.5-35.3,2.3-52.5-1.1
		c-0.7,3.6-1.3,7.6-1.9,11.9C382.6,117.6,401,116.4,418.3,115.9z"/>
	<path class="st19" d="M404.1,141.4c7.3-0.8,14.5-2.8,21.2-5.6c-0.5-3.3-0.9-6.6-1.4-9.9c-1.5,0.1-3,0.1-4.5,0.2
		c-18,0.6-37.3,1.8-54.8-3.4c-0.4,3.9-0.6,7.9-0.7,12C376.5,140.5,390.1,143,404.1,141.4z"/>
	<path class="st20" d="M427.5,150.4c-2.7-16.5-4.6-34.4-7.5-50.2c-3-0.4-6-0.9-9-1.4c-8.5-1.3-17.1-3.5-25.7-4.3
		c6.7,19.2,16.1,38.7,31.7,51.3c3.4,2.8,7.1,5.1,10.9,7.2c-0.1-0.2-0.1-0.4-0.2-0.6C427.7,151.7,427.6,151.1,427.5,150.4z"/>
	<path class="st17" d="M474.1,116.5c-0.1-1-1-1.7-1.9-1.5c-8.2,1.6-28.6,2.8-32.5,3.8c-5.2,1.3-10.6-1.2-12.8-6.1
		c-4.9-10.9-11.8-24-19.4-34.2c0,0-0.1-0.1-0.1-0.1l-5.2-7.1c-3.7-3.6-10.7-4.3-16.6,0c0,0-9,12-6.5,17l5.2,7.1c0,0,0.1,0.1,0.1,0.1
		c11.8,16.4,31.5,33.6,39.8,39.6c3.6,6.5,18.2,4.6,30.4-1.3c0,0,17.9-9,19.8-10.7L474.1,116.5z"/>
	<path class="st1" d="M916.6,33.1c-0.7,0.7-1.3,1.5-1.9,2.5c-0.8,1.3-1.6,0.5-2.3,2c0.3,0.2,0.2,2.7,0.5,2.9c1.2,1,2.3,2.5,2.3,2.5
		c0.9-5.5,3.6-0.9,3.8,0.8c0.2,1.7-1.8,4.6-0.4,4.6c1.4,0,2.7-4.5,2.7-4.5c-0.3-7.3-1.8-7.1-3.6-9.7
		C917.6,33.9,917.1,33.5,916.6,33.1z"/>
	<path class="st1" d="M914.4,41.5c-0.4,0.2-2.2-4.6-2.6-4.6c0.3,0.9,1.7,7.3,2.1,8.6c0.6,2.1,1.9,2.3,2,2c0.1-0.5-0.3-1-0.4-1.5
		c-0.3-1-0.1-2.2-0.2-3.2c0-0.2-0.3-1.6-0.3-1.6C914.8,41.3,914.6,41.4,914.4,41.5z"/>
	<path class="st6" d="M896.6,37.4c0.6,0.3,1.1,0.6,1.8,0.8h28.5c0.4-5.1-2.7-10.9-6.7-13.5c-5.5-3.6-14.5-3.7-19.7-1.8
		C897.1,24.1,890.6,34.9,896.6,37.4z"/>
	<path class="st7" d="M895.9,38.1l16.3,0c-0.1-1.6-3.3-2.4-4.8-2.8c-6.9-1.9-13.9-3.8-20.8-5.8c-2.3-0.6-4.7-1.3-7-1.4
		c-0.5,0-1.1,0-1.5,0.3c-0.8,0.5-0.9,1.8-0.5,2.6c0.4,0.9,1.2,1.5,2,2c4.5,3,8.7,5.3,14,5.1C893.9,38.2,895.4,38.1,895.9,38.1z"/>
</g>
</svg>
