<svg xmlns="http://www.w3.org/2000/svg" viewBox="0 0 52 52"><g id="Camada_2" data-name="Camada 2"><g id="Camada_1-2" data-name="Camada 1"><path d="M26,52A26,26,0,1,1,52,26,26.0292,26.0292,0,0,1,26,52ZM26,2A24,24,0,1,0,50,26,24.0275,24.0275,0,0,0,26,2Z" style="fill:#666"/><g id="Expanded"><path d="M26,23.0071c-8.39,0-14.9629-2.9574-14.9629-6.7333S17.61,9.5405,26,9.5405s14.9629,2.9574,14.9629,6.7333S34.3906,23.0071,26,23.0071Zm0-11.97c-6.37,0-13.4666,2.1509-13.4666,5.237S19.6305,21.5108,26,21.5108s13.4666-2.1509,13.4666-5.237S32.37,11.0368,26,11.0368Z" style="fill:#666"/><path d="M26,28.9922c-8.39,0-14.9629-2.9574-14.9629-6.7333V16.2738a.7482.7482,0,0,1,1.4963,0v5.9851c0,3.0861,7.0969,5.2371,13.4666,5.2371s13.4666-2.151,13.4666-5.2371V16.2738a.7482.7482,0,0,1,1.4963,0v5.9851C40.9631,26.0348,34.3906,28.9922,26,28.9922Z" style="fill:#666"/><path d="M26,35.7255c-8.39,0-14.9629-2.9574-14.9629-6.7333V22.2589a.7482.7482,0,0,1,1.4963,0v6.7333c0,3.0861,7.0969,5.237,13.4666,5.237s13.4666-2.1509,13.4666-5.237V22.2589a.7482.7482,0,0,1,1.4963,0v6.7333C40.9631,32.7681,34.3906,35.7255,26,35.7255Z" style="fill:#666"/><path d="M26,42.4588c-8.39,0-14.9629-2.9574-14.9629-6.7333V28.9922a.7482.7482,0,0,1,1.4963,0v6.7333c0,3.0861,7.0969,5.237,13.4666,5.237s13.4666-2.1509,13.4666-5.237V28.9922a.7482.7482,0,0,1,1.4963,0v6.7333C40.9631,39.5014,34.3906,42.4588,26,42.4588Z" style="fill:#666"/></g></g></g></svg>