<svg xmlns="http://www.w3.org/2000/svg" viewBox="0 0 52 52"><g id="Camada_2" data-name="Camada 2"><g id="Camada_1-2" data-name="Camada 1"><path d="M26,52A26,26,0,1,1,52,26,26.0292,26.0292,0,0,1,26,52ZM26,2A24,24,0,1,0,50,26,24.0275,24.0275,0,0,0,26,2Z" style="fill:#666"/><path d="M19.5817,33.0075l-.3315-.1182V31.4684a4.0955,4.0955,0,0,1,1.5229-3.1113,11.5467,11.5467,0,0,1-1.8339-1.1865,6.0949,6.0949,0,0,0-1.814,4.2978v1.4209l-.3316.1182a4.1876,4.1876,0,1,0,2.7881,0ZM18.1877,39A2.0625,2.0625,0,1,1,20.25,36.9372,2.0646,2.0646,0,0,1,18.1877,39Z" style="fill:#666"/><path d="M32.4182,18.99l.332.1182v.9a4.7942,4.7942,0,0,1-1.6309,3.581,11.5576,11.5576,0,0,1,1.8423,1.1563A6.8336,6.8336,0,0,0,34.8752,20.01V19.109l.3315-.1181a4.1887,4.1887,0,1,0-2.7885-.001ZM33.8127,13A2.0625,2.0625,0,1,1,31.75,15.0622,2.0646,2.0646,0,0,1,33.8127,13Z" style="fill:#666"/><path d="M35.1164,32.98l-.2944-.0976-.0435-.3076A8.9088,8.9088,0,0,0,26,24.9372a6.7673,6.7673,0,0,1-6.6152-5.416l-.0831-.4122.3921-.1523a4.2023,4.2023,0,1,0-2.81.0615l.2944.0977.0435.3076A8.91,8.91,0,0,0,26,27.0622a6.7666,6.7666,0,0,1,6.6152,5.415l.083.4121-.3916.1524a4.2019,4.2019,0,1,0,2.81-.0616ZM16.1252,15.0622a2.0625,2.0625,0,1,1,2.0625,2.0625A2.0646,2.0646,0,0,1,16.1252,15.0622ZM33.8127,39a2.0625,2.0625,0,1,1,2.0625-2.0625A2.0646,2.0646,0,0,1,33.8127,39Z" style="fill:#666"/></g></g></svg>