<svg xmlns="http://www.w3.org/2000/svg" viewBox="0 0 52 52"><g id="Camada_2" data-name="Camada 2"><g id="Camada_1-2" data-name="Camada 1"><path d="M20.5673,23.757H17.5947a.4565.4565,0,0,0-.4568.4567v2.9727a.4568.4568,0,0,0,.4568.4568h2.9726a.4568.4568,0,0,0,.4568-.4568V24.2137A.4567.4567,0,0,0,20.5673,23.757ZM20.1106,26.73H18.0514V24.6705h2.0592Z" style="fill:#666"/><path d="M27.5005,23.757H24.5278a.4565.4565,0,0,0-.4567.4567v2.9727a.4568.4568,0,0,0,.4567.4568h2.9727a.457.457,0,0,0,.4568-.4568V24.2137A.4569.4569,0,0,0,27.5005,23.757ZM27.0437,26.73H24.9846V24.6705h2.0591Z" style="fill:#666"/><path d="M34.22,23.757H31.2472a.4567.4567,0,0,0-.4567.4567v2.9727a.4569.4569,0,0,0,.4567.4568H34.22a.457.457,0,0,0,.4568-.4568V24.2137A.4569.4569,0,0,0,34.22,23.757ZM33.7631,26.73H31.704V24.6705h2.0591Z" style="fill:#666"/><path d="M20.5673,30.5281H17.5947a.4567.4567,0,0,0-.4568.4568v2.9726a.4567.4567,0,0,0,.4568.4568h2.9726a.4567.4567,0,0,0,.4568-.4568V30.9849A.4567.4567,0,0,0,20.5673,30.5281Zm-.4567,2.9727H18.0514V31.4417h2.0592Z" style="fill:#666"/><path d="M27.5005,30.5281H24.5278a.4567.4567,0,0,0-.4567.4568v2.9726a.4567.4567,0,0,0,.4567.4568h2.9727a.457.457,0,0,0,.4568-.4568V30.9849A.457.457,0,0,0,27.5005,30.5281Zm-.4568,2.9727H24.9846V31.4417h2.0591Z" style="fill:#666"/><path d="M34.22,30.5281H31.2472a.4569.4569,0,0,0-.4567.4568v2.9726a.4569.4569,0,0,0,.4567.4568H34.22a.457.457,0,0,0,.4568-.4568V30.9849A.457.457,0,0,0,34.22,30.5281Zm-.4568,2.9727H31.704V31.4417h2.0591Z" style="fill:#666"/><path d="M37.8375,14.9117H34.8207l-.0113.0013v-.6085a1.8046,1.8046,0,0,0-3.6091,0v.6072H27.801v-.6072a1.8045,1.8045,0,1,0-3.609,0v.6072h-3.4v-.6072a1.8046,1.8046,0,0,0-3.6091,0v.6076l-.0046,0H14.1625a.4567.4567,0,0,0-.4568.4568V39.0432a.4568.4568,0,0,0,.4568.4568h23.675a.457.457,0,0,0,.4568-.4568V15.3685A.4568.4568,0,0,0,37.8375,14.9117Zm-5.7236-.6072a.891.891,0,1,1,1.782,0v2.52a.891.891,0,1,1-1.782,0Zm-6.1174-.891a.892.892,0,0,1,.891.891v2.52a.891.891,0,1,1-1.782,0V15.4111c.0012-.0143.0043-.028.0043-.0429s-.0031-.0286-.0043-.0429V14.3045A.8918.8918,0,0,1,25.9965,13.4135Zm-7.9.891a.891.891,0,1,1,1.782,0v2.52a.891.891,0,1,1-1.782,0Zm19.2839,24.282H14.6193V15.8253h2.5594l.0046,0v1a1.8046,1.8046,0,1,0,3.6091,0v-1h3.4v1a1.8045,1.8045,0,1,0,3.609,0v-1H31.2v1a1.8046,1.8046,0,1,0,3.6091,0V15.8241l.0113.0012h2.56Z" style="fill:#666"/><path d="M26,52A26,26,0,1,1,52,26,26.03,26.03,0,0,1,26,52ZM26,2A24,24,0,1,0,50,26,24.0275,24.0275,0,0,0,26,2Z" style="fill:#666"/></g></g></svg>