<svg xmlns="http://www.w3.org/2000/svg" viewBox="0 0 52 52"><g id="Camada_2" data-name="Camada 2"><g id="Camada_1-2" data-name="Camada 1"><path d="M26,52A26,26,0,1,1,52,26,26.0292,26.0292,0,0,1,26,52ZM26,2A24,24,0,1,0,50,26,24.0275,24.0275,0,0,0,26,2Z" style="fill:#666"/><path d="M46.4219,23.5975a.54.54,0,0,0-.0485-.1823.5.5,0,0,0-.0378-.0707.5393.5393,0,0,0-.1328-.1367c-.0136-.01-.02-.0272-.0349-.0359s-.0107,0-.0155-.0049a.0515.0515,0,0,0-.0155-.0126l-4.3532-2.2735a.5543.5543,0,0,0-.509,0l-4.3532,2.2735-.0156.0126a.02.02,0,0,0-.0155.0049.2832.2832,0,0,1-.0349.0359.5393.5393,0,0,0-.1328.1367.6308.6308,0,0,0-.0378.0707.5161.5161,0,0,0-.0475.1823c0,.0165-.0126.0291-.0126.0456v1.8052h-4.614a6.0344,6.0344,0,0,0-5.4594-5.4594V15.0327l4.0565-2.1214a.55.55,0,0,0,.2957-.4847V7.7127a.4387.4387,0,0,0-.0116-.0465.54.54,0,0,0-.0446-.1842.5115.5115,0,0,0-.0388-.0708.5469.5469,0,0,0-.1319-.1357c-.0136-.0107-.02-.0282-.0359-.0369s-.01,0-.0145,0-.01-.0087-.0155-.0126L26.2576,4.9534a.5511.5511,0,0,0-.51,0L21.3944,7.226l-.0155.0126h-.0145c-.0039,0-.0223.0262-.0359.0369a.5448.5448,0,0,0-.1318.1357.4914.4914,0,0,0-.0388.0708.539.539,0,0,0-.0475.1822.4178.4178,0,0,0-.0117.0466v4.7158a.55.55,0,0,0,.2957.4847l4.0566,2.1175v4.96a6.0344,6.0344,0,0,0-5.4624,5.4594h-4.615V23.6431c0-.0165-.0106-.0291-.0126-.0456a.5161.5161,0,0,0-.0475-.1823.6149.6149,0,0,0-.0378-.0707.5369.5369,0,0,0-.1347-.1367c-.0136-.01-.02-.0272-.0349-.0359s-.0107,0-.0156-.0049l-.0155-.0126-4.35-2.2735a.5543.5543,0,0,0-.509,0L5.8626,23.1544c-.0068,0-.01.0088-.0156.0126s-.0106,0-.0155.0049a.2832.2832,0,0,1-.0349.0359.5393.5393,0,0,0-.1328.1367.5.5,0,0,0-.0378.0707.5427.5427,0,0,0-.0485.1823c0,.0165-.0116.0291-.0116.0456v4.7138a.5537.5537,0,0,0,.2967.49l4.3531,2.2725a.5525.5525,0,0,0,.509,0l4.3532-2.2725a.5537.5537,0,0,0,.2967-.49V26.5517h4.614a6.0333,6.0333,0,0,0,5.4594,5.4594V36.97l-4.0565,2.1185c-.0058,0-.01.01-.0155.0135s-.0107,0-.0145,0-.0214.0262-.0349.0359a.5456.5456,0,0,0-.1338.1377.58.58,0,0,0-.0378.07.5394.5394,0,0,0-.0476.1832c0,.0165-.0116.0291-.0116.0456v4.7139a.55.55,0,0,0,.2957.4847l4.3532,2.2726a.5476.5476,0,0,0,.51,0l4.3532-2.2726a.55.55,0,0,0,.2957-.4847V39.5734c0-.0164-.01-.029-.0116-.0455a.54.54,0,0,0-.0476-.1833.588.588,0,0,0-.0378-.07.5472.5472,0,0,0-.1338-.1377c-.0135-.01-.02-.0271-.0349-.0358s-.01,0-.0145,0-.01-.01-.0155-.0136l-4.0565-2.1165v-4.96a6.0333,6.0333,0,0,0,5.4594-5.4594h4.615v1.8052a.5536.5536,0,0,0,.2966.49l4.3532,2.2725a.5525.5525,0,0,0,.509,0l4.3532-2.2725a.5537.5537,0,0,0,.2967-.49V23.6431C46.4335,23.6266,46.4229,23.614,46.4219,23.5975ZM10.47,21.992,13.6314,23.64,10.47,25.2884,7.3091,23.64ZM6.6692,24.5535l3.25,1.6957V29.72l-3.25-1.6967Zm7.5992,3.47-3.25,1.6967V26.2492l3.25-1.6957ZM29.8012,12.0921l-3.25,1.6967v-3.47l3.25-1.6967ZM26,6.0616,29.16,7.71,26,9.3629,22.839,7.7147Zm-3.8015,2.56,3.25,1.6967v3.47l-3.25-1.6967ZM26,41.2216,22.839,39.5734,26,37.9252,29.16,39.5734Zm-3.8015-.7407,3.25,1.6967v3.47l-3.25-1.6957Zm7.603,3.4709-3.25,1.6957v-3.467l3.25-1.6967ZM26,30.9621A4.9621,4.9621,0,1,1,30.9618,26h0A4.967,4.967,0,0,1,26,30.9621Zm15.53-8.97L44.69,23.64,41.53,25.2884,38.368,23.64ZM37.731,24.5535l3.25,1.6957V29.72l-3.25-1.6967Zm7.6021,3.47-3.25,1.6967V26.2492l3.25-1.6957Z" style="fill:#666"/></g></g></svg>