<svg xmlns="http://www.w3.org/2000/svg" viewBox="0 0 52 52"><g id="Camada_2" data-name="Camada 2"><g id="Camada_1-2" data-name="Camada 1"><path d="M28.2564,32.8l-.005-.0044a3.6716,3.6716,0,0,1-1.3343-2.5508V17.7974a.7082.7082,0,0,0-.72-.7962h-.42c-.1767.0044-.7065.0852-.7065.9174v9.2535h.0133v2.94a3.6874,3.6874,0,0,1-1.3726,2.7086l.0017.0027a3.7254,3.7254,0,0,0-1.4861,2.9749,3.7733,3.7733,0,0,0,7.5466,0A3.7238,3.7238,0,0,0,28.2564,32.8Z" style="fill:#666"/><path d="M26.1112,42.0146A5.8662,5.8662,0,0,1,22.65,31.4035c.01-.0105.0116-.0188.0238-.0288a3.0949,3.0949,0,0,0,.8111-1.9256V12.0018A1.7242,1.7242,0,0,1,25.21,10.2771h1.58a1.7243,1.7243,0,0,1,1.7252,1.7247V29.4967a2.7164,2.7164,0,0,0,.9667,1.8293c.0239.0211.0366.0377.0576.0576a5.863,5.863,0,0,1-3.4283,10.631Zm4.766-12.12c-.0116-.0128-.0116-.0238-.0271-.036a1.8667,1.8667,0,0,1-.5022-1.191v-17.15c0-2.6421-1.6-3.1266-2.4472-3.1985H23.9436a2.3311,2.3311,0,0,0-2.2922,2.66V28.6274a1.7469,1.7469,0,0,1-.4391,1.1821c-.0149.0122-.0111.0211-.0216.0332a7.7616,7.7616,0,1,0,9.6865.0521Z" style="fill:#666"/><path d="M26,52A26,26,0,1,1,52,26,26.03,26.03,0,0,1,26,52ZM26,2A24,24,0,1,0,50,26,24.0275,24.0275,0,0,0,26,2Z" style="fill:#666"/></g></g></svg>