<svg xmlns="http://www.w3.org/2000/svg" viewBox="0 0 52 52"><g id="Camada_2" data-name="Camada 2"><g id="Camada_1-2" data-name="Camada 1"><path d="M26,52A26,26,0,1,1,52,26,26.03,26.03,0,0,1,26,52ZM26,2A24,24,0,1,0,50,26,24.0275,24.0275,0,0,0,26,2Z" style="fill:#666"/><path d="M41.7361,15.11a3.5069,3.5069,0,0,0-3.5,3.5,3.4528,3.4528,0,0,0,.3675,1.5285l-4.1507,4.3364a3.4537,3.4537,0,0,0-1.4732-.3379,3.5069,3.5069,0,0,0-3.5,3.5c0,.0479.0122.0924.0141.14l-1.2724.4823a3.4943,3.4943,0,0,0-2.85-1.4843,3.4554,3.4554,0,0,0-1.7458.4856l-2.4189-2.295a3.4445,3.4445,0,0,0,.15-.9573,3.5,3.5,0,0,0-7,0,3.4547,3.4547,0,0,0,.354,1.5038l-3.5335,4.514a3.45,3.45,0,0,0-.9129-.1365A3.5111,3.5111,0,1,0,13.15,31.4169l3.2973-4.2111a3.4516,3.4516,0,0,0,3.3257-.2759l2.31,2.1907a3.45,3.45,0,0,0-.2117,1.1544,3.4906,3.4906,0,0,0,6.9664.3308l1.5826-.6009a3.4846,3.4846,0,0,0,5.733-3.8207l4.1852-4.37a3.4668,3.4668,0,0,0,1.3979.2964,3.5,3.5,0,1,0,0-7ZM10.2642,35.39a2,2,0,1,1,2-2A2.0039,2.0039,0,0,1,10.2642,35.39Zm7.5924-9.3813a2,2,0,1,1,2-2A2.0039,2.0039,0,0,1,17.8566,26.0083ZM25.371,32.275a2,2,0,1,1,2-2A2.0039,2.0039,0,0,1,25.371,32.275ZM32.98,29.6372a2,2,0,1,1,2-2A2.0039,2.0039,0,0,1,32.98,29.6372Zm8.7564-9.027a2,2,0,1,1,2-2A2.0039,2.0039,0,0,1,41.7361,20.61Z" style="fill:#666;fill-rule:evenodd"/></g></g></svg>