<svg xmlns="http://www.w3.org/2000/svg" viewBox="0 0 52 52"><g id="Camada_2" data-name="Camada 2"><g id="Camada_1-2" data-name="Camada 1"><path d="M26,52A26,26,0,1,1,52,26,26.03,26.03,0,0,1,26,52ZM26,2A24,24,0,1,0,50,26,24.0275,24.0275,0,0,0,26,2Z" style="fill:#666"/><path d="M19.8,37.7378a1.6635,1.6635,0,0,1-1.583-1.17h-.0757l-.0058-.5V15.4326h.0815a1.686,1.686,0,0,1,2.4746-.9145l16.3648,9.7485a2.2619,2.2619,0,0,1-.003,3.47L20.7114,37.4688A1.8435,1.8435,0,0,1,19.8,37.7378Zm-.6645-2.17.0058.5a.6654.6654,0,0,0,.6587.67.8552.8552,0,0,0,.419-.1392l16.2583-9.6762a1.2748,1.2748,0,0,0-.0386-1.8677L20.1821,15.3789a.66.66,0,0,0-1.041.5537Z" style="fill:#666"/></g></g></svg>