<svg xmlns="http://www.w3.org/2000/svg" viewBox="0 0 52 52"><g id="Camada_2" data-name="Camada 2"><g id="Camada_1-2" data-name="Camada 1"><path d="M26,52A26,26,0,1,1,52,26,26.03,26.03,0,0,1,26,52ZM26,2A24,24,0,1,0,50,26,24.0275,24.0275,0,0,0,26,2Z" style="fill:#666"/><path d="M25.9985,42.3052a10.1585,10.1585,0,0,1-10.145-10.0327V28.6343l.603.1269a47.8636,47.8636,0,0,0,9.0557.7959h.9048a48.0721,48.0721,0,0,0,9.1255-.7959l.603-.1269V32.05A10.1575,10.1575,0,0,1,26.1138,42.3047C26.0752,42.3052,26.0366,42.3052,25.9985,42.3052Zm-9.145-12.4463v2.4043a9.1579,9.1579,0,0,0,9.145,9.042c.0347,0,.0689,0,.104-.0005a9.1576,9.1576,0,0,0,9.043-9.249V29.8594a51.4727,51.4727,0,0,1-8.6475.6977l-1.0292-.0014A51.214,51.214,0,0,1,16.8535,29.8589ZM26.0029,28.24c-9.0678-.0424-12.3022-1.4463-13.4238-2.2793a.782.782,0,0,1-.1938-1.0424l.0029-.0054A3.5058,3.5058,0,0,1,14.4663,23.36a.1626.1626,0,0,0,.125-.1587c-.1724-2.7368.0962-9.1387,6.1782-11.397l.5479-.2036,1.9638,9.6987c.0142.13.106.2139.1851.2007a.1625.1625,0,0,0,.1475-.1772L22.5566,9.9468l.4878-.0547a25.5557,25.5557,0,0,1,5.9331-.0327l.4678.07-1.06,11.3955a.1831.1831,0,0,0,.1451.1826.1717.1717,0,0,0,.1792-.15l1.9721-9.7553.5479.2036c6.0747,2.2558,6.3491,8.6562,6.1846,11.3037-.0054.1694.0458.2344.1186.2519a3.5046,3.5046,0,0,1,2.0776,1.55.7807.7807,0,0,1-.1875,1.0489C38.2935,26.7925,35.0518,28.1929,26.0029,28.24ZM13.3521,25.2788c.9116.5757,3.9716,1.92,12.6508,1.9614,8.6582-.0454,11.7276-1.3867,12.645-1.9619a2.3994,2.3994,0,0,0-1.351-.9458,1.1593,1.1593,0,0,1-.8877-1.1279c0-.0234.0024-.0772.0073-.1577.1455-2.3408-.0718-7.8823-4.99-10.0821l-1.7281,8.5337A1.1387,1.1387,0,0,1,28.55,22.5054l-.1255-.0039a1.1631,1.1631,0,0,1-1.0342-1.274l.9712-10.4389a25.1118,25.1118,0,0,0-4.7177.0468L24.61,21.231a1.1633,1.1633,0,0,1-2.3169.2133l-1.72-8.48c-4.9248,2.2011-5.1367,7.7441-4.9892,10.0854l.0073.1528a1.1613,1.1613,0,0,1-.8882,1.1294A2.4335,2.4335,0,0,0,13.3521,25.2788Z" style="fill:#666"/></g></g></svg>