<svg xmlns="http://www.w3.org/2000/svg" viewBox="0 0 52 52"><g id="Camada_2" data-name="Camada 2"><g id="Camada_1-2" data-name="Camada 1"><path d="M26,52A26,26,0,1,1,52,26,26.03,26.03,0,0,1,26,52ZM26,2A24,24,0,1,0,50,26,24.0275,24.0275,0,0,0,26,2Z" style="fill:#666"/><path d="M26,40.3125a12.1637,12.1637,0,0,1-2.0757-24.1489V13.8384H22.001V10.687H30v3.1514H28.0757v2.3237A12.034,12.034,0,0,1,32.66,17.9688l3.09-3.09,2.521,2.521-2.9439,2.9444A12.1622,12.1622,0,0,1,26,40.3125ZM24.9243,15.9863h1.0742v1a11.1669,11.1669,0,1,0,7.92,3.2964l.708-.706.0268.0268,2.2041-2.2041-1.1069-1.1069-2.2041,2.2041,1.0264,1.0263-.7061.7085a11.0942,11.0942,0,0,0-7.8652-3.2451v-1h1.0742V12.8384H29V11.687H23.001v1.1514h1.9233Z" style="fill:#666"/><path d="M26.228,30.8613l-.0439,0a2.7405,2.7405,0,0,1-2.5176-3.73l-3.6987-3.8144,1.6606-1.61,3.6987,3.8145a2.7256,2.7256,0,0,1,2.8746.6748h0a2.7508,2.7508,0,0,1-1.9737,4.6655Zm-4.8462-7.5229,3.4991,3.6089-.1783.3237a1.7414,1.7414,0,0,0,1.4971,2.59,1.6994,1.6994,0,0,0,1.2456-.4936,1.75,1.75,0,0,0,.0386-2.4756h0a1.735,1.735,0,0,0-2.0493-.3311l-.3291.168-3.4986-3.6084Z" style="fill:#666"/></g></g></svg>