<svg xmlns="http://www.w3.org/2000/svg" viewBox="0 0 52 52"><g id="Camada_2" data-name="Camada 2"><g id="Camada_1-2" data-name="Camada 1"><path d="M26,52A26,26,0,1,1,52,26,26.0292,26.0292,0,0,1,26,52ZM26,2A24,24,0,1,0,50,26,24.0275,24.0275,0,0,0,26,2Z" style="fill:#666"/><path d="M34.5827,13.893h0a3.1465,3.1465,0,0,0,6.182,0l.3807-1.9338a3.2829,3.2829,0,0,0-3.2433-3.7306h-.4416a3.2923,3.2923,0,0,0-3.2433,3.7763ZM36.1358,10.36a1.79,1.79,0,0,1,1.34-.6091h.4415a1.7747,1.7747,0,0,1,1.7663,1.9643l-.3654,1.8881a1.6457,1.6457,0,0,1-3.2281,0l-.3654-1.8425A1.7374,1.7374,0,0,1,36.1358,10.36Z" style="fill:#666"/><path d="M44.7694,23.9274l-.868-4.1112a1.4782,1.4782,0,0,0-.944-1.0811l-3-1.0659-2.2535,2.2536-2.2536-2.2536-3,1.0659a1.4784,1.4784,0,0,0-.944,1.0811l-.8679,4.1112a.7556.7556,0,1,0,1.477.32l.8526-4.0808L35.07,19.42l2.65,2.6494L40.3688,19.42l2.0709.7157.8679,4.1112a.7649.7649,0,0,0,.7461.5938.5191.5191,0,0,0,.1523-.0152A.7691.7691,0,0,0,44.7694,23.9274Z" style="fill:#666"/><path d="M11.21,13.893h0a3.1466,3.1466,0,0,0,6.1821,0l.3807-1.9338a3.2829,3.2829,0,0,0-3.2433-3.7306h-.4416a3.2923,3.2923,0,0,0-3.2433,3.7763ZM12.7628,10.36a1.79,1.79,0,0,1,1.34-.6091h.4416a1.7749,1.7749,0,0,1,1.7663,1.9643l-.3654,1.8881a1.6457,1.6457,0,0,1-3.2281,0l-.3655-1.8425A1.6857,1.6857,0,0,1,12.7628,10.36Z" style="fill:#666"/><path d="M16.9653,19.42l2.0709.7157.8679,4.1112a.7649.7649,0,0,0,.7461.5938.5191.5191,0,0,0,.1523-.0152.7508.7508,0,0,0,.5786-.8984l-.8679-4.1112a1.4785,1.4785,0,0,0-.9441-1.0811l-3-1.0659L14.3007,19.938l-2.2536-2.2688-3,1.0659a1.4784,1.4784,0,0,0-.944,1.0811l-.8679,4.1112a.7556.7556,0,1,0,1.477.32L9.55,20.1664l2.1013-.7461,2.65,2.6494Z" style="fill:#666"/><path d="M25.9948,35.3627a3.1618,3.1618,0,0,0,3.091-2.5581l.3807-1.9338a3.2827,3.2827,0,0,0-3.2433-3.73h-.4416a3.2921,3.2921,0,0,0-3.2433,3.7762l.3655,1.8881h0A3.1618,3.1618,0,0,0,25.9948,35.3627ZM24.4417,29.272a1.79,1.79,0,0,1,1.34-.6091h.4416A1.7747,1.7747,0,0,1,27.99,30.6272l-.3654,1.8881a1.6457,1.6457,0,0,1-3.2281,0l-.3654-1.8424A1.7372,1.7372,0,0,1,24.4417,29.272Z" style="fill:#666"/><path d="M32.2073,38.743a1.4784,1.4784,0,0,0-.944-1.0811l-3-1.0658L25.9948,38.85l-2.2536-2.2535-3,1.0658a1.4783,1.4783,0,0,0-.9441,1.0811L18.93,42.8542a.7556.7556,0,0,0,1.477.32l.8375-4.0808,2.1012-.7461,2.6495,2.65,2.6495-2.65,2.0708.7157.8679,4.1112a.7649.7649,0,0,0,.7461.5938.5191.5191,0,0,0,.1523-.0152.7507.7507,0,0,0,.5786-.8984Z" style="fill:#666"/><path d="M38.9984,26.8357a.7353.7353,0,0,0-.8222.6852,12.1059,12.1059,0,0,1-4.2178,8.07.7661.7661,0,0,0-.0914,1.0659.7345.7345,0,0,0,.5786.2588.7468.7468,0,0,0,.4873-.1827,13.6332,13.6332,0,0,0,4.7507-9.0751A.7736.7736,0,0,0,38.9984,26.8357Z" style="fill:#666"/><path d="M13.8286,27.5209a.7568.7568,0,1,0-1.5074.1371,13.6,13.6,0,0,0,4.7507,9.0751.7564.7564,0,1,0,.9745-1.1572A12.0387,12.0387,0,0,1,13.8286,27.5209Z" style="fill:#666"/><path d="M21.99,14.7457a12.2827,12.2827,0,0,1,8.0245,0,.7122.7122,0,0,0,.2588.0457.77.77,0,0,0,.7157-.5025.7463.7463,0,0,0-.4568-.9593,13.7022,13.7022,0,0,0-9.0295,0,.7521.7521,0,0,0-.4568.9593A.7188.7188,0,0,0,21.99,14.7457Z" style="fill:#666"/></g></g></svg>